<mxfile host="65bd71144e">
    <diagram id="HIP3nbAZw_EuaXWnEj3U" name="Page-1">
        <mxGraphModel dx="1086" dy="658" grid="1" gridSize="10" guides="1" tooltips="1" connect="1" arrows="1" fold="1" page="1" pageScale="1" pageWidth="850" pageHeight="1100" math="0" shadow="0">
            <root>
                <mxCell id="0"/>
                <mxCell id="1" parent="0"/>
                <mxCell id="7" value="http://ics2o.mths.ca" style="swimlane;whiteSpace=wrap;html=1;" parent="1" vertex="1">
                    <mxGeometry x="40" y="40" width="760" height="480" as="geometry"/>
                </mxCell>
                <mxCell id="8" value="Cookie Clicker PWA" style="whiteSpace=wrap;html=1;fontSize=35;" vertex="1" parent="7">
                    <mxGeometry y="23" width="760" height="67" as="geometry"/>
                </mxCell>
                <mxCell id="9" value="" style="shape=image;verticalLabelPosition=bottom;labelBackgroundColor=default;verticalAlign=top;aspect=fixed;imageAspect=0;image=data:image/png,iVBORw0KGgoAAAANSUhEUgAABK0AAASwCAYAAAA5cbmXAAAAAXNSR0IArs4c6QAAIABJREFUeF7s3QeYVdW9/vF37TNn+swZYIZeLCiKCjOg2CKiaNSIXewFGcCWmOSm35hc7o0pN4kxuXZksCYW7F2xF1QUZgAFaYqACFJmzjSmnHPW/zmj5m8SI1NO2Xuf734eHvLEvdd6f5+1HWd+c/baRhwIIIAAAggggAACaReYLAUKykuGBBQdZI3TX9b2N9bpa436GMUKZUyRrAplbZ6MiRopYq0iVjbiGCcck7Y4sluiVluNYzYFYpE17eHGNbetVUvaiyMAAggggAACCCDQDQHTjWu4BAEEEEAAAQQQQKAbAjPG9gpFI3Y369jdZLWbIw23VrvLaDdJwyQ53Rj26y6xMtqgmFZKdrF1tDhmnSVNbXXL5i5TW4LnYjgEEEAAAQQQQCChAjStEsrJYAgggAACCCDgZ4HJI5VdkF2S75i2/KgTzAu0x7KCARuImmCWFAsq4uRbRQtiAVPoxGx/KzPIGDPYSLtZ2T0klbnEp13SIsnON9a8FYvp7TlLwx9Ksi7JRwwEEEAAAQQQQEA0rbgJEEAAAQQQQCDjBCZPVqDPisI+rQGVOsoqNTGVRmVLjdRbRr2NUR/Z+P+28b/7SPE/Jv53lm+xrDYZRy/bmH3NOubNhtbwEj6N5dvVpjAEEEAAAQQ8IUDTyhPLREgEEEAAAQQQ+CqByQcPziuI1IacVidkjOn4EzUKOVYlkkqsVZ+OBtQXTSjZMsn0k1SK6E4FmmX0hmL2FUd2kcnKWjJrYe26nV7FCQgggAACCCCAQIIEaFolCJJhEEAAAQQQQKDnApeNLCuM5LX1i1lbZqK2NGoCpUa21Fr1lzH9jbGfbVBunN7W2t6Scno+KyN0QWCrNVpirN6XzMqYiX2aFbMN1gQarUy7icmJBqzjyGZZmQITjeXLxB+ZjBUYmXwZFUmmULL5ks2zMrmOTK6V/dJeXsZKttla1Rtj662csLGxbTLOBtnYxqCCH2/bc9umuXMV7UJuTkUAAQQQQAABDwrQtPLgohEZAQQQQAABrwlMHVFalBVs72uzYv1iCvSVtf2MsQOsMUNkNViyQyQzWIo3NTgQ+HqBjjcnSjUy5k0T0yKr2HvRcP0S3pTInYMAAggggIC/BGha+Ws9qQYBBBBAAIFUCZgZY3sVR9pifWIB2yfoqHcspj6OVZ+oMf0lDTDSIMkOlsxQSYWpCsY8GSsQldE8Y+3jcgKvzl5UuyRjJSgcAQQQQAABnwjQtPLJQlIGAggggAACPRWIb05euLqwd8Co1NqsMhP/O2rLrGP7GmsGxBtRHX+MBir+uJ4U7OmcXI9AEgW2WavbjHEeqqqpnc+bEZMozdAIIIAAAggkSYCmVZJgGRYBBBBAAAG3CUwpLykJ2sigqAKDTPxRPGN3k7SnpGGfPZpn442oL+0t5LYKyINANwWstlujKmPN3VWL66q7OQqXIYAAAggggECKBWhapRic6RBAAAEEEEiEwIyxCmbtKMuJ5LXktkSyc3KzIrk2aopiRsWysSIrpyzejDImtru1Zk8jjYi/TS8RczMGAt4WsO9Zmb9YE3341urGLd6uhfQIIIAAAgj4W4Cmlb/Xl+oQQAABBFwsYCVz6ajCspgN9vtsg3JbGpPpZazpa2T7WanMSCFJxcYoZK0tlkzB5/tDBVxcGtEQ8IiAuUtR3VK1tO5VHh/0yJIREwEEEEAgowRoWmXUclMsAggggECaBMyU8pJhAWN3V0zDjXRAzDHjjLUjJdF8StOiMC0CfxcwWm+k36o98uDsd5s2I4MAAggggAAC7hCgaeWOdSAFAggggICPBGZOUNbHdSX7Rk1slIk5R1ljjzFSXx+VSCkI+FjA/s3ETNXg3uFXZr6kiI8LpTQEEEAAAQRcL0DTyvVLREAEEEAAAS8IVFaUDJO14yRzomRPlZTvhdxkRACBrxaw0g4jXS9jHstpDS66YdmWRqwQQAABBBBAILUCNK1S681sCCCAAAI+EZgpORvGFI5QLHhkTLHpRhrtk9IoAwEEvlrgRTn2QWvtwtzW3KU0sbhNEEAAAQQQSL4ATavkGzMDAggggIBPBCZPVqBkVcl+MWuPkdEMSbv5pDTKQACBLgpY2flGuk+xwPNDltQumynFujgEpyOAAAIIIIDATgRoWnGLIIAAAggg8DUCEyYoa3h9aLSi5iRr7CWSygBDAAEE/lHAbpTRzSZinhi8NFxNA4v7AwEEEEAAgcQI0LRKjCOjIIAAAgj4SOCLT1RZEzshZs232UTdR4tLKQgkX2CdtfqtjQaeuPXd7euTPx0zIIAAAggg4F8Bmlb+XVsqQwABBBDogsCMsQpGYiUjTcweK2OukOzALlzOqQgggMBXCNinjJzfO4G612ctVDtECCCAAAIIINA1AZpWXfPibAQQQAABHwmce2Dv4ty2WLls7FTJTJEU8lF5lIIAAm4RMHaTouYX7W2xh+54v2GbW2KRAwEEEEAAAbcL0LRy+wqRDwEEEEAgkQJmxtheQ2zEjo2a2FQjc7wk/luYSGHGQgCBrxOwMvYaJ2ZvvmVxwypJFi4EEEAAAQQQ+PcCfKPO3YEAAggg4GuBySOVXZRTsrcjHWWtvVjSHr4umOIQQMArAvOk2H8PKWl4a+ZLinglNDkRQAABBBBIpQBNq1RqMxcCCCCAQEoEZkrOulFFeyjgnGKsfiipT0omZhIEEECg6wJrrdVPYsY8e1tNXV3XL+cKBBBAAAEE/CtA08q/a0tlCCCAQMYJXLpfqFe7scdax/w3n6jKuOWnYAQ8LWAla6SbjOPc5Jja5Wzc7unlJDwCCCCAQIIEaFolCJJhEEAAAQTSJmBm7Fc0IuKYS40xl0sKpC0JEyOAAAKJEWiQdHMsZu8PKOvjwb23b+IRwsTAMgoCCCCAgLcEaFp5a71IiwACCCDwucCMsQpGo0XjZJw/yuogYBBAAAEfC7Qbq6XW0SpZrZa01rFmW1SqsybaGnCc1ki70xZ0Iq0xJ9DaFo3sCLbm7vhgwNYdL7Fflo9vC0pDAAEE/C9A08r/a0yFCCCAgK8Ezh/VryAnq/UYG7N/kTTYV8VRDAIIIJB4ga1Ges8as9TE7NKoE11hI2ZznpzNNy4Nx/fQ4g2GiTdnRAQQQACBBAnQtEoQJMMggAACCCRXoHKf4t4225xhrH4vqSi5szE6Au4QMMYoNzdbebk5ys7OUnYwS8FgluL/f/ywVmpra1drW5taWtrU2NSiWCzmjvCkcL+A0TYb07yA9FAsYBfVt9Svm7tMbe4PTkIEEEAAgUwRoGmVKStNnQgggIBHBaZWlA6UIpc41v7MSlkeLYPYCPxbgZzs4N8bU3l5ORo4oFTDBvfTsKH9NHhQmbICnd+mzVqrtes36/2VH+ndZR9qe229wvVNikZpZHELdkLA2BZZ3S9jbgs4scWzFjZs7cRVnIIAAggggEDSBGhaJY2WgRFAAAEEeiBgKscU766Yc6VkL+zBOFyKQMoF4p+Ccpz4H0dZWYG/fzoq/gmpeINqQLwpNahMQwb31ZDB/Tr+v2Qe0VhMy9//SG8vel8fbdjc0cRqbm5J5pSM7R+Bl2R0ldpsddV79dv9UxaVIIAAAgh4RYCmlVdWipwIIIBABgjE96vKCrTuH5C91lrtlwElU6KLBIJZgY5H7/7+Jyuro+mUl5etXiVF6l1SrF69ilRYkKfCglwV5OcpNydbgax4cyp+rtPRgIo3q9x+1NY1aOHilapZslrbttervqFJkUjU7bHJlz4BK6v7ZKNXBYKNK2YtVHv6ojAzAggggEAmCdC0yqTVplYEEEDAhQJTdlFuMFQ0NGbMZVL8j5L7sRMXGhApsQLxx+nizaZ/+RMIKDc3R71CBR3Np9LeJSotDamsT0i9exd36TG8xCZO/2jxxwrXfLhRCxYu7/i7qXmHmppa1NYeSX84ErhNoM5KP460xB684/2GbW4LRx4EEEAAAX8J0LTy13pSDQIIIOB6gckHD84rbGguNcHoCBPTpcboRPaqcv2ypS1gvPHU8cmnrM8+AZUdDCgnJ1ulfT5rNpWUFKkkVPjZn+JCFRfne+KTTmkD7eLE27aFtfrDjfpo/SatW79Z9Y07OjZ+j38q67M/EUWiMcWbXv/uiH/yLP645Jcfm3Tij1AGHDnGUeDzRymdQPwcp2N3+fh4MWvV3h7paJy1tbYr/pgjh6sEYsaa62Wd389esn2Dq5IRBgEEEEDANwI0rXyzlBSCAAIIuE9g6ojSoqzCaK+2aLRfljUTrdFpksZK4r8/7luulCb68l5P2dnBjn2f+vQOaUD/PhrQr3fH3/379e54/I7D/QLxhlKkPar2SETtkaiCgXhzMdjxabcv3nTYkyriG8m/t3yt3lq4TB+s/UR1dQ0dTS0OdwhY6WXHiV46eFHjipkS3UV3LAspEEAAAV8I8EODL5aRIhBAAIH0CkyWAnnjikqCEdMrZk25Y+0kKzPJSH3Sm4zZUykQCAQU3xcqKxj/+7P9oOLNqPijdwP6ftaIGti/VP3704xK5br4ca7WtnY9PW+B3nj7PcX35+Jwh4CVPpY158fCdW/ctlbs9u+OZSEFAggg4GkBmlaeXj7CI4AAAukRmDG2VyjSFusTCMTGR41zlrGaKCkrPWmYNVkC8U/IdDye1/Fo3hd7RGWpJFSgstIS9SvtpbKyEvUt66Wy0pCyg2xHlqy1YNx/L7Cttl533vOMPvxok1pa2qByh0BTzNjpea05j92wbEujOyKRAgEEEEDAiwI0rby4amRGAAEEUixw7oG9i4OtkX4BmYskXSypd4ojMF0SBOKfgup4NC87S7k5ORoyuK+GDCzreCwv/qdPn5Diew9xIOAFgfg+WG++vUyPPT1ftbU8PuiSNWuTNT+NGt16W01dnUsyEQMBBBBAwEMCfCfqocUiKgIIIJBKgYsqCssCco6y1rlSsiNTOTdz9Vwg/ga9QPxRvYDz2Qbm2UENHdxXuw4boN2GDdDQIX2VlcWH43ouzQhuFGhtbde9D76gxe+uUWPTDjdGzLRM8X2u/hgIxP4wa2HD1kwrnnoRQAABBLovQNOq+3ZciQACCPhO4IJxRX2C7eZoGzPXGKP+vivQAwXFH8fr+BMIdLxxLf7mtc/euuYoEHBUVJCngsI8FRXmq+jzvwsLclVYVKCi+N+F+epVXNjxZjYOBBCQNny8RXfc84w+2by9482HHOkWMA+329Zv37F4x0ZJ7Kaf7uVgfgQQQMDlAjStXL5AxEMAAQSSLTB5pLKLskp3ldN+p5EOSPZ8jP+ZQLwxlZeb0/EI3r4jdtHIkbtot6EDZBz+08w9gkAyBOIvG3x9wVI99uR8NTbuUCQaTcY0jNlZAasPFbRn1QeLl859YwMfh+usG+chgAACGSbAd8YZtuCUiwACCHwhcO7w3sW5hbGLJPsnSXwsJ8m3RnxvqLz8XO06rL+OO2qchu82OMkzMjwCCHydwPy33tXjz7yhhsYdfAIrvbdKvHt4dbQtck12XtO2WQvFx+HSux7MjgACCLhKgKaVq5aDMAgggEDyBSr3Ke5tss2vrdUlyZ8ts2eIP85XWJCvIw4r1zePPKDj8T4OBBBwn8CnW2v14qvVWli9suMNhK08RpiuRYpK9v8CgbY/1+4o2j6XNw+max2YFwEEEHCNAE0r1ywFQRBAAIHkCly6X6hXu2PvtsYck9yZMnv0jn2nCvM7mlRHjq/o2I+KAwEEvCUQrm/WM88v0NuL3ldT8w5Fo/F9xDlSLWBkPrHW/qVdbXcVtheGb1i2pYl9sFK9CsyHAAIIpFeA76TT68/sCCCAQNIFzj2wd3FuW3SWrM5M+mQZOkG8UVVcmK9vHXOwDjt4PxpVGXofULY/Bay1enreW5r38iI18SbCdC9yxBjNNrHodc252evbhm5vmjtXbE6W7lVhfgQQQCCJAjStkojL0AgggEA6BS4bWVbYGmz7o4wuTmcOv879xSeqTjj2EH3j4P38WiZ1IYDAlwRq6xp17awHtGnzdj595Z4742HjxP6UFwwu3vTW9qa5oonlnqUhCQIIINBzAZpWPTdkBAQQQMBVAt8/WHn1O0IzJf3YVcF8ECYQCKioME80qnywmJSAQA8E4p++uueBFzR/wXts4t4Dx+Rcam7Pjtr/yS0Mf3LNG+KthMlBZlQEEEAgZQI0rVJGzUQIIIBAcgVmTlDWunBomrG6MbkzZdbowWCWBvTvo1NPGK+99xyaWcVTLQII7FSgeslq3XXvs2pqblG8mcXhKoHVMrqkODc8nwaWq9aFMAgggECnBWhadZqKExFAAAF3CsyUnA3lheOtAi+6M6G3UjmOUXZ2UAePG6lJxxyiwoI8bxVAWgQQSItAc3OLrp/9kD78aBOPDqZlBXY2qd0Yk53c2NbwztxlatvZ2fxzBBBAAAF3CNC0csc6kAIBBBDojoCZsW9ot1iWllqJzkp3BD+/xnEcFRfn6+Tjv6GD9h/JRuo9sORSBBCQnntpoR596nW1trbD4UYBY++MWueK22rqwryN0I0LRCYEEEDg/wvQtOJuQAABBDwocPleRX1acp23Je3qwfiuiZybk93x2N/h3xjtmkwEQQAB/wjEN2y/ac6j2rylVrFYzD+F+aeSbcaJHDl4UdO7MyUWyD/rSiUIIOAjAZpWPlpMSkEAAf8LTCkvKQnIvippX/9Xm5wKjTEa0K+PrrjkVPUqKUrOJIyKAAII/JPA4vc+0F33PKuGxmb2vnLh3RGTmdK4R91dc+fy9kEXLg+REEAggwVoWmXw4lM6Agh4RsBcMqqwrN04r8qYPT2T2mVB482qUfvupukXTFJ8c3UOBBBAIF0Cq9Z8rPseelEbNn6qWIzN29O1Dl81rzG6KVIb/v5ta9XiplxkQQABBDJVgKZVpq48dSOAgBcEzEUVJeMd2UdkFfJCYDdmjDerjj/mIE065mD2qnLjApEJgQwXiESiemvhcr3w8iJ9/MlWPoXllvvB2FcDTuCEWQtr4/tecSCAAAIIpEmAplWa4JkWAQQQ+HcClfsU91bQVEk6GaXuC2RnZ6nyguNVvu/w7g/ClQgggEAaBHa0tGr5inVa8t5qLX1vrRqbmtOQginjAkZak2vax19X3bwREQQQQACB1AvQtEq9OTMigAAC/yIw7cCCfmrNui4mnWY6vkfm6K5An97FuuLi09S/X+/uDsF1CCCAgCsFrP3/jxK2tLRpe129tm9v0LbaBtXG/3dtvbbXNap2e73q6hsVjbK3eKIW0ki1ijgTZr9buyRRYzIOAggggMDOBfjBaOdGnIEAAggkReCi8qJDHDnXSRolKZCUSTJo0JEjhmn6hZOUn5+bQVVTKgIIIPD1AvFG12e9LquP1m/Wsy+8o+rFq2TFXlrduneMWqx0wpzq8HPdup6LEEAAAQS6JEDTqktcnIwAAgh0X2DyZAWKV4amGaOrrFEvWRpV3df87MqA4+j0k8fr8EPLFQjQ9+upJ9cjgEBmCMQbWfFHEB967DW9Mn9xZhSd+CrbjDVnz15c92Dih2ZEBBBAAIEvBGhacS8ggAACSRSYOUFZ6+uKL5fM/0gqlOQkcbqMGXr47oN00bnHqU+vYjZXz5hVp1AEEEiGQPzthes/3qKbb31U27az53g3jNscxS6+pabhtm5cyyUIIIAAAjsRoGnFLYIAAggkWGDGWAUjkaIrjHF+IaNCPlGVGOChg/vqvDO/qcEDyxQI0PtLjCqjIIAAAp8JxB8hbN7RotvvflqLl66BpesCrZL9SVVN/V+6filXIIAAAgj8OwGaVtwbCCCAQIIEpo8OnRFzdL2serFHVc9RjTE6YMxeOuG4g9S7JKSsLB7/67kqIyCAAAI7F2hrj+jxZ+brmefe3vnJnPHPAq0y9jdV1fW/6thIjAMBBBBAoEcCNK16xMfFCCCQ6QLn7Z0/ICcneLuk8ZJyMt2jp/Xvs/cumjhhrHbfZaCyg0E5Dv+Z6qkp1yOAAALdFYhEonqneoVuv/sZxWK8ibCLjq2Srq2vCf90rhTt4rWcjgACCCDwuQA/DXArIIAAAt0QmFoR2t9YzZU0lH2qugEodTzmd+D+e2tM+Z4qKshXMBiQ4/DYX/c0uQoBBBBInkA0GtMHazfqhtmPdDxCyNElgVZjdauTFb5i1kK1d+lKTkYAAQQQEE0rbgIEEECgCwKV5aHJkm6WVCLxNbSzdHsOH6ID999L++69m/Jyc2hQdRaO8xBAAAEXCcQ3bd/86faO5tWnW2tdlMwTUVqtzOyGmrrv8skrT6wXIRFAwCUCNK1cshDEQAABVwuYyvKiH0nOlZKKXJ00zeHi+06V7ztcB4wdod12GaSc7KCC2VlyDP+5SfPSMD0CCCCQMAFrrWrrGnXrX5/UytUbEjZuJgxkpR1G+nNVTfjn7HmVCStOjQgg0FMBforoqSDXI4CAbwU63gIYLbnGyE6RVODbQntQWE52lo4+cpwOGTdShQV5ys4OKr6BOgcCCCCAgP8F4m8cbGreoSeefVMvvLzI/wUntsIGyV5SVVP/t8QOy2gIIICAvwT4ycJf60k1CCCQAIFzD+xdnNcSvc1Kx8koNwFD+mqIrEBA55xxlMr33V35+bk0qXy1uhSDAAIIdE+gra1dy1Z8pFvvekotrW3dGyQzr1oXCDiTZi2sXZqZ5VM1Aggg8PUCNK24QxBAAIHPBaaN6j045sTuNrLjJGUD848Cu+86UFPOPlalpSE2TOfmQAABBBD4SoH4vle1dQ16+InXtGDhcpQ6JxA1Mk/lNdadfu1qxd86yIEAAggg8LkATStuBQQQyHiBKeUl5QGrO42xe1kpK+NB/gmgfL/hOvv0iQoVF4on/7g7EEAAAQQ6KxD/xNXHG7fqvode0tp1n3T2skw+r1Ey366qqbs9kxGoHQEEEPiyAE0r7gcEEMhYgeljio+JxcxNkoZKcjIW4t8Uvu/IXXTBWccqVMx2XtwbCCCAAAI9E9ixo1XrNnza8QmsD9Zu7Nlg/r7aSnqv3WYde8fibR/7u1SqQwABBHYuQNNq50acgQACPhOYWl58rpHze8kOkMTXwX9a38GDynRZ5Unq0zvks5WnHAQQQAABNwi0trapNtyoV15frJdfX6xIJOqGWG7L0GqMnTW7uv4KtwUjDwIIIJBKAX5YS6U2cyGAQFoFppeXfDcmG3/FdFlag7h08pKSQn3/ksnq168Xm6u7dI2IhQACCPhNwFqrpuYWhcONmr/gPb32xhK1tLb7rczu12O1yQTsKbMX1b/Z/UG4EgEEEPCuAE0r764dyRFAoHMCZmp56CojXSKpd+cuyayzsrOD+sHlZ2jY0H40qzJr6akWAQQQcJ1AvInV3Nyi+vpmvbVouV6dv1SNTc2uy5niQBErPfxBSfjsl15SJMVzMx0CCCCQVgGaVmnlZ3IEEEimQOXo0O9kOppVPOf2FdDGGF0+4xSNHDFMAYctvZJ5LzI2AggggED3BeKfxGpoaFb1ktUdn8Tauj3c/cG8feX2mHUuvHVx7ePeLoP0CCCAQOcFaFp13oozEUDAIwKVo0M/kfRjGT5Z9e+W7IKzjtEBY/dSdpCXJXrktiYmAggggMDnAvFN3evCjXrtzaV64ZVFisXie5dnzBGT9HwgED551kJl/EfQMmbVKRSBDBagaZXBi0/pCPhNYGp5aLqRfiWpn99qS1Q9k445REdNGKO8vJxEDck4CCCAAAIIpE0gFotp2/Z6Pf9KtV56tVrxxwsz5AjHjP3lrdX1/5ch9VImAghkqABNqwxdeMpGwE8CleWhydbqamM0xE91JbKWYyaO09FHjFVRYX4ih2UsBBBAAAEEXCPQ2tqu1R98rKo7n+jY3D0zDrtcsdgZVUsa382MeqkSAQQyTYCmVaatOPUi4COBafsW9LNZWY9YaZyR+Hr2T2trjBRvVh01gWaVj257SkEAAQQQ2IlA/HHBjZu26K/3PacP1n6SCV7x1y0+XN8WPm/uMrVlQsHUiAACmSPAD3mZs9ZUioCvBKaWh37vyHzbyub5qrAEFOM4js6dfJQqRu+hgvzcBIzIEAgggAACCHhTYOu2sJ5+bkHH/lcZ8Ojgdiv7yzk19dd7c7VIjQACCPyrAE0r7goEEPCUwMXlxXtEZJ6StLungqcgbFlpic6ZfJT22G2QgmywngJxpkAAAQQQ8IpAfUOTXn/zXT321HxFY/G9zH19fGRlfz6npv6vvq6S4hBAICMEaFplxDJTJAL+EJhWUXyFrPmdlfh01edL6jhGEw6r0IRDy9Wvby9/LDRVIIAAAgggkCSB5h2tql6ySnff/7za2yNJmsU1w642iv1wdk3DI65JRBAEEECgiwI0rboIxukIIJB6ASuZyorih401kyQ5qU/gvhn3HjFM3zr6QA0Z3Fd5ubwJ0H0rRCIEEEAAATcLxBtWy1es0x33PK2Gxh1ujtrTbPFvo5ZZY783pzr8XE8H43oEEEAg1QI0rVItznwIINAlgSnlJSUB2bck7dmlC3148p67D9FRR4zVrsMGqLiItwD6cIkpCQEEEEAgxQLxRwVXrd6g2+9+WttrG1I8e0qnixmjmlgk9u05SxveSOnMTIYAAgj0QICmVQ/wuBQBBJIrMHVU0QjjOK9KKkvuTO4cPf7oX8WoPXT4oaM1aECZCgt5KtKdK0UqBBBAAAGvC8TfOLhm7Ubdefcz2ryl1uvlfF3++IZeb1ljLp1TXbfYz4VSGwII+EOAppU/1pEqEPCdwNSK4uOMNXMlFfiuuK8pKJgV0KEH7acD999bAweUKjcnO5PKp1YEEEAAAQTSKhB/w+CHH32iv819Xus//jStWZI8eVTSq1HZGbfV1K9K8lwMjwACCHRbgKZVt+m4EAEEkiVw0eji84wxVUbKiI5Nfn6ujjysQqP3210D+5cqKyuQLFrGRQABBBDEhaOMAAAgAElEQVRAAIFOCqz9aJPueegFfbj2k05e4cnT4rvRzwu0BitnLd/q60I9uTqERgAB0bTiJkAAAVcJVI4umSpjb5TPG1YloUJ988gDNHLEMPXr21vxRwE5EEAAAQQQQMB9Aus2bNYDj76i91euc1+4xCVqs9KjWQFn2qyFteHEDctICCCAQM8E+CmpZ35cjQACCRSoLC++TDJ/lhRM4LCuGSoYzNKR48do3Ni9NGhAqYzhS7BrFocgCCCAAAII7ETg441b9fCTr2nJu2t8a2WkHdbq7vymssuuXb261beFUhgCCHhGgJ+YPLNUBEXA3wKVo0MXy+g6SVl+q7RXqFCnnDBeo/bdTXm5OX4rj3oQQAABBBDIKIGNm7bp4cdf0+J3V/u57npZWzXklPofzpyp+ObtHAgggEBaBGhapYWdSRFA4MsCU8tLphjZWX77hNXggWU6/aTDteceQxRwHBYdAQQQQAABBHwksG7Dp5r78ItauXqDj6r6x1KsFN+N/so5NeFbfFskhSGAgKsFaFq5enkIh4D/BSrLi8+RzG1+aljtPWKYTjzuEO06bACPAPr/FqZCBBBAAIFMFrDS8lXrdPvfnlZtXYNvJazVIiMzrWpxXbVvi6QwBBBwpQBNK1cuC6EQyAyBqRWh04zV3/yx6brp2Kvq2IkHaNDAssxYQKpEAAEEEEAAgQ6B9vaIXpm/RA8+9ooikahfVaLW6uF2m3vhnUs2N/m1SOpCAAF3CdC0ctd6kAaBjBGoHFN0gmLO/V5vWAUCjiZ8o1xHHFahstKSjFk/CkUAAQQQQACBfxXYui2su+6dp+UrP/IzT5OM/X1Vdf3/+LlIakMAAXcI0LRyxzqQAoGMEqisKD5L1tzu5YZVTnZQx0wcp0MP2k8loYKMWj+KRQABBBBAAIGvEbDSoiWrdOe9z6q5ucXHVHaZYrEzq5Y0vuvjIikNAQTSLEDTKs0LwPQIZJpAZXnxZZL5i1ffElhYkKdJxx6sA8furfz83ExbPupFAAEEEEAAgU4KNDbt0MOPv6pX31jaySs8eVpUMtdV1dR9z5PpCY0AAq4XoGnl+iUiIAL+EZg2OnSjNZohyXOv0uvTu1gnfutQjRm1p7Kzs/yzKFSCAAIIIIAAAkkVWPXBBt3216cVf3TQx8eKqMxZt9XU1fi4RkpDAIE0CNC0SgM6UyKQaQKXlJfs0i77oKQKr9U+aEBpR7Nqv5G7KhAIeC0+eRFAAAEEEEDABQJtbe166rkFenreW4pZ64JESYkQM8ZcP7u67oqkjM6gCCCQkQI0rTJy2SkagdQIfGf48Jzmwi3XSpoqyVMdn+G7DtKk4w7WXnsMlTF8qUzNHcMsCCCAAAII+Ftg/cef6va7n9H6DZ/6udDVxomeOHtR43I/F0ltCCCQGgF+EkuNM7MgkHEC0ypKfmCt/YWkkJeK32vPoTrxuEO1+64DvRSbrAgggAACCCDgEYFoNKqXXlushx57Re2RqEdSdy2mlayx9pdVi+uv6tqVnI0AAgj8owBNK+4IBBBIqEDlqOJjjTHXWKO9EjpwkgfbbZcBOmXSYdpz+JAkz8TwCCCAAAIIIICAtGVrne598EUtXfaBnzlebIvlnnDnks1Nfi6S2hBAIHkCNK2SZ8vICGSUwPTy4gNiMv8r6QgvFT54UFlHs2qfvXbhMUAvLRxZEUAAAQQQ8IOAlZYu/0D33P+Ctm737UbtTdaYc+ZU1z3qhyWjBgQQSK0ATavUejMbAr4TmDqqaIRjAn+0xk7yUnGh4gKdddqRKt9vDzkOXwq9tHZkRQABBBBAwG8CbW0RPf/yQj3xzBu+fWRQ0uyqmvDFkmJ+Wz/qQQCB5Anwk1rybBkZAV8LTK0oHWjUfrWszpTkqa8lB47dW2eeeqQKCnJ9vUYUhwACCCCAAALeEti6Laz7H3lZ1UtWeSt459OuCMoce1NN3drOX8KZCCCQyQKe+kEzkxeK2hFwi8DkkWWFRdltVxtphlsydSXHaScdrm8esX9XLuFcBBBAAAEEEEAgpQLLV3ykBx57xa9vGYwpZr9TtaT+Rkk2pbBMhgACnhOgaeW5JSMwAukRmCwFisqLrzQyP5OUk54U3Z81/gjg1PO+pQPGeGp/+O4XzJUIIIAAAggg4GmBWMxq4eIVeuSJ1zs2bffdYfRgfkP4nGtXq9V3tVEQAggkTICmVcIoGQgB3wqYyvJQpZV+baS+XqzSMUaXVJ6k0fvu7sX4ZEYAAQQQQACBDBaIRKKa/9a7euzp+apvaPaXhNEmx9oTb6mpf9tfhVENAggkSoCmVaIkGQcBHwpMKy/+lv3sjYD7erU8E29YXXSiykcN92oJ5EYAAQQQQAABBNTa2q4XXlmkp59foJaWNl+JWGt+OXRx3a9nskm7r9aVYhBIhABNq0QoMgYCPhOorCgZppi9SUbHerm0eMNqxpRJGjN6Ty+XQXYEEEAAAQQQQODvAk3NOzTvxYV64eVFam1r942MtXrBROzkqvfqt/umKApBAIEeC9C06jEhAyDgH4EZYxWMxEp+IWuvNB57I+A/r0K8YTX9wkkaW07Dyj93KJUggAACCCCAwBcCDY3Nevb5t/XiazVqb4/4BabByDlrdk3tk34piDoQQKBnAjSteubH1Qj4RmBaeckEK3ubpGFeL8rIqPLC43VAxQivl0J+BBBAAAEEEEDgawXqG5r01LwFemX+YsX3v/LDYWX+nBWo+/GshfLPR8n8sDDUgEAaBGhapQGdKRFwk8CUCcoN1IX+JOlSN+Xqbpb4J6ymXXC89qdh1V1CrkMAAQQQQAABDwqE65v0+DPz9dob7yoWi3mwgn+JXBOVOeW2mrq1fiiGGhBAoHsCNK2658ZVCPhCYGpF6ChjzR2SHeCHgj5rWE3S/hU8EuiH9aQGBBBAAAEEEOi6wLbt9Xrkyde1YOFyWWu7PoCbrjCKWuniodXhW9mk3U0LQxYEUidA0yp11syEgGsEJo9UYXF2x6erprsmVA+DOI7Tsel6xag9ejgSlyOAAAIIIIAAAt4X2LR5ux56/DXVLF3l/WKkuS05gWl/fWt7vR+KoQYEEOi8AE2rzltxJgKeF5gpORvGlJxs428GlMo8X9DnBWRnB/XtGadoxPAhfimJOhBAAAEEEEAAgYQIrFu/WQ889oreX7kuIeOlcZAtjjGTb6muezmNGZgaAQRSLEDTKsXgTIdAugQqxxQPV9RcK6Nj05UhGfMWFuTpe5edriGD+iZjeMZEAAEEEEAAAQR8IVC9ZLUefPQVfbq11tP1WOk3DW3h/567TG2eLoTwCCDQKQGaVp1i4iQEvCtw7oG9i3Naoj8zRj/1bhVfnXzggFJ9e/op6tO72G+lUQ8CCCCAAAIIIJBwgfjbBZ994W09/dwCtbZ5+sV8C0wscNrsJds3JByJARFAwFUCNK1ctRyEQSBxAjPGKhiNhi400h+tFErcyO4YafS+u6vy/OOVkxN0RyBSIIAAAggggAACHhFobNqhex96UQveWe6RxF8R06hF1pxdVVP3iCSP7zjv3WUgOQLJFqBplWxhxkcg9QJmekVoYszav0hmZOqnT/6Mx3/zIJ1w3CGKvy2QAwEEEEAAAQQQQKB7Ams+3Kjb/va0Pt3i3UcGreyfY3X1P7ttrVq6p8BVCCDgZgF+4nPz6pANgS4KTB9dtGdM5o8y5oQuXuqJ0+OPAU4551jtyYbrnlgvQiKAAAIIIICA+wXa26O6/5GX9NJrNe4P++8T1piYTp29JPyhl4sgOwII/KsATSvuCgR8IDB1RGmRyY/8WNZe6YNyvrKEcWP31nlnHM3jgH5dYOpCAAEEEEAAgbQKfLD2E93616e8/KmrNmN07uzq8AM8LpjWW4nJEUioAE2rhHIyGAKpFZg8WYHQ6tAp1uoGSWWpnT01s5WUFOmc0ycqvocVBwIIIIAAAggggEDyBOIbtd/38Et62cOfurLG/ilWW/9zHhdM3n3CyAikUoCmVSq1mQuBBApcVFE40rGB6yQdkcBhXTNUVlZAR3yjQicdf6iCwSzX5CIIAggggAACCCDgd4GVq9dr1u2Pq6Gh2ZulGr3ZHms7/Y7FOz72ZgGkRgCBLwRoWnEvIOAxgXMP7F2c2xb9T1n9xGPROx1337131QVnH6NQcUGnr+FEBBBAAAEEEEAAgcQJtLS06eZbH9OyFWsTN2hqR2qU0clV1eHnUzstsyGAQCIFaFolUpOxEEiyQGVFaKKN6S5j1D/JU6Vl+IH9++is0ydqBButp8WfSRFAAAEEEEAAgS8LWGv1/MuL9OCjrygai3kSx0o/zwqE/zBrodo9WQChEchwAZpWGX4DUL43BKaUl5RkGftba3WJNxJ3LWVhYZ6OmzhORx4+Vo7Dl6Wu6XE2AggggAACCCCQXIEt2+p03c0PadOn25M7UZJGN9KTbdmxC+5Y0LAtSVMwLAIIJEmAnw6TBMuwCCRKYNqY4oMUcx60sgMSNaZbxsnJDuobh4zSKZMOUzAr4JZY5EAAAQQQQAABBBD4J4FoNKbb735ab72z3JM2VvrUiepbs5eGF3qyAEIjkKECNK0ydOEp2/0CM8YqGImGvmek37s/bdcSBgKODhgzQuecfpRycrK7djFnI4AAAggggAACCKRNYNHiVbr9b0+rpbUtbRl6NLHVJfWLw7PnStEejcPFCCCQEgGaVilhZhIEuiYwbd+CfsrKustKR3XtSnefbWS03z676oKzjlFRUb67w5IOAQQQQAABBBBA4CsFmptb9ecb5+qj9Zu9KWTNnbYl6/I5K7Y2eLMAUiOQOQI0rTJnranUIwKVo0sqZOwzkso8ErlTMYfvOkgXnnOs+paVdOp8TkIAAQQQQAABBBBwr0B8k/a5j7ys51/y7NN2q+XY46oW1a92rzLJEECAphX3AALuETCV5cVnS+ZOSY57YvUsyeBBZTrn9InafddBPRuIqxFAAAEEEEAAAQRcJ7D2o026bvZDamhodl22nQYyarEx8605i+te3Om5nIAAAmkRoGmVFnYmReAfBb4zXDlNBaFfG6Mf+MWmrLSkY4P1seV7+qUk6kAAAQQQQAABBBD4CoFIJKr/u/kBrVi13ps+VpcMWRy+ZaYU82YBpEbAvwI0rfy7tlTmEYELxhX1yWp17jNGR3ok8tfGzM/P0aRjDtGR4ytkDF9i/LCm1IAAAggggAACCHRGYN6L7+jBx15VLObF3o/5SyBQ96NZC9XemVo5BwEEUiPAT5SpcWYWBL5SYNqYwr1tzHlOMgO9ThRvUI0ZvYcqLzheAcc3Tzd6fVnIjwACCCCAAAIIpFSgtq5Bf7z2Xm3dFk7pvAmZzGpOfXv40rnL5NFXIyZEgUEQcJUATStXLQdhMklgWnnoaCs9Linb63X3K+ulKy45TaV9Ql4vhfwIIIAAAggggAACPRSIb9J+85xHVb3Uk3uc/y2/MTz12tVq7SEDlyOAQAIEaFolAJEhEOiigJlaEbrYWN3Yxetcd7rjGB05fowmnzzBddkIhAACCCCAAAIIIJBegZolqzTnr0+ptdVjT9xZPZDfFD6XxlV67x9mRyAuQNOK+wCBFApMHqns4uzi30nm+ymcNilT9evbWz/8zhkqLipIyvgMigACCCCAAAIIIOB9gUg0qt/96a9a//EWbxVj7Z2BrPpK9rjy1rKR1n8CNK38t6ZU5FKBqSNKi0xe292SOd6lETsVy3EcHXn4GE0+6fBOnc9JCCCAAAIIIIAAAgg89Phreub5BYo/OuiVw1hz7eDFdd/jrYJeWTFy+lGAppUfV5WaXCcw5YCC/oH24HOS3cd14boQaOCAUn3vsskKFeV34SpORQABBBBAAAEEEEBA2ratXn+49h7FN2v3ymFl/3tOTf1/S/JOt80ruOREoBMCNK06gcQpCPREYMrYor0CUedVSaU9GSed1+bm5ujUEw7T4YeOTmcM5kYAAQQQQAABBBDwgcBfbrxfy1Z85JlKjI1Nnb244VbPBCYoAj4SoGnlo8WkFPcJXFRRcrhj7bNefUOgMUb77L2LLp9+shzjuA+YRAgggAACCCCAAAKeFHh1/hLd88ALiu955YXDMWbCLdV1L3shKxkR8JMATSs/rSa1uEpgakXxBcaa210Vqgth4o8CfufiU9W7pKgLV3EqAggggAACCCCAAAKdE2ho3KHf/ukubdte37kL0niWkdnhROx+s94Nr0ljDKZGIOMEaFpl3JJTcLIFJkuB4tElv5Sxv0z2XMkYP1RcoLNOn6gxo/ZIxvCMiQACCCCAAAIIIIDAPwhcd8vDenfZB17YpP2jQMAZPWthbZglRACB1AjQtEqNM7NkiMB3hiunuajkFll7vtdKzg5mafyhozX55Alei05eBBBAAAEEEEAAAY8LvPn2Mt1577OKRNz9uKA1eqGhNXzc3GVq8zg58RHwhABNK08sEyG9IDB1RGmRk9f+mJUO90LeLzLG963aY/dB+u6lpysrEPBSdLIigAACCCCAAAII+EigoaFZV/3xTtWFG91e1Y1VNeHLeaOg25eJfH4QoGnlh1WkhrQLXFRRWObYwHxJw9MepgsBykpL9O1pJ6t//z5duIpTEUAAAQQQQAABBBBInsDV196rVWs2yCZvih6PbI29Yk51/bU9HogBEEDgawVoWnGDINBDgSnlxXsEZN6S1KuHQ6Xs8vy8HJ164ngddvColM3JRAgggAACCCCAAAIIdFbgqXlv6dGn5isWi3X2ktSfZ3RUVXX4+dRPzIwIZI4ATavMWWsqTYJAZUXJeFn7nKRgEoZP+JCO42hs+R6qPP94xR8L5EAAAQQQQAABBBBAwK0Cmzdv1//+391qampxZ0SrFgXsflWL6le7MyCpEPC+AD+1en8NqSANAlYy00eHplujm9Mwfbem7NO7WP9x2RkqLQ1163ouQgABBBBAAAEEEEAg1QLW2o59rjZ8vCXVU3d2vq0xEx15a3WjawN2thDOQ8CNAjSt3LgqZHK1QPwNgU2FJVVG9lxXB/08XPzTVfG3Ap592pFeiEtGBBBAAAEEEEAAAQT+ReDu+5/XK68vVsy6b6crK63SjuDYOSu2NrB0CCCQWAGaVon1ZDSfC8wYWzogGm1/xSsbrhcW5Oo/Lj9DgwaW+XxlKA8BBBBAAAEEEEDA7wKr1nysa29+QK1t7W4sdXUg4Ow/a2Ft2I3hyISAVwVoWnl15cidUoGZkrOhovg8a82tkpyUTt7NyYYO7qv//MF57F3VTT8uQwABBBBAAAEEEHCfQHskov/53e36dGud+8JZrQ9kxcbMWtiw1X3hSISANwVoWnlz3UidQoHJY3uFQlH7pJU9JIXTdnuq+AbrB4/bRxeefUy3x+BCBBBAAAEEEEAAAQTcLHDNDXP1/sp1bozYJsWOrKppeN2N4ciEgNcEaFp5bcXImzKB+Ker1lWETjFW90jKStnEPZgoEHA05ZxjNW7s3j0YhUsRQAABBBBAAAEEEHC/wO13P6M3Fryn+Gbtbjus7MysQP1vZi2UK59ldJsXeRD4dwI0rbg3EPgKgakjSotMXvtzksZ5BaggP1dX/vB89e5d7JXI5EQAAQQQQAABBBBAoEcCd977rF57Y2mPxkjixR9Y037YnOrmjUmcg6ER8LUATStfLy/FdVXgs72rQqdaq7u98umqeI0D+/fRL39yIftXdXXBOR8BBBBAAAEEEEDA8wJVdzyhBYved20dxupnTlb4aj515dolIpiLBWhauXhxiJZagRljlR+Jhl4y0gGpnblns+07cld9Z8apPRuEqxFAAAEEEEAAAQQQ8LDA1dfep5Vr1ru2AiN96kSzDp+1dJt7u2uu1SNYJgvQtMrk1af2vwtMG1V0mHWceZJyvMIS33B94uFjNPnkCV6JTE4EEEAAAQQQQAABBJIm8MvfzNHmT2uTNn5CBja6N78hfOG1q9WakPEYBAGfC9C08vkCU97XC8wYq2A0ErpbRqd5ySresLro3ON04P5suO6ldSMrAggggAACCCCAQPIEItGofvzLm9XUtCN5kyRgZCu1mZg9afaS+meM5L5d5BNQI0MgkCgBmlaJkmQczwlUVpQMk7U1kkq8FD4YzNLPvn+uBg0s9VJssiKAAAIIIIAAAgggkHSB7bX1uvKqKkWjsaTP1dMJjFTjBMKHzlqo5p6OxfUI+FWAppVfV5a6/q1AfLP1dRWhXxurn3qNqbAwT7/6eaXy8zzzFKPXiMmLAAIIIIAAAggg4HGBJe+t0Q2zH5G1nvgQkzVWlwxeHJ49U3J/p83j9wbxvSdA08p7a0biHghMnqxA8apQ/J24nnuurn/f3pr5sym8IbAH68+lCCCAAAIIIIAAApkh8OhT8/XEM294qdgP69uyR81dtqXRS6HJikCyBWhaJVuY8V0jMGVkWf9AsG2ljIpcE6qTQUbsMVT/cfnkTp7NaQgggAACCCCAAAIIIHDL7Y/rneoVXoKwVmbqnJq628VeV15aN7ImUYCmVRJxGdo9AtNGl5xqjb1fkufu+cMO3k/nnflN92CSBAEEEEAAAQQQQAABjwj875/v1gdrN3ok7WcxrcziOTV1Y8Tjgp5aN8ImR8BzP8Anh4FR/Swwrbx4ppX5Ly/WOPmkw3XUEft7MTqZEUAAAQQQQAABBBBwhcAvrqrSp1vrXJGlCyGaojL73lZTt7YL13AqAr4ToGnluyWloC8LVFaE7pHVmV5UueKS07TPXrt4MTqZEUAAAQQQQAABBBBwjUAkGtWPfnGTmptbXJOpk0GsNea7c6rrru3k+ZyGgO8EaFr5bkkp6AuBytGhN2R0kNdEglkB/fKnF6pvaS+vRScvAgh4QKB5R6tWrVynTZu3a8untWpuaVVba7tycoLKy8tVv7IS9R9YpuG7D1Iebyr1wIoSEQEEEECgMwK1dQ36+a9mKxr13gv6rNEzc6rDx3amTs5BwG8CNK38tqLU0yEwtTz0ppEO9BpHUVG+fvWfU/lB0WsLR14EXCqwY0erXn21Ru8sfF+RSLTj1d9def23MabjjaWhUIEOHz9Go0YNl+PwrYNLl5tYCCCAAAI7Efho3Sb99pq/dem/hS5CXVJVEx7tojxEQSAlAnznmRJmJkmlgFcbVoMHluk/f3CeAgEnlVzMhQACPhOoqVmpZ59doJbWNsViif1tcryB5TiORu69i4499iAVFOT5TI9yEEAAAQT8LrDqg4919f/dKyvrvVKt1q/pFd7tpZcU8V54EiPQPQGaVt1z4yqXCnj1kcBR++ymS6edLMfwr6RLby1iIeBqgUWLVujZeW+ptbU9pb89zsoK6MAD99ERE8Yq/r85EEAAAQQQ8ILAsvc/0l9uir9Y3JNHXXZUu924NFzryfSERqCLAvyE3EUwTnevwNTykteN7CHuTfjVyY4/5mCdcOzBHY/gcCCAAAKdFdi2rV533/OMtm9vSPgnqjqb4Yvz4l+/epUU6owzjlL//n26ejnnI4AAAgggkHKB5SvijasHUvrLnkQVaWR2xGLRijlLGlYkakzGQcCtAvyU7NaVIVeXBKaWl7xqZL/RpYvSfLKR0RWXnKqRvCEwzSvB9Ah4S+CFF97RG2++q/Z2dz4ZkJ0d1NFHjdMBB+ztLVjSIoAAAghknMCGjVv0m6vv8uTm7EaKWNmTq2rqn8i4haPgjBKgaZVRy+3PYqdWhJ43Vkd6qbrCgjz9/Ifnq3evIi/FJisCCKRJoKmpRXfc+aS2bq3zzDfW8ccF99prmE484TDFG1kcCCCAAAIIuFFg67Z6/c/vb1dra5sb4+0sU0yy11bV1H9vZyfyzxHwqgBNK6+uHLk7BCpHh+6R0Zle4igftYemX3A8+794adHIikCaBJYvX6tHHn1VLS2taUrQ82njG7eXloY0+fSJKisr6fmAjIAAAggggECCBZqaW3TVH+7U9tr6BI+ckuGskX1jdk39oSmZjUkQSLEATasUgzNd4gSmlhdfY2S+K8kz9/HU876lcWP3Yv+qxN0GjISA7wSstXryqTe0ePEqtbW1+6a++L5X+fm5mjTpUO3NY9G+WVcKQQABBPwiEIlEdWPVI3p3+YceLcl80pLj7PXXt7Z7svPmUXRip0DAMz/sp8CCKTwkUFle/F3JXOOVhlXf0hL94DtnqiRU6CFloiKAQCoFGhubdddfn9aWLd55BLC7Pjk5QR144L46YsIYmvjdReQ6BBBAAIGEC3T84mjeW3r0ydcTPnaKBmw1ck6dXVP7ZIrmYxoEki5A0yrpxEyQaIFpo0tOtcbOleQkeuxkjHfKpMN09BH7KxDwRNxkEDAmAgh8jUBNzSrNe+4txfetyrQjK5il4bsN0smnHK7cnOxMK596EUAAAQRcKvDR+s26+rp71drqyU88x/e5uqOqpv4il/ISC4EuCdC06hIXJ6db4KJRxQc6AfO6rALpzrKz+XuVFHV8uqqsT2hnp/LPEUAgwwTa2iJ66KGXtOaDj331CGB3lzHe1B82tL9OP32i8vNzujsM1yGAAAIIIJAwgZbWNt0w+2GtWLU+YWOmciBj9P4t1eGRRrKpnJe5EEi0AE2rRIsyXtIEzh/ba2h2NLZakutfQ3Xc0Qdq0jEHs9l60u4GBkbAmwKrVq3X40+8rvr6JsUfQeD4R4GO5tWw/jrn7GP4+snNgQACCCCQdoFYzOrNt9/THXc/K+vN3k+tibWNmr1kx4a0YxIAgW4K0LTqJhyXpVbgspFlha3ZbZsl5ad25q7NVlSUr/+4/AwN7N+naxdyNgII+FYgGo3p2XlvafHi1Z5+C2AqFyg7O6jjjj1IFRUjUjktcyGAAAIIIPCVAo1NO3TDLQ9rzdqNXhRql7EXVFXX3+PF8GRGgKYV94DrBWbOlLP+4dA2Sa5+V/rEw8fo5EmHKTuY5XpTAiKAQPIF4p+mmnv/C+n1W/QAACAASURBVPrkk62Kv5GIo+sCAwaUasqFxyu+cTsHAggggAAC6RSIf+pq8dJVuuWOJxT/hZSXDvvZI4K3zakJT/VSbrIiEBegacV94HqByorQJ7Lq79agBfm5+t6lp2vokH5ujUguBBBIocDHG7fqgftfUG1dA48AJsA9vkH7Oecco6FD+RqbAE6GQAABBBDooUBTc4tuu+spLVn2QQ9HSsvl1VU14TFpmZlJEeimAE2rbsJxWWoEppWHPrDSrqmZreuzjD9klE4/eYJysvkUQNf1uAIBfwmsXLlOTzz5usLhJn8V5oJq4ntdHT6+QuPHV7ggDREQQAABBDJdIL4vZXyD9vhG7a1tXnvDoN1od2TvNWfF1oZMX0fq94YATStvrFNGppxWEVporVz5m4D4D1DxT1ftsfsQGf4tysj7k6IR+ELgo3Wb9OCDLykcbgQlyQL77Tdcp506IcmzMDwCCCCAAAKdE9jR0qYHHnlJr76xtHMXuOesZsdGx92yuPE990QiCQJfLcCP29wZrhSoLC95XLLHuzHc0MF99Z2LT1Nxkav3hHcjHZkQ8JXAli21uuee57Rte9hXdbm9mN12G6TzzztWht8YuH2pyIcAAghkjMC6DZ/q+lseUp2HfoFlpIiVc3JVTe0TGbNQFOpJAZpWnlw2f4eeWh662Ugz3Fjl4YeO1hmnHMGr2N24OGRCIEUC7e0Rzb3/Ra1atY49q1Jk/s/T9O/fR9OnnaT4p145EEAAAQQQcINAW1tEz728UI888Zob4nQ2Q0zW/LBqcd01nb2A8xBItQBNq1SLM9/XCkwtD/3ISL93I9OpJ47X0RP2l+Pwr40b14dMCKRC4J133tdzzy9QS0tbKqZjjq8RiDeuZkw/ma/J3CUIIIAAAq4S2LylVtfe/KC2bK1zVa6vCWNlza+qFtf9l1cCkzOzBPjpO7PW29XVVpaXnCzZB934Vsvzz/qmvnHQfq72IxwCCCRPoK2tXXfd9bTWrd+cvEkYucsCAweWdnziikcFu0zHBQgggAACSRSIf9/w8BOv6fmXFyVxloQObWXMr6qqaVwlVJXBEiJA0yohjAzSU4GLxobGOFEt7Ok4ybj+vDOP1mEHj0rG0IyJAAIeEFi3bpPuufc5NTe3eCBt5kUcPLivKqeeQOMq85aeihFAAAHXC1QvXqWbbn3U9Tk/D2gl/aaqJnylVwKTMzMEaFplxjq7uspLRvXrG3FaPrZSltuCnjP5KI0/ZDRvCHTbwpAHgRQJzJ+/VPOeW8DeVSny7u40Q4f210VTjqdx1V1ArkMAAQQQSJpAfJP2P157j1pb25M2RyIHtsb8YE513Z8SOSZjIdATAZpWPdHj2h4LTNlFuYGS0FZJBT0eLMEDnH36RB1+aDkNqwS7MhwCnhCwVk88OV9vv7PcE3EJKe26ywBdcMG3aFxxMyCAAAIIuE5gW229/veavylc3+S6bF8RyErm1Kqauoe9EJaM/hegaeX/NXZthRMmKGv3utAGSf3cFvKs047UhG9U0LBy28KQB4EUCMRisY7HAVeuXJeC2ZgikQK77z5I5593XCKHZCwEEEAAAQQSItDQ2Kyrr7tPn2zalpDxkj1IVHbcbTX1byd7HsZHYGcCNK12JsQ/T4rATMnZUF6yxMruk5QJejDoyZO+oWMnjuO39T0w5FIEvCpgrdX9D7yo9977wKslZHzuESOG6eyzjs54BwAQQAABBNwnsGNHq66f/bBWrYn/3t71R7Q5kjPo7nc/5S00rl8qfwekaeXv9XVtdZXloRskXeq2gEdP2F+nnjieV6i7bWHIg0CKBOY997Zef31ximZjmmQJ7Lfv7jrttCOSNTzjIoAAAggg0G2B9vaI7nngBb325tJuj5HCCxvq28Klc5epLYVzMhUC/yBA04obIuUCUytCRxmreSmfeCcTHnzASJ1/1jEKBBy3RSMPAgikQOCdd5br8SdeT8FMTJEKgYqKPXXSieNTMRVzIIAAAggg0CWBWMzquZcW6oFHX+7SdWk6+aP6mvDuc6VomuZn2gwXoGmV4TdAqsufUl5SEpCNb7weSPXcXzffPnvtqksrT1Qw6LoXGLqJiSwI+FZg4ydbNXv2I4p/E8nhH4EDx+2j44472D8FUQkCCCCAgK8Elry7RjfOeVTx/TRdfVi9WLU4PFES3yi5eqH8GY6mlT/X1ZVVdWy8Hg6tkdVQNwUcNqSffvDtM5WTE3RTLLIggECKBNra2nXd9fer3htv9EmRij+mMcbo0ENH6aiJB/ijIKpAAAEEEPCdwKdbanXNDfdre22922v7z6qa8G/dHpJ8/hOgaeW/NXVtRdPKQ7+30o/cFLBP72Jd+aPzlZ+X66ZYZEEAgRQKPPzIy6qpWZXCGZkqlQLxxtVBB+2rY755YCqnZS4EEEAAAQQ6LbCjpVW3/+1pVS9Z3elr0nFiIKaxs5aEF6VjbubMXAGaVpm79imtfMZ+RXtFA87ylE66k8kK8nP1y59eqJLiQjfFIgsCCKRQYM2aDbrzrqdTOCNTpUMg/s1OOXtcpYOeORFAAAEEOikQjcY078V39NDjr3byirSc1mp3hMvmrFBDWmZn0owUoGmVkcue2qK/M1w5zYWhTZJKUjvzv58tKyug//rpFPUtdU0kt9CQA4GMEYhEorr22vsU5rHAjFnzvffeRWeecVTG1EuhCCCAAALeE3jv/bW6YfbDin+f4tJj7ZCS8B4zX1LEpfmI5TMBmlY+W1A3llM5OnSTjC52Tzajn//wXA0d3M89kUiCAAIpF3j99SWa99yClM/LhOkV2G3XgTr//OMUf2yQAwEEEEAAATcKbN0W1v/d9IA2b6l1Y7z4buwPzakJn8bG7K5cHt+F4js23y2puwqaOqpohHGc992U6nuXna699xzmpkhkQQCBFAvU1TXquuvnuvm3mCkWyazpBg0qU+XUE+Q4TmYVTrUIIIAAAp4RaGlt0133ztPbi1z1o9Tf/aw0Y05N+BbPgBLUswI0rTy7dO4P/vljgesllbkl7bQLj9cBFXu5JQ45EEAgTQKPP/6a3lnozm8C00SScdOWlZVo+rSTlZ2dlXG1UzACCCCAgDcEYrGYXnilWnMffsmVgSMBDb99YXiNK8MRyjcCNK18s5TuK6SyouRXsvZKtyQ769QjdcT4CrfEIQcCCKRJYNu2sK6//n7FrE1TAqZ1i0BxcYFmTD9JhYX5bolEDgQQQAABBP5F4P2V63TdLQ+pvd1120jVBgIFg2ct3NjMsiGQLAGaVsmSzfBxp43qPdg60finrFxxHP/Ng3XCcQezh4krVoMQCKRX4OFHXlFNzcr0hmB21wjk5eV0PCpYyos5XLMmBEEAAQQQ+FeBbbX1+tN19ym+35WrDmNfrR9ef8TcuXLtzvGu8iJMlwVoWnWZjAt2JjBjrILRaGiZpOE7OzcV/3z8waN19uQj2bskFdjMgYDLBbZurdP1Nzwgy6esXL5SqY2XHQzq3POO0bCh/VM7MbMhgAACCCDQBYEdO1p1Q9UjWrnaNZ8N+CL9f1bVhH/bhVI4FYFOC9C06jQVJ3ZWYHp5aHpMmtXZ85N53uh9h2vGRZOUFQgkcxrGRgABjwg88eR8vf12vKfOgcA/CmRlBXTqKRM0cuSu0CCAAAIIIOBagfgjgnfe+6zeeme5qzIaR/vPXhRe6KpQhPGFAE0rXyyje4qYMbaoNBp1NktK+yuZdt1lgP7j8jOUHWSTXffcISRBIH0CDQ3N+vNf7lE0GktfCGZ2tUD8bYLHHXuwDjhgb1fnJBwCCCCAQGYLRKPRjjcLzl/wnpsgGrOjGnrj0nCtm0KRxfsCNK28v4auqWDyZAWKVxa/JmMOSneo3r2K9V8/uVC5udnpjsL8CCDgEoFXXq3WCy/wC0CXLIdrYzjG6NjjDta4A0a6NiPBEEAAAQQQiP8S7q9z5+n1N991E8by/MZwxbWr1eqmUGTxtgBNK2+vn6vSTy0vmmLk3JruUPFPVl31i2kKFRekOwrzI4CASwTiH6W/+k9/U0tLm0sSEcPNAo5jNOn4b2jMmBFujkk2BBBAAIEMF4hEoh1vFVy+4iP3SBjdM6Q6fO5MiY+2u2dVPJ2EppWnl8894adW5A+UDW4wUtrvqSt/dL6GDOrrHhySIIBA2gWWLl2jBx58Me05COAdgfijgqecPF777eeKd4p4B46kCCCAAAIpFWhpbdOv/3iXPt3inqfyrLVXzFlcf21KIZjMtwJpbzD4VjaDCpt8sPKKd4SqJaX9V9JnnnqEjhw/JoP0KRUBBDojcPOsh/TJJ9s6cyrnIPB3gUDA0fRpJ6l//z6oIIAAAggg4FqBhsZm/eLXcxR/u6BbDmtih8ypbnjDLXnI4V0BmlbeXTtXJJ8pORvKS+6wsuemO9Aeuw/W9y+frICT9j3g003B/Agg8CWBDR9v0ezZj2CCQLcEsrOD+o/vn80eid3S4yIEEEAAgVQJbP50u2b+7jbFYjZVU37tPEZmRyTYvtttbzdtckUgQnhWgKaVZ5fOHcEry4u/K5k/pzuNMUZXX3WpCgry0h2F+RFAwGUCjzzyiqprVrosFXG8JNCrV5Gu+M4Ziv+3hgMBBBBAAAG3CqxYvV5/uu4+N8VbHQgUjJ61cGOzm0KRxVsCfPflrfVyVdppo0NnWqN73BBqxoWTNLYi7U8nuoGCDAgg8CWB5uYWXf2nuxV/NTQHAj0RGLXfcJ166oSeDMG1CCCAAAIIJF3g2Rfe0QOPvpz0eTo9gdWD9XuGz5g7V3wz1mk0TvyyAE0r7oduCVSOCk2Uo+e6dXGCL9p1lwH68RVnKb5pLgcCCCDwZYG3Frynp55iOwXuip4LxD9lNX3aiRo4sKzngzECAggggAACSRKIxWK6YfYjWrrsgyTN0K1hf1JVE/59t67koowXoGmV8bdA1wGmjQmNtTG9JSnQ9asTf8Ufr7pURYX5iR+YERFAwNMC1lpdd9392rY97Ok6CO8egdzcbP30x+dLPCbonkUhCQIIIIDAvwi0trXryl9Vqb6hyTU6JqaJs5eEX3BNIIJ4RoCmlWeWyh1BLy4v3iMqZ7GVdcXmUReefawOOXAfd+CQAgEEXCWwdu0nuu32J1yViTDeFxgzZoROPOEw7xdCBQgggAACvhbYui2sn181W3LHvuxx67ZAwNlj1sLadb6Gp7iEC9C0Sjipfwe86IDeQ5z2aI2k3m6octCAUl35o/N5LNANi0EGBFwocP8DL+rdd9e4MBmRvCwQCDj66U8uUDCY5eUyyI4AAgggkAEC1UtW6aY5j7qp0rV2R3DUnBVbG9wUiizuFqBp5e71cU26S0b3GdRuIgsl9XNLqD/86hIVFxW4JQ45EEDARQINjc265pp7FN/XgQOBRAvsM3JXTZ48MdHDMh4CCCCAAAIJFYhvlXDPAy/opdfinztwx2Gk+wbXhM+eKfFNmjuWxPUpaFq5fonSH/CykQX927Kz3rHSoPSn+SzB2adP1IRvlLslDjkQQMBlAq+/vkTznlvgslTE8YtA/NNWv/j5Rext5ZcFpQ4EEEDAxwKRaFS//sOd2rhpm2uqtLLnzamp/6trAhHE1QI0rVy9POkPN23fgn42Kyu+6fqw9Kf5LEH/fr31y59cqP/H3n2AR1GtfQD/z24S0jehV1FQOmRjUOQqir1XRCyAkI2AlQ7SBFFRqoooCmzoooIFUUFAsICKAtnQpIOCdJJsCqTtzvcNt3nvpexuZuecnf3v89znfvdxzlt+Z78Ib2bOWPm2QFm2hHVQQCoBVQXemvIRcnLypaqLxZhL4K47r0br1k3N1RS7oQAFKEABUwoUnSrGoBHvQhtgSfLxllvRaPYGN89xkGRDZC6DQyuZd0dwbd1T46tZVKv2rviGgkv5j/TjRveCLZGPBcq0J6yFAjIJHDhwFM7MJTKVxFpMKHDmTYKDu5qwM7ZEAQpQgAJmFNiz7xDGvblAptZ2lXqjU+duOirPKw5l0mEt/xLg0IpfhrMKdG2SUCUy2rIWQGOZiDre3x43XZcmU0mshQIUkEzgiy/XYv363ySriuWYTUBRFAwc8BhiY6PN1hr7oQAFKEABkwosWfYjvlim3ZMgy0ed6nTlPw2Z3nEoCw3r4NCK34FzC/RIS7Z5PN5vAUh1aFS1KjaMHpbOtwXyy0sBCpxToLzcg/ET5qOkpJRKFAi6QNOmF6PTQzcFPQ8TUIACFKAABfQQ8HpVTJj8AfbsP6RHOF1ieFXL3TOzc7/QJRiDmFKAd1qZclsDb+qpZtXiS6JKlgHK1YFHCc7K8aN7IZGPBQYHl1EpYBKBvXv/xJy5S03SDduQXcBqtWLE8O6yl8n6KEABClCAAv8SKC0rx/OjpqGo6LQsKiVlamnDOdmn/5SlINYhlwCHVnLth9BqOrZFTOIp2ydQcJvQQs6SPKPLnbgirYlsZbEeClBAMoFlX/+Mn3/eIllVLMfMAgP6P4r4+Fgzt8jeKEABClDAZAK5eYUY8uI0qNrba6T4KGvzS/NuWLgNvFVeiv2QqwgOreTaD2HVdGyGKFuUba4KPCSsiHMkbtm8AZ7OuA/a+SH8UIACFDifwJuTP0RubgGRKGCYQIsWDfBghxsMy8dEFKAABShAAT0EftvxO96YukiPUPrEUJV+zuy81/UJxihmEuAUwEy7GWAv7dsj4tJc27uqAkeAIYK2LD4+BuNe7AntEQx+KEABCpxP4ORJN96aspBIFDBUwGq1YMTwdENzMhkFKEABClBAD4Ely37CF8t+1COULjFURbFnZuVl6xKMQUwjwKGVabYysEZGAZaDqbZxqor+gUUI3irtzqpx2jlWCXzsInjKjEwB8whkuXZi8eLvzdMQOwkJAe3fVdq5VhaLJSTqZZEUoAAFKECBfwpojwdOmfYptvy2TxaU39XTkS0zd5zgbfOy7IgEdXBoJcEmiCwhIzXxOVVV3hRZw7ly93mqI5o2ukjG0lgTBSggocDnS37Axo07JKyMJZld4P77rkVKSiOzt8n+KEABClDAhAJerxfDX3LiZG6+LN1NdbrcTwOQ5cAtWVzCtg4OrcJ264H0lKT7FUX9REaCO265CvfeId0LDGWkYk0UoMA/BKa8vRAnTrjpQQHDBZKSEtCndyfD8zIhBShAAQpQQA+BkpIy9Bv6Nso9Hj3CVTyG13KPc1PukooHYgQzCHBoZYZdDKCHbvbEK6xQfgYg3fMMre2N8US3uwLoiksoQIFwFSgpKcWrr80J1/bZt2AB7dHAF0bwXCvB28D0FKAABShQAYEDfx7Dy+PnViCCrktLSq2WRnM35P6ha1QGC0kBDq1CctsqVnSPtNhaHm/kZqioUrFI+q++rGFd9H+mE/iiQP1tGZECZhY4cOAonJn8hZyZ91j23rShFc+1kn2XWB8FKEABCpxPYMXq9Vi0+DspkBTg1/I897Wz9qNYioJYhDABDq2E0YtJ3COtdqzHU7QawJViKjh31to1q+CFwd04sJJtY1gPBUJAYMOG7VjyxZoQqJQlmlWg00M3oWnTi83aHvuiAAUoQIEwEdAOZt+8ba8U3SrAmBku9zApimERwgQ4tBJGb3xi7U2Bf6TYpikKHMZnP3/G5KR4vDqyB7S3MPFDAQpQwF+Bpct+wrp1W/1dxuspoJtA/fo10Z2PtuvmyUAUoAAFKCBGQFWBoS9OQ06eHC/wU1XcmpntXi5Gg1llEOCEQIZdMKgGh92WAWC6Qel8ThMTUwkTXnoSERFWn9fwQgpQgAJ/FZg7byn27PmTKBQQJmCxKHhhhHS/ExLmwcQUoAAFKBC6AmVl5Xhu8FvQ3iwo+qMAhV6lrHFm1qlDomthfjECHFqJcTc8a4802+UeD9YDkGrPIyMjMPbFnoiLjTbchAkpQAHzCLw1ZSFOnuSbA82zo6HXiXan8MgXOLQKvZ1jxRSgAAUocDaBLb/tw1vvyfGieRX4rqDUfcvCbSjlboWfgFQDjPDjN6bjrk0SqkRGK5sApbYxGX3LEhlhxehhDlROTvBtAa+iAAUocBYBVVXxyphZKC+X5DXN3KWwFRg50gFFrt8Nhe1esHEKUIACFKi4wHszP8fG7F0VD6RDBAUYPsPlfkWHUAwRYgIcWoXYhvlb7qj2iDiQm/QJFPVuf9cG83qr1YJRz3dD9WrJwUzD2BSgQBgIFBSewsSJ74dBp2xRdoGePe5HrVrSvZhXdjbWRwEKUIACEgsMGDEVBQWn5KhQUa5zZuV9L0cxrMIoAQ6tjJIWlMdhtw0BMEZQ+rOm1QZWwwd0Qe1aVWUqi7VQgAIhKnDo0HFMm744RKtn2WYSuP6GNFzXLtVMLbEXClCAAhQIc4GCwtMYOGIqtDvbJfjkoEy9zLk1P0eCWliCQQIcWhkELSKNI9V2I1SsFJH7XDktFgue7/so6terIVNZrIUCFAhhgV27DmD++1+HcAcs3SwCDRrUQdcut5ulHfZBAQpQgAIUOCPw7RoXFiz6RgoNBcr8uq68rqMA8afESyFi/iI4tDLpHqenVq2tqGW/AUiUpUXtzUr9n3kIlzaoK0tJrIMCFDCBQHb2Lnz62Xcm6IQthLpAVFQEhg7pFuptsH4KUIACFKDA/wi8Omk+9v9xRAoZVcGDmVnuj6UohkUEXYBDq6ATG5+g28WItibZVgFoa3z2s2fUBlbP9HgAzZtcLEtJrIMCFDCJwI8/bcby5etM0g3bCGUBvkEwlHePtVOAAhSgwPkEtMcDew9+CyWlZRJAKaeU8rIGM7YUHZWgGJYQZAEOrYIMLCC84rAnTQTUvgJynzWlRVGQ0fVOpKU2lqUk1kEBCphI4JtV6/HDDy4TdcRWQlVA+0PVyJEZoVo+66YABShAAQqcV0C70+q119+X4nwrFViQ6XI/9v//6pXisC1+dYInwKFV8GyFRHbYbR0BfCQk+VmSar91fuzBm9Du6laylMQ6KEABkwksW/Yzfl63xWRdsZ1QFRjFoVWobh3rpgAFKEABHwRmzV+Gn37d6sOVBlziVW93bspfZkAmphAowKGVQHy9U3ezJ15mhaL9zS1K79iBxNMGVvff1Q633nhFIMu5hgIUoIBPAkuWrMGGjdt9upYXUSDYAhxaBVuY8SlAAQpQQLTA86OmITevQHQZ2j1WR/LLoi5buO14ofhiWEGwBDi0CpaswXG7tKoRF6mcXq8oShODU581nTawuv3mNrj3jqtlKIc1UIACJhb4+JPV2Lx5j4k7ZGuhJMChVSjtFmulAAUoQIFABIpOncbAEe/C45HiBX7jnC734ED64JrQEODQKjT26UJVKo4U2wwoSL/QhUb983Z/a4XOD91sVDrmoQAFwljgww9X4rft+8NYgK3LJDDyBQe0X9zwQwEKUIACFDCzwPdrs/H+wpVSHCjl9SJt5ib3RjN7h3Nv/FOVCXY/IzWxq6oqs2VppWWzBnimx/2ylMM6KEABkwss+GA5duz4w+Rdsr1QERg6pBuioiJCpVzWSQEKUIACFAhYYNLbH2HHrgMBr9dxoctqdV85bQNkeLWhjm0xlCbAoVWIfw/+cY7VNgBS/Am5Xp3qGD6wS4irsnwKUCCUBOa/vwy7dh0MpZJZq4kF+vd/FAnxsSbukK1RgAIUoAAF/i0wYMRUFBScEk6iQH1mhiv/beGFsADdBTi00p3UuIAd2yIm8XTir4DS3Lis585ks8Vj7KgefCxChs1gDRQII4G585Ziz54/w6hjtiqzwLPPPoQqlRNlLpG1UYACFKAABXQTyMsrxNCXpstwvlWZp7T8olnbio7o1hwDSSHAoZUU2xBQEUq63fauAvQIaLXOi6IiI/DqyB6Ij4/ROTLDUYACFDi/wJw5X2HvvkNkooAUAk/2egA1alSWohYWQQEKUIACFDBCYOW3G7Bo8bdQVSOynTfH+06XuzO09wryYxoBDq1CdCsd9sRHAWW+DOVbLAqezrgPLZo1kKEc1kABCoSZwPz3v8YuOc5TCDN5tns2gT69OyEpKYE4FKAABShAgbASGPfmAuyR4ZeICm5yZrm/CSt8kzfLoVUIbnBGq8p1VYtnN4BKMpR/zVUt0eXhW2QohTVQgAJhKMC3B4bhpkvc8uDBXRATLcW/niVWYmkUoAAFKGBGgQHDp6KgUPj5VnvyS93NFm5DqRmNw7EnDq1CbNdHtUfEwbyk71Sof5Oh9Lq1q2HEoK4ylMIaKECBMBVY9PFqbNmyJ0y7Z9uyCYwamSFbSayHAhSgAAUoYIjAiRNujBiTCa/Xa0i+cyVRgEEzXO7xQotgct0EOLTSjdKYQBkpSaNVRR1hTLbzZ4mNjcaEl56E1WqRoRzWQAEKhKnA4sXfI8u1M0y7Z9uyCXBoJduOsB4KUIACFDBS4POv1uLL5T8bmfJsubylVsslczfk/iG6EOavuACHVhU3NCxCempCW0W1/GhYwvMkslgsGNr/MdSrU12GclgDBSgQxgLLV/yCH3/cFMYCbF0mAQ6tZNoN1kIBClCAAiIERo6ZiSPHckSk/mvO5fVc7ttHAWJv+xKtYIL8HFqFyCb2SEOsx5O4C1Bqy1Dynbe2xT23S/GEogwcrIECFBAosHbtJqxY+YvACpiaAn8XUBQFI19wkIMCFKAABSgQ1gIlJWXoN+xtlJd7hDqoULpnuvJmCS2CySsswKFVhQkNCaA4UmwLoKCTIdkukOSyhnUx4FkpSpGBgzVQgAKCBbRHA7VHBPmhgGiB5KQE9O7Nfz+K3gfmpwAFKEAB8QIrVv2KRZ+L/fOZoiinS0976s3ZXnBSvAgrCFSAQ6tA5Qxc57AnPA5YpJgQJyfF49WRPc78NpkfClCAAjII7Np1APPf/1qGUlhDmAtc1aYFbrvtqjBXYPsUoAAFKECBvwsMf9mJ4yfyhHKowKJMl/shAKrQQpg8YAFOHgKmM2ZhemrVx/n0XgAAIABJREFU2lDL9ilAlDEZz50lIsKKV4ZnICkpXnQpzE8BClDgXwInTuRhytuLKEIB4QJ9endCUlKC8DpYAAUoQAEKUEAGgTx3IYa8OF342wRVBQ9mZrk/lsGENfgvwKGV/2aGrejYEdbEXTbt4PUrDUt6jkTanVVdOt2Mq69qKboU5qcABSjwHwIejxcvv5IJlb8/4zdDoIB2A/LIFzIEVsDUFKAABShAAfkEZsz5Er9u3C64MOWU4rU0nrEp56DgQpg+AAEOrQJAM2qJw24bC2CQUfnOl+fylEbo2f1uGUphDRSgAAX+R+D1Nz6A211IGQoIE9DeqvvCiHRh+ZmYAhSgAAUoIKvAgOFTUVB4Smx5Ko5YIyxNpm3IdYsthNn9FeDQyl8xg65PT0m4RlEsPxiU7rxpalRPxuih/IO4DHvBGihAgbMLzJm7FHv3/kkeCggTaNToIjz6yC3C8jMxBShAAQpQQFaBrb/tx1vTPpbhrvgTiteayjuuZP2mnL0uDq0k3K9u7RFtzbXth4IaosuLiorEuJd6IaaS8CO1RFMwPwUoILHA8hW/4McfN0lcIUszuwDPszL7DrM/ClCAAhSoiMCrk+Zj/x9HKhJCr7VeKMr1zqw8sa821KubMIjDoZV8m6w47LZPANwnujTtHKsnut2FtJRGokthfgpQgALnFdi8eQ8+/mQ1lSggRMBiUfDCCIeQ3ExKAQpQgAIUCAWBsnIP+g6ZgrKycinKVVS85m7kHr5wITxSFMQizinAoZVkX46MFFsPVcF7MpTVOrURnnic51jJsBesgQIUOL/A8eN5ePsdvkGQ3xMxAjZbPPr2eVhMcmalAAUoQAEKhIjAZ1+uwdIV62Sqdot6OvJvmTtOFMhUFGv5TwEOrST6RqSnxtZW1MjfAUSILqtGtWSMHsZzrETvA/NTgAI+CqgqXnl1tjS/vfOxal5mEoEunW9Dw4Z1TdIN26AABShAAQoET2Do6Ok4mZMfvAT+Ry5XVcv1mdm5a/xfyhVGCHBoZYSyDzlUQMmw27IApPhweVAviYyMwLjRPREbEx3UPAxOAQpQQE+BefO/xu7dB/QMyVgUuKAAHw28IBEvoAAFKEABCvxL4M9DJzB63GzpRFQob1zkyus/CvBKV1yYF8ShlSRfgIzUxMmqqjwrQznpne9Am9ZNZSiFNVCAAhTwWWDN2mysXPmrz9fzQgroIVCzZhX06nm/HqEYgwIUoAAFKBAWAq+/swjbd2oPGMn1URRsdpe4Wy/chlK5Kgvvaji0kmD/M+xJ7VWoUpwg3LLZJXimxwMSqLAEClCAAv4JHDhwFM7MJf4t4tUUqKBA796dkJyUUMEoXE4BClCAAhQIHwHVq6LPkCkoLpFyNlTogdJylitvf/jsiNydcmgleH96pCHS47EdAlBVcClIssVj7Is9RZfB/BSgAAUCElC1c63GzEJ5OV8CExAgF/ktYLVaMWJ4d7/XcQEFKEABClAg3AXWrtuCOQu+lpbBq6DjzCw33/IjwQ5xaCV4EzLsSUtUqHcJLgP4/2/CqOe7oVaNKsJLYQEUoAAFAhVYuHAVtm7bG+hyrqOAXwJtrmyB22+/yq81vJgCFKAABShAgb8LjJkwD78fPCoth6IqA2Zk502UtsAwKYxDK4Eb7Whly4AF0wWW8K/UN19/BR6891oZSmENFKAABQIWcGXvwmeffRfwei6kgK8CiqJg5AsOXy/ndRSgAAUoQAEK/JeAdnd83yFTUFpWLq+NirHObPfz8hZo/so4tBK0x0+2tCWXWnEYQCVBJfwr7UV1a2DYgM6iy2B+ClCAAhUWKCo6jfET5lc4DgNQ4EICcXExGDjgsQtdxn9OAQpQgAIUoMB5BFb/kIUPPl4ltZECzJjhcj8hdZEmLo5DK0Gb67Db1gG4UlD6f6WNiorA+JeeRHSlKNGlMD8FKEABXQRmzlyC3/+Q91ZzXZpkEOECT/Z6ADVqVBZeBwugAAUoQAEKhLrAy+Pn4sCfx6RuQ1XVyZnZ+b2lLtKkxXFoJWBjHakJY6BahghI/T8pHV3uwJVpTWUohTVQgAIU0EVg/frf8MWXa3WJxSAUOJtAZGQEhg3tRhwKUIACFKAABXQQKC4uxYDh76BM7pfpqCowONPlHq9DywzhhwCHVn5g6XFpj5YJTTxWy1YAFj3iVSSGveWleNJxb0VCcC0FKEAB6QSKiooxfsI86epiQeYRuOGGNFzbLtU8DbETClCAAhSggGCBFavXY9Fiuc8lVQEVKh7OzHZ/JJgrrNJzaGXwdjvsts0AWhic9n/SVU5OwCsjnoDFwq+A6L1gfgpQQH+BufOWYs+eP/UPzIhhL2C1WjB8WHdoB7HzQwEKhI+Ax+OFdifvz+u2oLDwNLxeL1RVhXbrhfbRfib8/ceCcubP19oRHHXr1kDDS2qjRcuGiI2NDh8sdkqBAAUmTvkQO3cfDHC1Ycs8UJUrnNl5WYZlDPNE/BOXgV+AdLttnAIMNDDlWVNp/1J9YVBX1K5VVXQpzE8BClAgKAJbt+7FwkVyH+oZlMYZNOgCdetWR4bjnqDnYQIKUEAOgY0btmP5yl9QUlJ2ZkgV6EcbeFutVtSrVx3Xt2+NunWrBRqK6yhgWgGPx4MhL06HO79I9h6P10ty1x71LSR+7aHshL7Xx6GV71YVutKRmlRfUdXdKhBRoUA6LL7j5ja4985rdIjEEBSgAAXkFNB+Iz523FyUlpbJWSCrCkkB7Q9NgwZ1QUyM8Bf/hqQfi6ZAqAhowyntbMTs7F0oD9IZO9oQKzq6Etpe1QJt27aE9r/5oQAFgDx3AYa/5JT9fCttq751utzXc8+CL8ChVfCNz2Rw2G0bAQg/AKPBxbUxqPfDfKzBoH1nGgpQQJzA8uXr8ONP2hPZ/FBAHwHtL5jPD+6iTzBGoQAFpBRYvuIXrFu3BdovP4z6WCwWxMfF4Prr05Bqv0x71tCo1MxDASkFftvxO96YukjK2v5SlPZ88HPO7Pwpshca6vXxJ6IBO5huTxqlQB1pQKrzpoiuFIVXR/VALH9DLHormJ8CFDBA4NixXLwz9WMDMjFFuAg83OkmNGlycbi0yz4pEFYCO3f+gU8+/RbaW8xEfiIirKhXtzruv789EhPjRJbC3BQQKrDBtRPTZi0RWoMPyU/FFlprvbU7J9+Ha3lJgAIcWgUI5+uybs3ialqjIvYDEP4sQY9udyPN3sjX0nkdBShAgZAX4IHsIb+F0jSgHao8dEg3aephIRSggD4CqurFtOmf4/DhE/oE1CmKdgZtfHws7r23HS5tWFenqAxDgdASWLtuC+Ys+FruohUsc2a5b5e7yNCujkOrIO+fw27T3tt5bZDTXDD8lZc3haPrHRe8jhdQgAIUMJPArt0HMH++5H/YMRO4iXtJS2uCu+/ieZAm3mK2FoYC27f/jk8+XY3SUrnPUo6Ljcbtd/wNLZo3CMNdYsvhLvDNtxvx0WerZWbwqor3msysgp9kLjKUa+PQKoi7l55iuwUKlinau28FfqpVTcKoId0QYbUKrIKpKUABChgvoB2mO/mtj5CbW2B8cmY0jYB23sywod14ULJpdpSNhLuA9u+GmTO/wIGDxyr0RkCjHWNjo3HvPe3QuHF9o1MzHwWECqxb/xsy530ltIYLJM9yutyXy1xgKNcmdJgSynC+1O6w27YDaOzLtcG6Rru1eOTgx1GrZpVgpWBcClCAAlILbMzagc8//0HqGlmc3ALVqiXj6ac6yF0kq6MABXwS2LPnT3y0cCVKSkL37bLJyQl4qONNqFWLf773adN5kSkEdu39E69P+Qger3EvSfADTlUV3JKZ5V7pxxpe6qMAh1Y+Qvl7WUZKUn9VUSf4u07v6+++/W+469a2eodlPApQgAIhI+DxeDBhwvs4XVwSMjWzULkEnnn6QVT9/7uW+aEABUJbYM7cpdi371BI3V11LnHtF9MNGtTBo4/cDCufpgjtLyar91ngyLEcvDpxPopLxL4w4awFq9jgzHa39rkZXuizAIdWPlP5d6EjxXYYCmr6t0rfqy9tUAcDnu0E7V9q/FCAAhQIZ4Gf123FsmU8aiCcvwOB9q69cXfQoC6BLuc6ClBAAoEjR05CG1idOlUsQTX6lhAVFYnbbmuLy1P5siV9ZRlNVoGiU8WYMPkDHDpyUrYSvbCojZ0b83fLVlio18NpRhB20HF5Yl94lUlBCO1zyEqVIvHKiAwkxMf6vIYXUoACFDCrQGlpGcaNn4fyco9ZW2RfQRK4/fa2aHNl8yBFZ1gKUCDYAos+Xo2tW/ea4u6q81nVr18TXbvcwbP3gv2FYnwpBLQ/z837cAV++nWrFPX8pYjPnC73/bIVFer1cGgVhB102G37AQg9ITG98x1o07ppELpjSApQgAKhKfDTz1vw9dc/h2bxrFqIgHYHw5Dnu/KOZSH6TEqBigns3XsIH3+8CtpdGeHy0Q5qf/SRW1C3bvVwaZl9hrGA9kKFXzZux8x5S2UaSuc4XW4eNqfz95JDK51BM1oldVUt6mydw/oVLs3eCD263e3XGl5MAQpQwOwCZWXlmDRpAc+2MvtG69jfFa2b4M47r9ExIkNRgALBFtDuwNDeDHjo0HGowU4mYXyrxYJ27VLQvn2ahNWxJAroL3DipBsT3voQuXlyvCnaq6DjzCz3Iv07Dd+IHFrpvPcOu20zgBY6h/U5XJItHqOHpaNSVKTPa3ghBShAgXAR4JsEw2WnK95nRIQVQ55/nI/aVJySEShgmMCSL9YgO3tX2D8Krp1n26zZJej44A2G2TMRBUQKaG8Dnb1gGTa4doos40xuVcWqzGz3jcILMVEBHFrpuJnd0hKaWD0W7cFai45h/QrV7+mH0Piyen6t4cUUoAAFwkVAe5PglLcXITdXjt/GhYt7KPZ52WX18Nijt4Zi6ayZAmEnsGnLHixb+pMpD1qvyGbWqVMN6d3v5vC9IohcGzIC2uOCP6/fhtnvfy34cUHlsNOVVztk4EKgUA6tdNykdHviYgXKPTqG9CvU1W1aoOsj/AO2X2i8mAIUCDuBPXv+xNx5S8Oubzbsu4DVasGggV2gvdSEHwpQQF6BvLwCzJ23DCdPuuUtUnBlVarY0KvXA4iMsAquhOkpYIzA0WM5GDf5AxQWnjYm4f9mUctUb5M52QXib/sSJaBzXg6tdAJVASXDbssFYNMppF9h+FigX1y8mAIUCGMB7TdxH3y4Ejt2/B7GCmz9fAING9ZFl863EYkCFJBUQPs5PnfuUuzbdxhqWJ5c5d/GJCcn4MleD0B7uQQ/FAgHgYLCU5j09kIcOnxCSLsKMH6Gyz1ISHITJuXQSqdNdaTYekLBuzqF8zvMsz0fQIuml/i9jgsoQAEKhKNAbm4+3pz8UTi2zp4vIKDdZTVwQGdER0fRigIUkFDg55+3YNXqDSgtLZOwOnlLsiXG4amnOqBSJf5sk3eXWJmeAsUlpXht0nwcPpqjZ1hfY2U5Xe7Lfb2Y151fgEMrnb4h6am2DYoKIV/MNq2bIr3zHTp1wjAUoAAFwkPgx582Y/nydeHRLLv0WaC5dnhxR56f6jMYL6SAQQKnTpXAmfk5HwWsgHdyciKeeboDrFY+KlgBRi4NIQHtjYIvvjZbxJujjztd7uohRCV1qRxa6bA9PdJqx3o8RdqjgYb/6iIxIRajhzkQw98I67CTDEEBCoSTgHYo+7Tpi3FUzG/gwok6ZHrVHp0ZNLAztDcH8kMBCsgjsHr1BvywJhter1eeokK0kho1KqNXz/uhvWGQHwqEg8BXy3/G4q/WGtqqCqgRVkvytA25PHBPB3n+tNIB0ZGS+CIU5QUdQvkdouvDt+Lqq1r4vY4LKEABClAAZwZWU9/9hBQUOCPQ/rpUtG+fRg0KUEASgbKyckyb9hmOn8iTpCJzlFG/fk1073aXOZphFxS4gIB2t9Xzo6YZ7qQo6Dgjy73I8MQmTMihlQ6b6rDbtgFoqkMov0LUrlkVIwZ1gcVi8WsdL6YABShAgX8L8DFBfhs0gfj4GPTv9yjvPuDXgQKSCBw4eAzz5i1DSUmpJBWZq4zU1Ea4955rzdUUu6HAOQSGjJqGnLwCQ30UFc4Z2e4MQ5OaNBmHVhXc2G72pCQr1OMAIioYyu/lGV3vxBWXN/F7HRdQgAIUoMC/BbTHTebN/xp79/5JljAV0B6T6fHEvahVq2qYCrBtCsgl8M03v555HJCf4AloP/duv60trryyWfCSMDIFJBGYmrkYrk27ja7mJ6fL/Tejk5oxH4dWFdzVdLvtFQUYWsEwfi9PssVjzAtPQHvLET8UoAAFKFAxgcLC05j81kd8G1XFGEN2ddOmF6PTQzeFbP0snAJmEVBVFZ8t/g7Z2Yb/5dIshH71oZ3f53Dcg1o1q/i1jhdTINQEliz9EV98/ZPRZe90utyNjU5qxnwcWlVwVzNSbL+pCgy/3enOW67CPXdcXcHquZwCFKAABf4psH//Ycya/SVBwkwgNjYa/fo+wsPXw2zf2a58Al6vigUfLMeuXQfkK87EFSUmxqFvn4f5aLSJ95itAes2/IbMuV8ZTXHS6XLzFm4d1Dm0qgDioy1tyTFWHBPxaKB2l1WVyokVqJ5LKUABClDgvwXWr/8NX3xp7BtmuAviBLQzIbXHAmvyLgNxm8DMFACg3WH1/gIOrER9GRo3ro9HHr5ZVHrmpUDQBfb/cQSvTpof9Dz/lcBrtbqjp21AmdGJzZaPQ6sK7Gh6qu01RcXgCoQIaGmDi2tjcJ9HAlrLRRSgAAUocG4B7S9Oy5b9jHW/bCVTGAjceENrtGtnD4NO2SIF5BZYqv3cXbdF7iJNXJ12vtV9912LlFaXmbhLthbOAqdPl6DPkCmGE6gKrsjMcq83PLHJEnJoVYENddhtOwEY/tP9ofuvx43XXV6ByrmUAhSgAAXOJVBe7sGHH67Ert18RMXM3xK+8t3Mu8veQklgw8btWLJkTSiVbMpao6OjMHDAY7Barabsj01RYMDwqSgoPGUohAL1mRmu/LcNTWrCZBxaBbipjtSk+lDVPQAM/cmuQMHY0T1hS4wLsHIuowAFKECBCwmUlpadedX6HweOXuhS/vMQFKhaNQm9et7Pc6xCcO9YsrkECgqKMHHSAnM1FcLdNGlcHw/zMcEQ3kGWfj6BsW8swN79hwxFUhR1zoys/McNTWrCZBxaBbipGXbbhyrwUIDLA17W+LKL0O/pjgGv50IKUIACFPBNoLi4FDNnLcHRo7m+LeBVISFgS4zHk08+AO2uAn4oQAFxAh6PF1PeXoTc3HxxRTDzfwhYLArSu9+NunWrU4YCphOYOe8r/Lz+N6P7Wu90ua8wOqnZ8nFoFeCOOuy24wAMfxtA5043o13bVgFWzWUUoAAFKOCPwKlTxXBmLsHJk25/lvFaSQXiYqPRq9cDSEiIlbRClkWB8BH4YU02vvnm1/BpOEQ6rVw5Ec89a/jv5UNEh2WGssDSFevw2ZfGPoqsAn9mutx1Q9lNhto5tApgFxx22yAAYwNYWqEl2luOJrz0JOLioisUh4spQAEKUMB3gTODK+cSnMzh4Mp3NfmuTE5OOHMHAQdW8u0NKwo/gVOnSjBu/NzwazxEOn6o441o1uySEKmWZVLAN4Et2/bhrWmf+HaxfleV55e64xZuQ6l+IcMvEodWAey5w550CFBrBbC0QktSWjbEU477KhSDiylAAQpQwH8BbXA1w/k5cnL4GIv/euJX1KldDV273o5KlfhIoPjdYAUUAD797DtkZ+8ihaQCVSrb8OyzPI5E0u1hWQEK5LkLMXjkewGuDnyZ4kXGjE1uZ+ARuJJDKz+/Aw57Ym9AecPPZbpc3rP73bg8pZEusRiEAhSgAAX8EyjS7ria8TlyeP6Kf3CCr061N8Jdd13NN2IJ3gemp8A/BQoKTmHipPcJIrGAoijo1/dhJCTwxU8SbxNLC0Cg37B3UFR0OoCVFVqyxelyt6xQhDBfzKGVf18AxWG3HRNxllVMdBTGv/QkIiMj/KuYV1OAAhSggG4C2uBqxozFyM0t0C0mAwVHQPv35X33XYvmzRoEJwGjUoACAQl8tPAbbNu2L6C1XGScwOWXN8Y9d7czLiEzUcAAgSnTPsXmbXsNyPQfKVQVapdMV/58oxObJR+HVn7spCM1cSJUpZ8fS3S79Jq2rdCl0826xWMgClCAAhQITEB7VHDa9MXIy+PgKjDB4K+qU6caHuxwPZKTE4OfjBkoQAGfBbSfn+PGz/P5el4oTsBmi0ffPg+LK4CZKRAEgeWrfsXHn38fhMjnD6kCxwpc7toLAY/hyU2QkEMrHzex28WItiaducsqwcclul7W/9lOaNSQLx7QFZXBKEABCgQowLcKBggX5GXamVV33N4WrVpdCu3xFn4oQAG5BL7/wYVVq9bLVRSrOatARIQVw4Z2489Sfj9MJfD7gaMYM1HM4FxR4ZyR7c4wFahBzfBPdD5CO1JsH0BBJx8v1/WyysmJeGVEBiwWbpeusAxGAQpQoAICp0+XYNasL3H0WE4FonCpHgLagEp7lOWGG1ojLpZv2NXDlDEooLdAaWkZXhs7F16vV+/QjBckgZ4970etmlWCFJ1hKWC8gNerov+wt3HqdInxyYFSD5Q2s1x5LhHJQzknpyA+7F6PtISqHq/lAFQI+ZPwnbdehXtuv9qHSnkJBShAAQoYKVBSUoo5c5biz0PHjUzLXP8Q0G6mat68Aa67NhXVqiXThQIUkFjg4MFjZ97Cyk/oCNx805W4+upWoVMwK6WADwLvzVyCjdk7fbgyKJfsc7rcPGzTT1oOrXwAc9htqwBc78Olul+i/fb45eEOVK1i0z02A1KAAhSgQMUFtLsHFi5ahV27DlQ8GCP4JKANq5o0ufjMsKom7wLwyYwXUUC0wOzZX2Lf/sOiy2B+PwQaNKiDrl1u92MFL6WA/AK/bPgNzrlfCStUVdW3MrPznxNWQAgm5tDqApuW3iqhsWKxbAEg5LV9l6dchp7d7wnBrxZLpgAFKBA+Ah6PB0u+WAuXS9hv7sIC22q1INXeGFdd1RxVqyaFRc9skgJmENAepx47bq4ZWgmrHrQjSp577qGw6pnNml/gdHEJBg6firJyYWeilyoW/G3GRvcG82vr0yGHVhdwdNht2jOnKfpw+x+l/zOd0OhSHsDuvxxXUIACFDBWQDsnYdXq9VizJtvYxGGQTTunqk2b5rDbGyExMS4MOmaLFDCXwL59hzB7jrg7G8ylaVw32s/bfn0fMS4hM1HAIAHnnC/xy8btBmU7WxrlUD1XXr1RAA/582EXOLQ6D5KjZdK1sKqrAVh8sNT9krp1qmH4gC58a4fusgxIAQpQIHgCruxd+Oyz74KXIIwi16tXA22ubI4mTepDe5MVPxSgQGgKLPhgBXbs+D00iw/jquPiYjBwwGNhLMDWzSqwbcfveHPqIrHtqfjAme3mVNiHXeDQ6nxDK7ttP4D6PjgG5ZJe6fcgtdVlQYnNoBSgAAUoEDwB7WD2OXO+QklJWfCSmDRyVFQkUu2NzrwNsEaNyibtkm1RIHwEysrKMebV2VBVNXyaNkmn0dFReH5wV5N0wzYo8G8B7efRqFdn4YjYN0B7LKp65/Ts/K+5N+cX4NDqHD6OlomPwqrMF/UFqlenOoYN6My7rERtAPNSgAIUqKBAUdHpMwe07+fBwz5J1qpVBVde0RzNm18CbXDFDwUoYA6BnJx8TH7rI3M0E2ZdREVFYOiQbmHWNdsNF4EfftyEeR+tEN1ubn6Mu87Cn3BadCEy5+fQ6lxDK7tNe395VVGb9/QT96NVc74NU5Q/81KAAhTQQ8Dr9eKHNdlYvZpnbZ7NMzIyAi1bNkTa5U1Qp041PcgZgwIUkExg0+Y9+OQT7bQNfkJNQPsZPWwoh1ahtm+s1zcB7e3Pw152Ij+/yLcFwbtqhdPlviV44UM/ModWZ9lDR4ptMBS8Jmp769ergSH9HuNdVqI2gHkpQAEK6Cxw8OAxfPzxauTmFegcOTTDJdniccWVzZGa2gixMZVCswlWTQEK+CQw//2vsWvXAZ+u5UVyCXBoJdd+sBr9Bb5d68KChd/oH9i/iF5A6eB05X3m37LwuZpDq//da8Vht+UAEPYu7b5PdUSTRheFz7eQnVKAAhQIAwGPx4s1a7Px7bcbw/Zsl0suro0r2zRD40YXwWIR8o6TMPimsUUKyCPg8XrxyiuzoN11yk/oCWgvwBg+rHvoFc6KKeCjQFm5ByNfycTJ3HwfVwTtsjxPnrvWrP0oDlqGEA7ModV/bV6GPXGkCmWUqD1t1uRi9O7VQVR65qUABShAgSALaLehf/nVWuzY8UeQM8kR/p+PAGpvAeTB6nLsCauggFEChYWnMGHi+0alYx6dBTi00hmU4aQUyMrehXdnfi5BbepSpyv/DgkKka4EDq3+c0u0u6zyACQK2SkFGN6/C+rVrS4kPZNSgAIUoIBxAkeOnMT3P7iwbds+45IamKlKFRvS0pqceRNgDB8BNFCeqSggj8CJE3mY8rbg18rLwxFylfDxwJDbMhYckICK199ZhO07hf8y0QuLeqdzY/6ygNow8SIOrf6yuQ67bQyAIaL2+6ormqH7Y7eLSs+8FKAABSggQCAnx401azedGV4VF5cKqEC/lFar9cyjf5enNUbDBnV4NqN+tIxEgZAU2LP3T8yduzQka2fROPMm16FDHicFBUwvcOjwSbw0fja8XlV0r26r1V1t2gaUiS5EpvwcWv1jN0YBlgN2mxtAvIgNslotGD00HVWr2ESkZ04KUIACFBAsoKoqtm//HdmbdmH37oMoL/cIrsj39LVqVUVKq0uRknIZ76rynY1XUsD0Aqu/3Yjvvtto+j7N2mClSlEY8nxXs7bHvijwHwIff/49lq/6VbyKqixxZufCBF+AAAAgAElEQVTdI74QeSrg0Oofe+GwJ04ClL6itubWG6/AA3dfKyo981KAAhSggEQC2gBr//7D2LX7AH7ffwSHj5yU6iBjBQrq1K125q6qFi0aIjk5QSI9lkIBCsgiMG/+sjNDeH5CUyA6uhKeH9wlNItn1RTwU6CkpAyjxs5CTo7gQ9kVeLweXDlzk5sT/3/sIYdWANq3R0TDvDNnWcX5+d3W5fJKlSLxyogMJMTH6hKPQShAAQpQwFwC2hDr8OGTOPjnMRw+dAI5uQVwu7X/FBn2JsKqVZNQt251XHJxLTS8tC7i42LMhcxuKEAB3QUmv/WR+L8A6t5V+ASMjamEQYM4tAqfHWenW7fvx+R3P5YAQj3kdOXXkaAQKUrg0AqAw257G8BTonbkwXuvw83XtxaVnnkpQAEKUCBEBbSzF3Jz85HnLoL2lq7CgiIUFJxGcUkpSkvLUFpafua/y8vK4VXVM3draWu0Idg//2/tv7X/rZ1HpT2qrv1mXfuLSlJSPKpXT0aNGlXO/DcPUw/RLwnLpoAgAe3nyksvz5TqLlFBFCGbNi4uGgMHdA7Z+lk4BQIRyJy3FOvWbwtkqa5rFEXtPSMrf7KuQUM0WNgPrXqkIbLcY3MrgJBfGScmxOLl4RnQ7rbihwIUoAAFKEABClCAAmYQKCsrxytjZpmhlbDtIT4+BgP6Pxa2/bPx8BQoKjqNUa/NRn5BkWiAU1arO4mHsgNhP7Ry2G3TAWSI+kZ273w7rmrdTFR65qUABShAAQpQgAIUoIDuAtrbUF8bO0f3uAxonEBCQiz693vUuITMRAFJBLb+tg+T3/tEfDUqMp3Zbof4QsRWENZDq1HNEHWgks0NFdEitqFG9WSMHNztzOMY/FCAAhSgAAUoQAEKUMAsAqdOFWPc+HlmaScs+0hMjEO/vo+EZe9smgLzPlqBH37cJBqixGqNqzxtw6FTogsRmT+sh1aO1KQ5UFVhpws+2/MBtGh6icj9Z24KUIACFKAABShAAQroLqA9YjN+wnzd4zKgcQI2Wzz69nnYuITMRAGJBE4Xl2D0a7ORk1cguqrPnC73/aKLEJk/bIdWHdsiJvH0mTcGRonYgAYX18Kg3o9AUcJ2C0SwMycFKEABClCAAhSggAECBQWnMHHS+wZkYopgCWgv5OjTm0OrYPkyrvwCu/YexITJH4outCy/NKrywm3HC0UXIip/2E5MHCm2lVBwoyj4gc89jEsb8C2WovyZlwIUoAAFKEABClAgeAIcWgXP1qjISUkJ6NO7k1HpmIcCUgosWvwdVqxeL7Y2Rf3AmZUfts/qhuXQqnurxDYWi/IjACGHSV3WsC4GPMt/AYj9/3xmpwAFKEABClCAAhQIlkBB4SlMnMg7rYLla0RcDq2MUGYO2QVKS8sweuxsHD/pFleqguJ6We64UYBXXBHiMofd0KpHWrLN4/UeEXX4urbVg/s8Cu3xQH4oQAEKUIACFKAABShgRoHCotOYwDOtQnpr+XhgSG8fi9dRYN8fRzD29fehqqqOUf0MpSgjnVl5o/1cZYrLw2popQJKRqptP1RcJGr3mjaujz5PPigqPfNSgAIUoAAFKEABClAg6AJFRcUYP4FvDww6dBATcGgVRFyGDjmBxV+txVfLfxZZd5HT5Y4XWYCo3GE1tHLYk74A1DtFYWt5h/Z7DPUvqimyBOamAAUoQAEKUIACFKBAUAVOny7B2HFzg5qDwYMrkGSLRx++PTC4yIweMgJlZeV4afwcHD2WK6xmi6o8MD0771NhBQhKHDZDq4yUpMmqoj4ryPlM2hZNL8GzPR8QWQJzU4ACFKAABShAAQpQIOgCpaXlGPPqrKDnYYLgCdhs8ejLoVXwgBk55AQO/HkMYybOh9cr7Ggpt9PlTgo5uAoWHBZDq/TUhH6KaplYQasKLx8xsCvq1qlW4TgMQAEKUIACFKAABShAAZkFPB4vXno5U+YSWdsFBDi04leEAv8r8NWKdVj85RpRNKpX8bSYmVW4TVQBIvKafmjlsNs6AvgQgNBeU1o2xFOO+0TsMXNSgAIUoAAFKEABClDAcIHRLznh9Qo8uNjwjs2VkEMrc+0nu9FHoLSsHCPHzERObr4+Af2Oom5zuvKb+70shBcIHeQE2y09LfkaxeP9XvTASutz5ODHUbtW1WC3zPgUoAAFKEABClCAAhSQQmDyWwuRkyPwNfFSKIRuERxahe7esfLgCuzcfRATp2j3xQj5lNdLcseM+hblQrILSGraoZXj8sRL4VV2yjCwSktthB6P3y1ge5mSAhSgAAUoQAEKUIACYgQWfLAcO3b8ISY5s1ZYICkpAX16d6pwHAaggBkFpjoXw7V5t5jWFPVlZ1b+CDHJjc9qyqFVN3tSkhVqjgwDK21LXxzSHTVrVDZ+d5mRAhSgAAUoQAEKUIACggRWfvMr1qzJFpSdaSsqkJycgN7PcWhVUUeuN6fA0WM5GPnqLKiqgEegFRQ7s9wx5pT9365MN7Qa1R4RB3JtR6FAiinRlWlN4ehyR7h8n9gnBShAAQpQgAIUoAAFzghs2rQbn3z6LTVCVKBy5UQ89+xDIVo9y6ZA8AXeX7gS360VM5gvi/I2nvNLgfZkmek/ZhtaKQ574lpAaSvDzimKgtFDu6N6tWQZymENFKAABShAAQpQgAIUMEzg8JETeO+9zwzLx0T6ClStYsMzz2jvtOKHAhQ4m8DxE3kY/rJTCI4KdVtmmBzIbqqhlcNuGwBgvJBvzVmS3nR9Gjre216WclgHBShAAQpQgAIUoAAFDBPIyyvEG29+YFg+JtJXoFbNqujZk28/11eV0cwm8G7mYmRtEnK2lSff5a60EPCYzfS/+zHN0Crj8vimqte6TZYNi4yMwJgXnkBiQqwsJbEOClCAAhSgAAUoQAEKGCZQXFyK18bOMSwfE+krcNll9fDYo7fqG5TRKGAygd8PHMWYifOEdKWqGJKZ7X5NSHIDk5piaNWlFeKiLLYCWQ5e1/bvkQ43oH27VAO3kqkoQAEKUIACFKAABSggj4B2QPGYMbNRVh42b2aXB1+HStLSmuDuu67RIRJDUMDMAipGj52DPw+fENFkmdPljhKR2MicZhhaKY5U2y9Q0dpIuPPlio+Lwasjn0BUVKQsJbEOClCAAhSgAAUoQAEKGC7w8cersXnLHsPzMmHFBe666xq0TmtS8UCMQAGTC2zb8TvenLpISJdexVN9ZlbhcSHJDUoa8kOr9JSEaxTF8oNBXj6lGdznUTS4uJZP1/IiClCAAhSgAAUoQAEKmFVg584/8P6C5WZtz9R99XjiXtSuXc3UPbI5CughUO7xYPAL76KwqFiPcP7GWOF0uW/xd1EoXR/SQ6tuFyPammQ7LRP49e1S8XCHG2QqibVQgAIUoAAFKEABClBAiEBuXgHefPNDIbmZtGICI4Z3h9VqrVgQrqZAmAj88GM25n20UkS3XqfLber/Rw3loZXisCfOBJTHRXwzzpYzPj4GY0Y8gUqV+FigLHvCOihAAQpQgAIUoAAFxAmUlZVjzKuzoZ1vxU/oCGh/nxnyvDR/zQodOFYatgJ57kI8P2qakJ91Fot62/SN+V+bFT9kh1YZrSrXVS2eA7JsjKIoGNLvUdSvV1OWklgHBShAAQpQgAIUoAAFhAssWLACO3b+LrwOFuC7QFJSAvr07uT7Al5JAQpgqnMxXJt3Gy6hAO4ZLneS4YkNShiqQyvFYbf9BqCxQU4XTPPIgzei/TX2C17HCyhAAQpQgAIUoAAFKBBOAn8cOIrMzCXh1HLI99qo0UV49BFTH5MT8nvEBuQT2Lv/EMa+sUBIYZ4kd8ysbyHkUK1gNxySQ6seabaGHg+MH2GeYzdaNW+Ap5+4P9h7xfgUoAAFKEABClCAAhQIOYFTp4oxbvy8kKs7nAt+sMMNaNGiQTgTsHcK+C3g8XjRf9g7OF1c4vfaii9QZztd+d0qHke+CKE4tFIy7LbtKtBIBk5bYhxeHu5AVBTPsZJhP1gDBShAAQpQgAIUoIB8AjOci3HwoKnfyi4feoAVRURYMWxoN2jHn/BDAQr4J/DNdxvx0aer/Vuk09VOl9sCwHQHCIbcT6IeabG1PJ7IQzrta4XCaAcUjh6ajiRbfIXicDEFKEABClCAAhSgAAXMLHD48Em8N+1TM7domt6qV0/GU092ME0/bIQCRgrk5OZjyIvTjUz571we5Trn5rzvxSQPXtaQG1pl2G0LVeDB4JH4FtlqtWD4wC6oXbOqbwt4FQUoQAEKUIACFKAABcJUoLzcg1dfmw3t8Rl+5Ba4+65rkJbWRO4iWR0FJBaYOOUj7Nwt4J1xKgqc2e5EiWkCKi2khlZdWtWIi7IUFwbUqY6LtDtln+vVAc0aX6xjVIaiAAUoQAEKUIACFKCAeQXW/rgJK1b8Yt4GTdCZduTJkOe78tFAE+wlWxAnoA2stMGViE+pNzp+7qajRSJyBytnSA2tHPak+wBV+H3FnTvdjHZtWwVrTxiXAhSgAAUoQAEKUIACphMoKSnF2HFz4fWa7sgV0+xVkyb18XCnm03TDxuhgAiB0tIy9BkyRcydpQo+dma5hT+Zpqd7yAytRgGWA3ZbPoA4PQH8jXXL9a3R4d7r/F3G6ylAAQpQgAIUoAAFKBD2Aj+v24ply34KewcZAbQD2J8f3BXaf/NDAQpUTOCTz7/H16t+rViQAFeb7W6rkBla9UqpUqdMKT8Y4L7psiylRUM8lXGfLrEYhAIUoAAFKEABClCAAuEmoN2BoN1txbOt5Nt5u70R7rv3WvkKY0UUCEGBI0dzMPLVmUIqV6B8N8OV115I8iAkDZmhlSPV9gFUdAqCgU8h69WpjqH9H4PFor1Fkh8KUIACFKAABShAAQpQIBCBvfsOYc6crwJZyjVBEoiLi8bAAZ2DFJ1hKRCOAiqGvDgD2tsERXysHm/TaZsLtovIrXfOkBhaPdWsWnxJVGmB3s37Gi8xMRZjRjyByMgIX5fwOgpQgAIUoAAFKEABClDgHALOzM9x4MAx+kgi0KHD9WjZoqEk1bAMCphDYGP2Lrw383NhzVit7qhpG1AmrACdEofE0CrDnniHCuVLnXr2K4zVasW4F3siPj7Gr3W8mAIUoAAFKEABClCAAhQ4u0BxcSnGjZ8Hr9dLIsECNWtURq9eDwiugukpYD6BolPF6D/sHaiqoJdPqPjEme3uEOqyoTC0UtLttgMKUEcE9rCBnXFRnRoiUjMnBShAAQpQgAIUoAAFTCtw5EgO3n3vE9P2FwqNaUef9Ov7CH9BHwqbxRpDUuD9hSvx3dpsYbVbrd520zYUrBFWgA6JpR9a9UhLqOrxWI7r0KvfIa5p2wpd+MpXv924gAIUoAAFKEABClCAAr4IbNy4A58v+cGXS3lNEARatmyIDg9cH4TIDEkBCmgCR47lYOQYMQey/3MHiitZbfPX5Yg5XEuHr4H0Q6v0FFsvRcFUHXr1K4SiKJg05mnExlTyax0vpgAFKEABClCAAhSgAAV8F/ho4TfYtm2f7wt4pS4CsbHa4euPQft7Dz8UoECQBFRg6EvTcVLszOhEPZe7xiggJJ/Hlvon1CjAciAlsQiKEh2kr9A5w959e1vcdevfjE7LfBSgAAUoQAEKUIACFAgrAe28lzlzl2LfvkNh1bfoZjt0uAEtWzQQXQbzU8D0Alt/24fJoh+F9uIV5yb38FDElnpolZ5atbailv0pAnb8S72QmBAnIjVzUoACFKAABShAAQpQIKwEtMHV7DlLsX8/B1dGbPxF9WoiPf0uI1IxBwXCXkB78USfIVPEHcj+zx0oUy9zbs3fHWobIvXQymFPfBlQhhmNWqNaMkYPSzc6LfNRgAIUoAAFKEABClAgbAW0F2zNnbcUe/cK+Z112LhHRUVi8KAusFotYdMzG6WAaIGPP/8Oy1etF10GEmMSYl//6eBp4YX4UYC0Q6seaYj0eGylfvSi26VD+3dG/Xp8Y6BuoAxEAQpQgAIUoAAFKEABHwW+/T4L367e4OPVvMxfgbvvaoe0tMb+LuP1FKBABQTy3IUYPPK9CkTQZ6mq4PvMLPd1+kQzJoq0Q6tu9qSLrVCFnMg4ZXxvREZGGLMDzEIBClCAAhSgAAUoQAEK/IeA9pjgrNlfUUVngUsuqY3Hu96hc1SGowAFfBGY88FyrP15sy+XBvcaj+c65+bC74ObRL/o0g6tHKm2d6Gip36t+hbptpuuxP13tfPtYl5FAQpQgAIUoAAFKEABCgRFQDsHZuy4ueLPgQlKd8YHjYuLwYD+j/JtgcbTMyMFzgjk5OZjyIvTpdAormS1zV8n9pWGvkJIObTq2BYxiadtp3xtQs/rJrz0JBISYvUMyVgUoAAFKEABClCAAhSgQAAC2gHt7773KY4ezQlgNZf8VaBXz/tRs2YVolCAAgIF3s1cjKxNEpyFrqo/OLPzrxVI4XNqKYdW6a0TGivllu0+d6HThdGVovDGa8/wtw86eTIMBShAAQpQgAIUoAAF9BDYsnUvFi1apUeosIxxffs0XHddalj2zqYpIJOALGdbaSYW1dpienbOVpl8zlaLlEMrh932EYCORuM5Ot+BK1s3NTot81GAAhSgAAUoQAEKUIACFxDweDyYMPF9nD5dQis/BBo1vgiPPnyLHyt4KQUoEEyBL7/+CZ8v/TGYKXyN7Y0tdMe+tRtS/1CVbmiV3rhqghJTlu+rsp7XvT7macTGRusZkrEoQAEKUIACFKAABShAAR0FsrJ2YvHnIXOGsI6d+x+qWrVkPPVkByjS/a3P/164ggJmESgpLcNzgyZL0Y4KDMp0ucdLUcw5ipDux5cjJSkVirrRaLRqVWx4eUSG0WmZjwIUoAAFKEABClCAAhTwU8Dj8cKZuQSHDh33c2X4XJ6YEIfefR6C1WINn6bZKQVCRGDrb/sx+b2PZahWtVotydM25LplKOZsNUg3tMqw21aowE1Gg/V/phMaXVrX6LTMRwEKUIACFKAABShAAQoEKOB2F+HNyR/A61UDjGDOZdqbAvv07oTIyAhzNsiuKBDiAtpLJl4aPxd/SjB4V73KG5mb8vrKSirV0KqbPSnJCjVXBNabY5+FdhA7PxSgAAUoQAEKUIACFKBA6Ahof/n76efNWL78l9ApOoiVRkdXOjOwio7m322CyMzQFKiwQH5BEQaOeLfCcfQI4FU81WdmFUp566pUQ6uMyxPaqV6L4Q+oX9qgDgY+97Aee80YFKAABShAAQpQgAIUoIAAgbKycsyZuxQHDhwVkF2OlDZbPJ56qgMqRUXKURCroAAFzivw68btmDHnS+FKqop3M7PdTwov5CwFSDW0cthtvwJobTTUyOe7oXbNKkanZT4KUIACFKAABShAAQpQQGeB4uJSzJ77FQ4fOqFzZLnD1atbHd263QWr1SJ3oayOAhT4l4B2p+iosbNx5MhJ0SrSnm0lzdCqe2p8NYtqPSZip94a3xtRfN5bBD1zUoACFKAABShAAQpQICgC2vBq9eoN+OXXbdD+Ymjmz5VXNMNtt7WFxSLNX+/MzM3eKKCrQGHRafQf9o6uMQMKpqiPOLPyPwhobRAXSfNTzXF5wt3wWj4PYq9nDW1v0RBPZtxndFrmowAFKEABClCAAhSgAAUMECj3eHDiuBvfrFqP3bv+gJnGVzExlZDe/W5Uq5ZkgCRTUIACwRLYufsAJk75KFjhfYqrQDldNykvcdS3KPdpgUEXSTO0yki17VZVNDSo73+leWVEBqpWsRmdlvkoQAEKUIACFKAABShAAYMFPB4vSkpKsWv3AWzatBt79x4K2buwrmrTAjfddAUiIqwGKzIdBSigt4B2N6hzzpf4NWuH3qH9iqdYPM1mbCz8za9FQb5YiqGVIzWpPlR1f5B7PWv4tyf04Q96EfDMSQEKUIACFKAABShAAcEC2l8US8vK4Sn3QHuc8ODBYzh06DhycguQm5uPvLwClJV5BFf57/TaeVXXXJ2Ctm1b8u2A0uwKC6GAPgLayyT6DpmCsnKBP3MUfOjMckv1ljo5hlZ221gAg/TZat+jXN2mBbo+cqvvC3glBShAAQpQgAIUoAAFKBBWAtpg69//wX/cmaUdlfWf/1yF16vC4/GgqKgYOTnuvw/AcvKRo/0nNx8FBad89lMUBRddVAMtWzRE4yb1ERtTCVYr76zyGZAXUiDEBI6fyMPwl53CqtZ+pEWXRiW+s+14obAi/iux8KFVeuOqCUpMWS4Aw3/6jnuxJ7TXwvJDAQpQgAIUoAAFKEABClDACAFtyOX1euHx/P2/tSEX/nHSlvbPtEGVxWI58xZA7dE/7X/zQwEKhI/At2tcWLDoG2ENK5bylBkbizYJK0C2oVVGK9sNqgVCduSdSX1htfCVsLJ8GVkHBShAAQpQgAIUoAAFKEABClAgnAW0QfaLr83CkWM5QhhUYFGmy91RSPKzJBU+tnfYbbsAXGo0yK03XIEH7rnW6LTMRwEKUIACFKAABShAAQpQgAIUoAAFzilQdKoY/Ya+LURIe0QQpyNtmTtOFAgp4L+SCh1apbe0NVCs2CMCYtIrTyMuLlpEauakAAUoQAEKUIACFKAABShAAQpQgALnFNi0ZS/envGpECGvF2kzN7k3Ckku09DKkZo4EarSz2gI7Rnxtyf2gYXPhxtNz3wUoAAFKEABClCAAhSgAAUoQAEKXEBAO+Nu2EszcDIn33ArBfh0hsv9gOGJz5JQ2J1Wj7WpnBhd4jkJIMJoiA73XItbbrjC6LTMRwEKUIACFKAABShAAQpQgAIUoAAFfBLIzSvA86Om+XStzhepqiSPCAobWnVPSbzVoijLdIb1Kdwbrz2DmOhKPl3LiyhAAQpQgAIUoAAFKEABClCAAhSggNEC2t1Wo16bjSNHtft9jP0oFk+zGRsLfzM26/9mEzW0Uv5xAHtDowGio6PwxqvP8NWxRsMzHwUoQAEKUIACFKAABShAAQpQgAJ+CRw/kYfhLzv9WqPHxQowZobLPUyPWBWJIWRo1c2eeJkVys6KFB7o2md7PIAWzS4JdDnXUYACFKAABShAAQpQgAIUoAAFKEABQwTKPR483f8NQ3L9NYmiorButts2CvAanvwvCYUMrRz2pDcAtbeIxt+e0AcREVYRqZmTAhSgAAUoQAEKUIACFKAABShAAQr4JeCc+yV+2bDdrzV6XOwtt140c0vOAT1iBRrD8KFVN3tSkhXqcREHsLds3gDPPHF/oFZcRwEKUIACFKAABShAAQpQgAIUoAAFDBXIyc3HkBenG5pTS2ZRlQemZ+d9anjivyQ0fGjVPSXhLotiWSKi6fGjeyExMU5EauakAAUoQAEKUIACFKAABShAAQpQgAJ+C3g8Hjwl4BFBQFnjdOW187tgHRcYPbTSDmDX7mlrpGMPPoWyWCx4Z2IfHsDukxYvogAFKEABClCAAhSgAAUoQAEKUEAWgemzv8D6rB2Gl2O1WpKmbch1G574HwkNHVqJPIC980M3o93fWolyZl4KUIACFKAABShAAQpQgAIUoAAFKBCQgKhHBD2e8lazNhdtDqhoHRYZOrTKSLW9qqp4Xoe6/Q7BA9j9JuMCClCAAhSgAAUoQAEKUIACFKAABSQQEPUWQajKaGd23khRBIYNrZ5qVi2+JKr0BIBKRjd76SW1MbD3I0anZT4KUIACFKAABShAAQpQgAIUoAAFKKCLwCsT5+GPA0d1ieVHkBNOl7s6ANWPNbpdatjQqpvddrMVWK5b5X4EGvdiT9hs8X6s4KUUoAAFKEABClCAAhSgAAUoQAEKUEAegW079uPNqR8bXpCqlNXJzDp1yPDEAAwbWqXbbb8owBVGN2m1WvH2hN48gN1oeOajAAUoQAEKUIACFKAABShAAQpQQDeB0tJyPDvoTd3i+RpI8eLGGZvcq3y9Xs/rDBla9bInXVwGdZ+ehfsaK73zHWjTuqmvl/M6ClCAAhSgAAUoQAEKUIACFKAABSggnYCqqnh6wBvweLwG16a+73TlP2Zw0jPpDBlaOVJsPaHgXRENTp3UFxaLRURq5qQABShAAQpQgAIUoAAFKEABClCAAroJLFz8HVauXq9bPB8DlcYWuhPf2o0SH6/X7bKgD61UQMlIsf0OBfV0q9rHQK2aN8TTT9zn49W8jAIUoAAFKEABClCAAhSgAAUoQAEKyCuQX1CEgSOMvydI9XqbZG4q2GG0TNCHVumtEhorFst2oxvT8r0+5hnExhr+skIRrTInBShAAQpQgAIUoAAFKEABClCAAiYX0B4NfKr/6wK6VJ92uvLfMTpx0IdWDrttAIDxRjcWFRmJt8Y/Z3Ra5qMABShAAQpQgAIUoAAFKEABClCAAkETGPFKJo4dzw1a/HME3uV0uRsZnTSoQ6uOHWFN3GU7AqCq0Y096bgP9pYNjU7LfBSgAAUoQAEKUIACFKAABShAAQpQIGgC67O2Y/rsL4MW/1yBPZHltWb9WqTNeAz7BHVo1SMtuaXH491kWDd/SfTeG/1FpGVOClCAAhSgAAUoQAEKUIACFKAABSgQNIGysnI8M/DNoMU/V2DFghtnbHSvMjJxUIdWGalJo1VVHWFkQ1quFs0a4Nke9xudlvkoQAEKUIACFKAABShAAQpQgAIUoEBQBVRVRa++k4Ka46zBFXzozHI/bGTioA2tzjwauNN2HAqSjWxIy/X6mKcRGxttdFrmo0DYC5wuLsHBg8dw4ngecnIKUFJaCu2gQItFgdVqQWxMNOLiYpBcJRE1qiUjOTnxzD/jhwIUoAAFKEABClCAAhSgAAV8F5iauRiuTbt9X6DPleVWa5xt2oZDp/QJd+EoQfvboqi3BkZFReKtcTyA/cJbzysoUHGBsvJybNywA7v3HMSRIzkoKCjyK6jFYkFCfAySkhJQvUYyGjSoiwYNaqFSVJRfcRXai9IAACAASURBVHgxBShAAQpQgAIUoAAFKECBcBI4fCQHo16baXjLFtXaYnp2zlajEgdtaPWEPambF6rhgp073Yx2bVsZ5cc8FAg7Ae1W1C1b9iLLtRP79x2CV1V1NVCgoHKVRNSrWx3NmzdAw4Z1oA23+KEABShAAQpQgAIUoAAFKECBvwt4vV482e91wzkUBU/NyHJPNSpx0IZWDrvtRwBtjWpEy6MoCqa+3hfaX3r5oQAF9BUoLS3Dym9+xaZNu1FcXKpv8PNEq1QpEnXrVkdKq0vRvHnDM48Z8kMBClCAAhSgAAUoQAEKUCDcBQYMn4qCQsOe1DvDrQCuGS53qlH2QZnu9EhLqOrxWI4b1cQ/8yTZ4jH2xZ5Gp2U+CphaoLDwNFau/AWbt+w5cz6VyE90dBQubVgXaa2b4pKLa4kshbkpQAEKUIACFKAABShAAQoIFfjhx02Y99EK42soU6s4t+bnGJE4KEOrjFa2G1QLvjGigb/meDrjPrRq0dDotMxHAVMKaK9RXbbsJ2zM2gntkUDZPtWqJyMttTFapzVFRKRVtvJYDwUoQAEKUIACFKAABShAgaAKlJd78PSAN4Ka42zBFQ9az9js3mBE4qAMrRyptnehwtBbnrQ3kE2d1M8IM+aggKkFtGejf/ghG2t/zEZpabn0vUZHV0LLFg3Qvv3lZ95MyA8FKEABClCAAhSgAAUoQIFwENBuLujVd5LhrapQume68mYZkVj3oVWPNER6PLaTABKMaOCfOWpWr4wXh3Y3MiVzUcB0Ajt3/oGvlv6EvLyCkOstIsJ65tyr9u3TkJAQG3L1s2AKUIACFKAABShAAQpQgAL+CmTOW4p167f5u6xC1yvAghku96MVCuLjYt2HVhmXxzdVvVZjxQAMeK4TLmtQ18e2eRkFKPBXAe3cqiVLfsCOnX+EPIzVaoU95TLccGNrxMVGh3w/bIACFKAABShAAQpQgAIUoMC5BPLyCjF41HuGAqnAyUyXuxqAoJ8jo/vQKt2e+JgCZZ6RYhaLBVMn9TUyJXNRwBQCZx4FXOPC99+7hB+yrjeo9tbBq65qiWuuboXIyAi9wzMeBShAAQpQgAIUoAAFKEAB4QKiHhGEQYexB2NotViBco+ROxcXF41JrzxtZErmokDIC+zffxhffrkWx0/khXwv52sgMTEON990JVq25EsaTL3RbI4CFKAABShAAQpQgAJhKvDc4MkoKSkztHuL6m08PbtgZ7CT6jq06lgXMYlVbdrfgKOCXfhf49935zW4/eY2RqZkLgqErMDp4hJ89dWP2Lx5T8j2EEjhl15aF/fdex3i43lYeyB+XEMBClCAAhSgAAUoQAEKyCmwcPG3WLnakJf5/RtAVds4s/N/CbaIrkOrJ+xJdi/UrGAX/df4iqJg8rhnERUZaWRa5qJAyAl4vSp+/XUbvlm1HqWlxk7hZcHSBlYdH7wR9evXlKUk1kEBClCAAhSgAAUoQAEKUKBCAvt+P4zXXn+/QjH8XaxAuW+GK2+xv+v8vV7XoVVGiq2HqsDQE8C0s2qmjO/tb9+8ngJhJXD48Aks+WINDh06EVZ9n61Zq9WCBx64Hs2bXRL2FgSgAAUoQAEKUIACFKAABUJfQDur+Ml+rxvbiKqOcGbnvxzspLoOrRx22yoA1we76L/Gb97kYjzXq4ORKZmLAiEjUFxcihUrfsGGjdtDpmYjCtXu0LzttqvQ5srmRqRjDgpQgAIUoAAFKEABClCAAkEV6NlnYlDj/3dwBeqcGa78x4OdVLeh1VPNqsWXRJW6AViCXfRf4w/t3xn169UwMiVzUUB6Ae0NEi7XTixfvg6ni0ulr1dUgTfdeAWuuSZFVHrmpQAFKEABClCAAhSgAAUooItAr74Toaq6hPI1yPdOl/s6Xy8O9DrdhlbpqbbWiopfAy0kkHXaYz7vTOwbyFKuoYBpBfLzi7D48x+wZ89B0/aoZ2P333cdUlIu0zMkY1GAAhSgAAUoQAEKUIACFDBUoFffSdBuXjDw87vT5b442Pl0G1plpNqeVFW8E+yC/xo/JroS3njtGSNTMhcFpBXwqio2rP8NXy9fh/Jyj7R1ylaYxaKg82O3oUGDOrKVxnooQAEKUIACFKAABShAAQr4JCBgaFXudLmjAAR1Uqbb0MqRalsJFTf6pKnTRX9r0wKPP3KrTtEYhgKhK3D6dAk+++w77Nj5R+g2IbDyqEqR6JFxL6pWTRJYBVNTgAIUoAAFKEABClCAAhQITEDA0ApWa1zctA2HTgVWsW+rdBladWlVIy7KUqydZ2X1La0+V40elo4a1ZL1CcYoFPg/9u4DPIpqbwP4O7vpbRN6kV5EFJKAKCpVEBAFBUQ6IgGULkUFVARpIlUUUEgCCNKbFBFUUESQmqUXqaHXZFMgbXe+b8IVpWZ3M3t2Z/ed77sPz3M5519+s1eTszPnaFTgTPwlLF78K1JTb2m0A9cou1ChvIjq3ATKiaS8KEABClCAAhSgAAUoQAEKaElgwEdTkZKaJrTkzDRLvu+OJF93ZFJVFq2csZ+Vl5ceU8e/50gbxqaASwso7ytv3bofP/+yw6Xr1FJx1apVxCuNn9dSyayVAhSgAAUoQAEKUIACFKAAPp80H6fOXBQqIVkyikXvu+XQzZRVWbTqGm541yJhukid4CB/jB/ZQ2RK5qKAywhkZmZh7Y9bs08I5KWuQKtW9fFEBYfvJ6hu0YxGAQpQgAIUoAAFKEABCni0QOy8H7F912GhBmbI5Wcbk/52ZFJVFq2iIgzrATRwZKH3xq5XuyrebFZHZErmooBLCKTevIVFC39B/NnLLlGPuxURFOSPnj3egL+/r7u1xn4oQAEKUIACFKAABShAATcVWLN+G1av2yq0O0mnC4/ek7DPkUlzvWjV7zn4J90yJAEQuhHM6KFdkDePwZE2jE0BlxNISk7F7NlrceOG8j85Xo4SiIwsj9ea1nJUeMalAAUoQAEKUIACFKAABSigqsDOPUcR/d0aVWPmFMxikavP2pe0Padxufn7XC9adaliqCpbsCs3Rdg6V9ko+etxfW2dxvEU0LRAQmIyZs1ag6SkVE33oZXi3+rYGKVKFdFKuayTAhSgAAUoQAEKUIACFPBggfhzlzFq/DyhAhKkutHGxN8cmTTXi1ZR4YZ3IOEbRxZ5b+zgoACMH9ldZErmooBTBZQnq2JiV/OEQIF3QXmSs3v35lAOfeBFAQpQgAIUoAAFKEABClDAlQXS0jPQ98OvhJZokdByVpxpqSOTqrFotQ4SGjmyyHtj16kZiTYtXhSZkrko4DSBlJSbmDHzBz5h5YQ7UL9eNdSoEe6EzExJAQpQgAIUoAAFKEABClDANoF33ptg24RcjpaAj6ONplG5DPPI6blatOpUB376xOz9rLwdWeS9sUd+HIX8+UJFpmQuCjhFIC0tA7Nnr8Glyzeckt/Tk/r4eKNP75YICgrwdAr2TwEKUIACFKAABShAAQq4uMC7/SZClmWBVUrzYoyJHRyZMFeLVtzPypG3hrE9XSAry4z589fj5KkLnk7h1P4rVyqL5s15UqlTbwKTU4ACFKAABShAAQpQgAI5CnTvPxEWi8hFK/lgjDHpqRwLy8WAXC1adY40vCvJmJ6L/DZP5X5WNpNxgkYFfv11J/7Yslej1btX2V27vIaiRfO7V1PshgIUoAAFKEABClCAAhRwK4Hu/SfBYrEI7SnD4hc0d99lh50WlqtFq6gIwyYAQh9BqPV8ZbR78yWhN4HJKCBa4NixeMxfsEF0WuZ7iEDx4gXxdqcmkHL1T0zyUoACFKAABShAAQpQgAIUcJzAkM9m4voNZQcncZdOtjw+c2/yMUdltPtXsE4RoaF6yAmOKuxhcYcPeRuFCuQRnZb5KCBMIDExBVOnLUVmZpawnEyUs8Abb7yIp54snfNAjqAABShAAQpQgAIUoAAFKOAEgUXLN2Hj5j1CM0uy1CJ6b+JyRyW1e9Gqa6ShvkXGz44q7EFxvb298PW4viJTMhcFhAoo7x9///1POHHyvNC8TJazQFhYCHr2aAEvL33OgzmCAhSgAAUoQAEKUIACFKCAYIEjx+IxadoSsVll/BSz1/Syo5LavWjVOdwwXpIwwFGFPShuSHAAxo3oLjIlc1FAqMC+/cexfPlvQnMymfUC9epVQ80a4dZP4EgKUIACFKAABShAAQpQgAKCBMxmM3oMmCwo279p9Hpd6IzdCSZHJLZr0WoYoIuPMMRLQFFHFPWwmC9Ur4SOrRuITMlcFBAmkJp6C19OWYyMjExhOZnINgFfX2/07dsKAf5+tk3kaApQgAIUoAAFKEABClCAAgIExJ8gCMiypWbs3uQtjmjPrkWrzpWDH5d0uiOOKOhRMT8d9BaKFMonOi3zUUCIwJo1f2LX7sNCcjGJ/QJVIh9H06Y17Q/AmRSgAAUoQAEKUIACFKAABRwk0PuDKcIfhJAhT441JvVzREv2LVpFBHeSoJvliIIeFpP7WYnUZi7RAgkJSdlPWfFyfQFJktCzZwvkyxvq+sWyQgpQgAIUoAAFKEABClDAowRi563D9l2HRPdsKhZqyjfsN6h+mphdi1ZdIkJXy5BfFakQFhqMz4d1E5mSuSggTGDVqj+wJ+6osHxMlDuBsmUeQ/v2jXIXhLMpQAEKUIACFKAABShAAQqoLHDqzEV8Pmm+ylFzDmc26yrP3p+wP+eRto2wedGqQ+WCgT76NBNkCD1Cq3GD6nit8Qu2dcfRFNCAwI0bSZjyFZ+y0sCtuqvEDh1eRpnSQrf10xoR66UABShAAQpQgAIUoAAFnCDQvd9EWGRZdOYPY4ymL9ROavOiVZeI0Doy5E1qF/KoeMrrOBNH9URAgK/ItMxFASECv/66E39s2SskF5OoJ1CwYB68+04zKP984kUBClCAAhSgAAUoQAEKUMBVBPp8OAXp6aIP+JIvJBmTii8BzGo62PzbVlRk6AjI8sdqFpFTrAB/X0wa0yunYfx7CmhOQDmSdPyE+bh1K11ztbNgoMmrNVC1agVSUIACFKAABShAAQpQgAIUcBmBJSt/wy+/7RZfj0VXKWZfwgE1E9u6aCVFRRiUjXfKqVlETrFKFi+Ewf3b5TSMf08BzQkcPXoGCxb+rLm6WfBtgZDgQPTp8ya8vIS+LU1+ClCAAhSgAAUoQAEKUIACDxVQHop4b/DXzhB6P8ZoGq9mYpsWrbpUNpSSdTipZgHWxOoR9RrCK5W1ZijHUEBTAosW/4LDh09rqmYWe7dAjRrhqF+vGlkoQAEKUIACFKAABShAAQq4jEDPgZORlaXqm3rW9HaumNFUYhhgsWawNWNsWrSKighpC0jfWxNYrTHKEwxTx7+nVjjGoYDLCCivBo75/Dtn/IPEZQzcoRAfHy/0798Wfr4+7tAOe6AABShAAQpQgAIUoAAF3EBg1IS5iD97RXgnOln/1My9Nw6qldi2RatIwwLIaK1WcmvihBqCMHb4O9YM5RgKaErgzJmLmDV7raZqZrEPFnj22Yp4udHz5KEABShAAQpQgAIUoAAFKOASAkeOxWPStCXCa5FlaUDs3sSJaiW2etGqW1V4m82hCYAcqFZya+LUeiEc7VrWt2Yox1BAUwKbftuD33/fo6maWeyDBXx8vDGgfxv48mkrfkQoQAEKUIACFKAABShAARcR6N5/EiwW1d7Us7ar4zFGU3kAsrUTHjXO6kWrThEh1fSQdqiR1JYYo4d2Qd48BlumcCwFNCEQE7sKZ53wuKYmcDRYJJ+20uBNY8kUoAAFKEABClCAAhRwY4GBn0xHcvJN8R3q5HIxe5KOq5HY6kWrqCqh/WCRVXvEy5ri/f18MfnzXtYM5RgKaEpAWe0eNXoOlH2teLmHgL+/LwYOaAe9XuceDbELClCAAhSgAAUoQAEKUEDTAlv+2o+5CzcI70GG5e1YY/JsNRJbv2gVHrIZklRTjaTWxihSKB8+HfSWtcM5jgKaEbh6NRFTpy3VTL0s1DqBhg2r47nqT1k3mKMoQAEKUIACFKAABShAAQo4WMBJrwhuizGaVNn016pFq25VwwxmsyXRwZb3he/QugFqVK8kOi3zUcDhAgcPnsSSpRsdnocJxArkyxeKXj3fEJuU2ShAAQpQgAIUoAAFKEABCjxEYODH05Cccku4j9k7q/DsnamXcpvYqkWrqMohjaCT1uU2mS3z9Todpk54D5JkVYm2hOZYCjhdYPMfRmzcuMvpdbAA9QXe6tgYpUoVUT8wI1KAAhSgAAUoQAEKUIACFLBRYOPmOCxa7owHJqRmMcbElTaWe99wq1aEoiIMowEMzm0yW+aHhARi3Gfv2jKFYymgGYFVq/7AnrijmqmXhVov8ESFkmjViieeWi/GkRSgAAUoQAEKUIACFKCAowRkWUaPAZOFnyIoy1gRu9fUPLd9WbdoFW7YBQlVc5vMlvkRlcqie9RrtkzhWApoRmDOnLU4dfqiZuplodYL+Pn74oOB7aDTcUN269U4kgIUoAAFKEABClCAAhRwlMCAj6YhJVXsK4IyICf7Bwcu2XYuV4lzXLTq/Hi+YMk/M8lReA+LO6hfW5QqUVh0WuajgBCBSZMXwmRKEZKLScQLtGheF5UqlRGfmBkpQAEKUIACFKAABShAAQrcI7Du5+1YuXaLcBeLRa4+a1/S9twkznHRKioytBZk+ffcJLF1rq+vN6aM7WPrNI6ngGYERoyMhdls0Uy9LNQ2gbJlH0P7do1sm8TRFKAABShAAQpQgAIUoAAFHCBgkS3o2X8yLLLsgOgPDylJ0sDouMQJuUma46JV58jQAZIsj89NElvn5s8XipEfR9k6jeMpoAmBzMwsjBo9WxO1skj7BIKDAzCgf1v7JnMWBShAAQpQgAIUoAAFKEABlQX6DZmKmzfTVI6aQzgJu2PiTE/nJmmOi1ZREYa1ABrnJomtcxs3qI7XGr9g6zSOp4AmBJKSUjFx0gJN1Moi7Rfo3asl8uY12B+AMylAAQpQgAIUoAAFKEABCqgksHjFJvz6+x6VolkfxgwpbLYxMdH6GXePfOSiVUtAHxxhSJYAf3sT2DNv4qgeCAwUmtKeMjmHAnYJXLmSgGnTl9k1l5O0I1C3blXUrhWpnYJZKQUoQAEKUIACFKAABSjgtgIZGVno8+EUKKcJirwssLwwy5i81d6cj1y06lIlrLJssey1N7g98wID/DBxdE97pnIOBTQhcO78FURHr9JErSzSfgHua2W/HWdSgAIUoAAFKEABClCAAuoL9Bv8NW7eSlc/8CMjyj1jjEnT7E366EWryJA2sizNtze4PfMKFciD4UPetmcq51BAEwJn4i9h1qw1mqiVRdovUKBAGHp0b2F/AM6kAAUoQAEKUIACFKAABSigokD0d2uxc88RFSNaE0paG2NMfNWakQ8a88hFq6jw0BGQ5I/tDW7PvEb1n0GzV2vaM5VzKKAJgRMnz2Pu3HWaqJVF2i/g5+eDQR92tD8AZ1KAAhSgAAUoQAEKUIACFFBRQNmq5pPRsSpGtCpU5olQU8BvvyHLqtH3DHr0k1YRoatlyHaviNlTkHJqoHJ6IC8KuKvAsWPxmL9gg7u2x77+IzBwQFsEBQXQhAIUoAAFKEABClCAAhSggEsI9P5gCjIyMoXWIul04dF7EvbZk/TRT1pFGPYDeMqewPbM8fP1wZdje9szlXMooBmBw4dPY9HiXzRTLwu1X6BD+0YoU+Yx+wNwJgUoQAEKUIACFKAABShAARUFBg2bgYTEZBUj5hxKkuS3ouOSvst55P0jclq0Uo4lFHZme768Boz6pIs9fXAOBTQjcPjwKSxa/Ktm6mWh9gu81rQWIiPL2x+AMylAAQpQgAIUoAAFKEABCqgo8MOaLfjxl+0qRsw5lAQsjjaaWuU80oZFq95l4XszyJBmT1B751SrWgFdOrxi73TOo4AmBA4dOonFSzZqolYWmTuB+vWqoUaN8NwF4WwKUIACFKAABShAAQpQgAIqCSSYUjDo029VimZ1mJvFjKbgYYDF6hn/G/jQJ606RYSG6iEn2BowN+NbvlYH9etWzU0IzqWAywscPHgSS5Zy0crlb5QKBdauXQV161RRIRJDUIACFKAABShAAQpQgAIUUEeg9/tfIiPTrn3R7S7AIpmfnBWXcsjWAA9dtOryVGBB2cvrkq0BczP+5Zeeweuv8OTA3BhyrusL7N9/AsuWb3L9QllhrgWUp6yUp614UYACFKAABShAAQpQgAIUcBWB9z+ZjqTkm0LL0UFuP9OY9L2tSV1q0apUiUIY1K+drT1wPAU0JRAXdxQ/rPpDUzWzWPsEataMQL0Xn7ZvMmdRgAIUoAAFKEABClCAAhRwgMCseevw1y6bH3rKVSUysDTWaGppa5CHLlpFPRmSB97SdVsD5mZ83jwhGD20a25CcC4FXF5gx85D+PHHrS5fJwvMvQBfD8y9ISNQgAIUoAAFKEABClCAAuoKnDpzEZ9Pmq9u0JyiybDovUx+M3YjM6eh//37hy5adauKALPZkGpLsNyO9fPzwZef985tGM6ngEsLbN26Dxt+3uHSNbI4dQTq1q2K2rUi1QnGKBSgAAUoQAEKUIACFKAABVQS6DlwMrKyzCpFsy6MBZYXZhmTbXqC46GLVkrKqIjsRasA69KrM2rkJ1HInzdUnWCMQgEXFPh9cxw2bdrtgpWxJLUF6tWrhpo8PVBtVsajAAUoQAEKUIACFKAABXIpMPDj6UhOEbuvlQx8FGs0jbal9EcuWnWOMJySgJK2BMzt2Ib1nkHzJtyMPbeOnO+6AuvWbcX2HWLfH3ZdDfeu7OWXn8Ozzzzp3k2yOwpQgAIUoAAFKEABClBAcwKTpy/B4aPxouveF2M0hduS9NGLVuGGXyUJL9oSMLdjC+YPw2cfdc5tGM6ngMsKLF7yKw4dOuWy9bEw9QSavV4b4eHl1AvISBSgAAUoQAEKUIACFKAABVQQMO77G9NjV6kQybYQmXLGY9/tvXXe2lk5PWn1rQR0szaYGuMCAvwwaXRPNUIxBgVcUiB21hrEx19yydpYlLoCrVrVxxMVhD6sqm4DjEYBClCAAhSgAAUoQAEKuKWALAM9BkyCxWIR2p8s4Y3YONMya5PmsKdVSF9AmmxtMLXGTfq8FwL8fNUKxzgUcCmBL6csRkJCkkvVxGIcI9CxQ2OULl3EMcEZlQIUcJrAlSs3sHHjbpw4eT77Bz2LRYas/OQHQMr+yUqCTidBr9cjIrw86tWvCl8fH6fVy8QUoAAFKEABClDgQQLO2NcKwMwYo8nqh6Nyej2wgSRhvejb+8ZrtfFS3adFp2U+CggRGD16NjIys4TkYhLnCvTo3hwFCuRxbhHMTgEKqCKQknIT8xf8jMuXrsNsxzeSXl56VHv6CTRo8Cyk2ytbvChAAQpQgAIUoIBTBabH/ADj/uOia7gaYzQVsDbpI39q6lY1rLjZbDljbTC1xpUqXgiD+rdTKxzjUMBlBDIyMjF6zByXqYeFOFbgww86wN+fT406VpnRKeBYgT17juCn9X8hI0OdLxuUJ7BCDcGIimqKwEA/xxbP6BSgAAUoQAEKUOARAqfPXMSYSfOFG8kWS4XYfclHrUmc01d9UlSEIRFAiDXB1BoTagjC2OHvqBWOcSjgMgI3EpIxZcoil6mHhThOQKfTYegnPFTCccKMTAHHCSgv+v311/7sVwAzHfRkrPKwVWhoCLp2aQplP09eFKAABShAAQpQwBkCvT+YAuXhCqGXLHWM2Zs415qcOS1aoUuk4SdZRkNrgqk1xtfXG1PG9lErHONQwGUEzp69jJjY1S5TDwtxnIDyhJXypBUvClBAWwIHDp7EDz9sdthi1b0ayquChQrlQVTnplBeIeRFAQpQgAIUoAAFRAoMHj4DysMVIi8ZWBBrNLW1JmeOi1adI0MHSLI83ppgao4ZN6I7QoID1AzJWBRwusCRI2ewcNHPTq+DBTheICwsGH37tHJ8ImagAAVUEbh85QZmz16LW7fSVYlnaxC9Xoenqz6BRo2qc88rW/E4ngIUoAAFKEABuwVWrt2CdT9vt3u+PRMlIGWm0RQiAbdPsnnEleOiVVRkaC3I8u85BVL779/t/BoiK5dVOyzjUcCpArt3H8HqNVucWgOTixEoVqwgojo3EZOMWShAAbsFbt5MQ2zsaly7brI7hpoTfXy80ez12njiiZJqhmUsClCAAhSgAAUo8EAB5WehfkOmCtcxQ4qcbUw05pQ4x0WrDpULBvro0lJyCqT2379c/1m8/moNtcMyHgWcKvD75jhs2rTbqTUwuRiBChVKonWr+mKSMQsFKGCzQFamGYuW/IITJ87BYsnxSz6b4+d2QnBwQPYrg6GhQbkNxfkUoAAFKEABClDgkQL9h0xF6s00oUoy0C3WaJqZU9IcF62UAFERhr8APJtTMDX/vmKFEuj77htqhmQsCjhdYO2PW7Fz5yGn18ECHC/wwguV8VL9ZxyfiBkoQAGbBCwWC35ctw1G4zFkZZltmit6sLLfVdEi+dChw8vw9fURnZ75KEABClCAAhTwEIGR477D2fNXxXYry3Nj9iZ1zCmpdYtW4aHDIclDcwqm5t/ny2vAqE+6qBmSsSjgdIFFi3/B4cOnnV4HC3C8QPNmdVCZrzg7HpoZKGClgLJYpZwGuGPnIfEn5FhZ48OGKftdPflkaTRtUpObtefSktMpQAEKUIACFLhf4M+/9uO7hRsE00jnYoyJxXJKat2iVeWQRtBJ63IKpubfhxqCMHb4O2qGZCwKOF1A2eT39JmLTq+DBTheoH+/NggJCXR8ImagAAUeKZCZmYU1a7dkf2GQkZGlaS3ldMHSpYugRfO6fPJK03eSxVOAAhSgAAVcS8BsNqPX+1OgfMkn8pKlzKKxcTcvPCqnVYtW3aoGFDabvR8ZSO3G7vw8YgAAIABJREFUlL0cxo/ornZYxqOAUwViYlfh7NkrTq2ByR0vEBDghw/eb+/4RMxAAQo8VEDZVHTpsk2Ij7/k8q8B2noblSev8uQJQaOG1VGmzGO2Tud4ClCAAhSgAAUocJ/AB0O/gSkpVaiMRZYbzdqbtD7Xi1YApKgIw2UA+UV1EBjgh4mje4pKxzwUECLw7YyVuHjxmpBcTOI8gaJFC6Brl6bOK4CZKeDBAsomogsXbMD5C9eEf1voDHY/Px+ULFkEjRs/h5BgPt3pjHvAnBSgAAUoQAF3EPjq2+U4cPiU0FYkSeobHZc4RY1FK3SJCFktQ3pVVAdctBIlzTwiBaZNW4YrVxNEpmQuJwhUDi+L5q/XcUJmpqSA5wpkmc1Ys/pPHDh4wu2erLLmriqbtitPqVetWgHKQRBeer010ziGAhSgAAUoQAEKZAscPHwKU75dLlhDnhNjTOqkyqJVVKThc8j4UFQHXLQSJc08IgW++noJrl83iUzJXE4QaNumAcqXL+6EzExJAc8UOPb3WaxY8Rtu3Ur3TIB7ulb2vlIOtKlf/xmULcvXB/mhoAAFKEABClAgZwFZltFr4JdQvggUd8kHY4xJT6myaNU5IuRTCdIwUcUHBfpjwqgeotIxDwWECHw7YwUuXrwuJBeTOEfA29sLgwd1hE6nc04BzEoBDxLIyMzCokU/48SJ8x7UtW2t+vv7omTJwmjYoDpCQ4Nsm8zRFKAABShAAQp4lIAT9rWyXEgxBaw7jod+82jVRuzKXYqKMCz+/yfGWoq6Y8q+DONGvCsqHfNQQIjArNlrcObMJSG5mMQ5AsWLF0Tnt5s4JzmzUsCDBC5euoa5c3+CsuE6r5wFlNcHDYYg1KkdiYiI8jlP4AgKUIACFKAABTxOYMzE73E6Xuzvq7IZZWL3m04+DNuqRauWLaEP+Ts0CZADRN21sNBgfD6sm6h0zEMBIQLKSVYHDpwQkotJnCNQu3YV1K1TxTnJmZUCHiLw55/7sHHTLpjNYo9ldhfewEA/hIeXQ70Xq0E5iZAXBShAAQpQgAIUUATWrt+GVeu2isWQpNoxcYmbc7Vo1TUipJoF0g6RlRfMH4bPPuosMiVzUcDhAj//vAN/bt3n8DxM4BwBnU7C+wPbQ3kdhxcFKKC+gLLXwvIVv2H/fi7+q6Gr/LPq+ecqo0aNylCexOJFAQpQgAIUoIBnC5w9dwUjx88VjCC3izEmzc/VolWXyJApsiz1Fll5ZHg5vPs2j4wXac5cjheIMx7DDz88dBHZ8QUwg0MFlH1jOr31ikNzMDgFPFUgMzMLc+etQ3z8ZU8lcFjfyqmDzZvVQalSRRyWg4EpQAEKUIACFHB9AWdsxi7JGBy91/S53YtWnV/IFyylZFyBJPmJJH6jaW289OLTIlMyFwUcLnDhwjXMmLnS4XmYwDkCzZvXReVKZZyTnFkp4MYCqam3EBu7Btdv8PRVR91m5UmrJ54omb14pZw+yIsCFKAABShAAc8U6D9kKlJF7hkqSV/HxCU+9CGpHJ8F7xJpiJJlRIu+XcMHv41CBfOITst8FHCogMUiY+wXc5GenuHQPAwuXiAoKAD9+7XmqYHi6ZnRzQWuXk3A7Dk/Qlm44uV4geDgQHR6qzHy5jU4PhkzUIACFKAABSjgcgKDhs1AQmKyuLpkLIvZa3rjYQkfuWg1DNCdjTAou7iXEFcxsr/hmzr+PZEpmYsCwgSWLtuIAwceejiCsDqYSF2Bei8+jZo1I9QNymgU8HCBs2evYN7365CenunhEmLb9/PzQatW9VGqJF8XFCvPbBSgAAUoQAHnC3w6ehYuXbkhsBD5zxhjUg27Fq2iIkJfB+QVAqvNThUSHIBxI7qLTst8FBAicOxYPOYv2CAkF5OIEVD2g3mvbyvo9XylRow4s3iCwOkzFzF//npkZGR5Qrsu16PeS5/9quCTFUu5XG0siAIUoAAFKEABxwmMnbwAJ09fcFyC+yOfijGaStu5aGXYCUD4xlIlihfEkP7tRSIxFwWECShHtH85ZRGSklKF5WQixwq8VP8ZvPBCZccmYXQKeJDAyVMXsGDBBiibr/NynoDy5Hu7dg35xJXzbgEzU4ACFKAABYQLzJyzFrvijojMeyPGaMpr86LV25GhtXWy/JvISv/J1fbN+qj9fLgzUjMnBYQI7NlzFKtW/yEkF5M4ViBfvlB0f7c59HqdYxMxOgU8ROD48XNYuOgXZGVxwcoVbrmvrw86v/0qCnKfUVe4HayBAhSgAAUo4HCBZas2Y8NG5fklYVdGjNHka/OiVVRE6BpAFn52u/KL35SxfXhyjbDPBxM5Q8BsNuPbGStx5UqCM9Izp0oCEiRERTXBY48VUCkiw1DAswWOHD2DpUs3IivL7NkQLtZ9SEggevZ4A76+3i5WGcuhAAUoQAEKUEBtgV9+240lK8U+v1Qs1OQ97Dc88BvLB27E3qVKWGWLxWKUgBxPF1QbKE9oMMYM66Z2WMajgMsJXLhwFTNm/uBydbEg6wWqVq2AJq8+dM9A6wNxJAUogMNHTmPp0k1QFvV5uZ7AE0+URKs367teYayIAhSgAAUoQAFVBbb8tR9zF4rdgznNV2/4fvuNpAc18sBFqagIwzQATtkJvdYL4WjXkj8UqfqpYzCXFdi6bT82bNjusvWxsIcLhIUFo0f3FvD29iITBSiQS4FDh05h2fLfuGCVS0dHT2/88vN45pmKjk7D+BSgAAUoQAEKOFFgl/EYZs5eLbQCKSurUPSB1MtWLVp1r2QIy9TjvAz4C60Stx/rGvNpNyi/DPKigCcIyLKMVav+QJzxmCe06zY9KpsTd+36OgoWCHObntgIBZwlcHvBSnnCyuKsEpjXSgFlkV5ZrOfPaVaCcRgFKEABClBAgwIHj57GlOnLhFYuWVA6ep/plFWLVl0iQ/rIsvSl0Ar/lyzUEISxw99xRmrmpIDTBJRXYZQnDJRf3HhpQ6DZ67URHl5OG8WySgq4sMDBQyexPPsJKy5YufBtuqu0smUfQ/t2jbRSLuukAAUoQAEKUMBGgZOnL2Ds5AU2zsrdcItkfnJWXMohaxatpKgIw3EApXOX0r7ZDV+shuZNa9k3mbMooGEBZdPhNWu2wLj3bw134RmlP121Al7lPlaecbPZpUMFDhw4iRUruWDlUGQHBW/Roi4qPVXGQdEZlgIUoID7CChvVdy4kZT9n7T0DKSlZSAjPQMWGYAsK/8PZUz2/8m33zzS6XTQ6STovfTw8/WBr5939p8hIUEwGAK5NYX7fDxctpOLl65j2OezhdYn6fB09B7T7hwXrTpHBj8nybqtQqv7XzLldZuJo3vC14cn0zjDnzmdL2CxWLBly15s3PTA/606v0BWgAoVSqBly3rQ63TUoAAFciFw9OgZLF7yK5+wyoWhM6cqpwn27dMKyonPvChAAQpQ4LaAxSLj3LnLUP4dd+78VZgSU5Ccckv1/RqVV7WDAv0RHBKAkOBAlCxVBBUeL4GgIOG7+/DWu6lAgikZgz6dIbQ7WbI8HxuXvC3HRauoiJDJgNRXaHX/S1akcF58+mEnZ6RmTgq4lEB8/CUsWvwLUlPTXKouTy+mVMkiaNeuIZQFdl4UoID9AidPXcCCBRuQmfnAU43tD8yZQgXq1XsaNWtECM3JZBSgAAVcTSA9IxP79h3H4cOnoZwMrjxJ5YxLkpD9JFbRovnxTLWKKFmysDPKYE43Ebh1Kx3vDf5abDeSuXZMXMrmRy5a1akDrzKJhosA8omt7na2/j1b4vFyxZ2Rmjkp4HICN2+mYfXqP3D4yBmXq80TCypSJD/e6tgYvr58EtQT7z97Vk/g3PkrmDt3HdLTM9ULykhOEfDz88F7fVtD+ZMXBShAAU8T+Pvvs9ix4xBOn7nokl/CKK8RVqxYCvVerMYvXD3tw6lCvxazBd0HTFIhkg0hJNSPiTP9+shFq87hhgaShPU2hFVtKDdgV42SgdxIQHm//dixs1izdguSk2+6UWfaaqVYsYJo26YB/P19tVU4q6WAiwlcuZKA2XPWQlmU5+UeArVqReLFulXdoxl2QQEKUCAHgYSEZGz76wCOHDmNpKRUTXgprxIqexA2erk6fLz55asmbpqLFPluv4nZ+60Ju3TyyzF7kn565KJVVGTIBMhSf2FF/SdRsyY10ajeM85IzZwUcHmBjIxMbN9+MHuvK6H/4HB5GccXqJyS9WbLevDhXnuOx2YGtxZITExGdMxqpKRwAd6dbnRAgB/692vDb/Hd6aayFwpQ4D6BgwdPZv8sfvbcFc3+LK78LPvCC5VRu1Yk7zAFrBLo0X8SzBaBpztbLE1j9iWvfvSiVUTofkB+yqoOVBykPL0wcVSP7FMSeFGAAg8XSExMwZ9b92HnzgeeBEo6lQWerFgazZrV5i9jKrsynOcJKHtXfTtjJa5dS/S85j2g44YNquO554T/+OgBsmyRAhRwpkBaWjq2btuPvXuPw2RKcWYpqubOmycEzZvXzd77ihcFHiXQc+BkKCfci7okndQiek/i8ocuWvWoGFgo3cfrAm6fsin0ev7Zp/BWm4ZCczIZBbQsoCxeKf8S3bHjoJbbcOnalW+hateukn3cMC8KUCB3AvMXbMCxY/G5C8LZLisQGhqUfZKgpOwCzIsCFKCAxgVOnDiP3XuOQNmzyl0PDFH+ef3sM0+iUaPqGr9bLN+RAr3f/xIZAg/NkXRoHb3HtOihi1ZRkSGtIUsLHNn0g2Ir79iOH9Gdm3iKhmc+txBQvvX5U1m82s7FK7VuqHIyYLNmdfBkxVJqhWQcCni0wKbfduP33+M82sATmn/9tVqIiCjvCa2yRwpQwM0EMjPNOHnqPI4cPo3jx88h2YNeYy9QICz7oKHAQH83u6tsRw2BPh9+hfR0kadhSp1ijIlzHr5oFWGYBqC7Gs3ZEuPJCiXR590WtkzhWApQ4B4BZfFq27YD2e/ayxC4WZ6b3QnlaYFWrV5C4UJ53awztkMB5wicOXMJ3333o9j9EJzTqsdnLVAgD3p0b+7xDgSgAAVcX0DZQP306YuIP3sZFy5cw+XL12E2C9y3x8WIvL31aPlGPZQvX9zFKmM5zhZ4b/DXuHUrXVgZkoQe0XGm6Q9dtOoSbtgmSxD6fKBep8PIT6KQJyxEGAQTUcCdBZR/CSsnmvz11wHNbhLprPvz1FNl8Morz8PfjycEOuseMK97CSgHSEybtgyJbrQPiHvdIfW7ade2IcqVK6Z+YEakAAUoYKdARkYWzsRfxJnTl3Dx0nVcuXKDJ3I/wFJ5u1vZFqNO7Sp2SnOaOwoM+GgaUlJvCWtNlqSBsXGJEx64aDVsGHRnV4YmA3KAsIoAlChWEEMGtBeZkrko4BECqSm38NeOg9j65z4+4ZDDHVdeB3yl8QvZr7VwOxaP+J8HmxQksPKHzTAajwnKxjSuIFC2zGNo376RK5TCGihAAU8VkIFTpy/gyJEz2Sf9Xbp0HRaRp59p3L1KlcfRtElNjXfB8tUS+GDoNzAlpaoVLsc4MuThscakYQ9ctOpW1a+42ex7JscoKg94v09rlC1dVOWoDEcBCvwjkJp6C3/8YcRf3PPqgR+KYsUKQtmHJW9eAz80FKCAigLnz19FTOwqWCx8XVlFVpcPpZwC3af3m1BeteZFAQpQQKSA8ppfXNxRHDl6hk9S5RJeeWK2bZsGPFwjl47uMH3QsBlISEwW2cq0GKOp5wMXrbpGBtW2yPrfRFYTagjC2OHviEzJXBTwWIGEhGRs2rQb+/Yf91iD/zauPF31Uv1nUK3aE1B+yeJFAQqoKzBj5srsfUJ4eZ7As88+iZcbPed5jbNjClDAKQLx8ZewcdNunDlzETK/J1HtHij7u3bp8hr0ev6crBqqBgN9PCIaV6+bhFUuA0tjjaaWD1y06hwZ0lGSpQfu0u6oCms+VwntWzVwVHjGpQAFHiCg/BK5fsNfUDZH9tSrTOmieOWVF5AnD/fS89TPAPt2rICyOL58udDvwRzbEKPbJBAQ4IcB/dvyFx2b1DiYAhSwVSDLbMaqVX9g//4T3MfVVjwrxwcHB6BXr5bw9fG2cgaHuZvAsDGzcfHydXFtyfIfMXuTaj1w0SoqPLQfJHmiuGqA0UO7Ii9/aRRJzlwUyBaQZTn7Pf/1G7YjUezjnk69A8q/eBs1rI6KFUvxcWen3gkmd3eBb75dkb2HCC/PFWjyag1UrVrBcwHYOQUo4FAB5dTs2FlroPzJy7ECAf6+6NPnTfjxoCLHQrto9C++XIgTp84Lq04G/o41mso/eNEqMnQEZPljUdUEBvph4qgHvqooqgTmoYDHCyibUu7ecxS//bYbqalpbuuh1+tRvfpTqFUzAr6+/KbIbW80G3MJgb//Povv5693iVpYhPMEihTJh25dX3deAcxMAQq4rYByUva06cuQlpbhtj26WmN+fj7o3etNKL/D8/Isgdjv12H7zkMim06OMZoe+DqM1DkiZJIE6T1R1eTPF4qRH0eJSsc8FKDAIwTMZjN27DiE3zfHudUPADqdlP1Nf82akQgJFnowKj9vFPBYgdhZqxEff9lj+2fj/wr07NEC+fOHkYQCFKCAagKZmVmY8tVibrSumqj1gXx9fdCr1xsIDuLP1NaraX/k6nVbsWb9NqGN6PWBgTN2X7h5b1IpKsIwFUAPUdUULJAHnw15W1Q65qEABawQUPYG2LP7KLZu26/p1wa9vb1QuXJZ1HghHGFhwVZ0ziEUoIAaAhcuXsPMmSu5Ea4amG4Qgxuyu8FNZAsUcDGB6d8sw+XLCS5WleeU4+PjhV49WyIkJNBzmvbwTrfvOozYeT8KVbBk6YvPOnDj7P2LVpGGbyBD2FF++fOGYuQnfNJK6N1nMgpYKaDseXXw4Ens2HkYyoksWrny5QvF008/gciIclC+DeJFAQqIFVi48Ofso8Z5UUARCA0Nxnt9WxGDAhSggCoCP67bmv1mAC/nCihfDiv/bA8M9HduIcwuRODUmYv4fNJ8IbnuJJGlKjF7E+PuW7QS/Xqg8ljh+JHdxTbPbBSggM0C164lYteuIzDuPeaSrw4qJwBWqFACT1YsDWUPFUmSbO6REyhAgdwLJCam4KuvF8NstuQ+GCO4jcA73V5H4cL53KYfNkIBCjhHQHmSNzp6FZT9WHk5XyAgwBd9+7TmXrHOvxUOryAlNQ0DPlJeyhN3SUCDaKPp5/sWraIiDCMBfCSqFC8vPaaOF7aFlqi2mIcCbiugPH116tQFHDp8GkePnnHaXgLKRpDFixVC8eIFUbbsYyhUMC/AdSq3/dyxMe0ILF22EQcOnNROwaxUiEDt2pGoW6eqkFxMQgEKuK/AuPHz3PrQIC3eudDQoOxXBZXf63m5t0D3/pOELhhLktw2Oi5pwYMWrQYDGC2Se8ynXZEn7IEbw4ssg7koQAE7BC5cuIYzZy4i/uwVnDt32SGLWAEBfihQICx7I99CBfOgSNH82X/yaSo7bhinUMCBArefsloC5VAHXhT4r0CpUkXwVsfGRKEABShgt8DGTbuxefN9bwrZHY8T1RMoVCgvunZpCuWkbl7uK9D3w6+Qli7utE6LJPedFZc05QGLViF9AWmySOp2b9ZHrefDRaZkLgpQwEECyck3obxKeO26CTdumGAypeLWrXSkp2XAbLFkvzKknOan1+mg0+ug0+ng4+MNfz8f+Pr5wM/XB0HB/ggLDUZoWEj2n76+3g6qlmEpQAE1BZYu3YgDB/mUlZqm7hLL398XH37QwV3aYR8UoIBgAeW0wC/GzYPyJy/XFFC+nOjQvlH2z/a83FNg4MfTkZxy32F+jmx2VIzR9PGDFq3aAtL3jsx8b+zwp8qgR5fXRaZkLgpQgAIUoAAFVBTgXlYqYrppqP792vCkKTe9t2yLAo4WWLBwA44ejXd0GsbPpYByENIrjZ/n2xC5dHTV6YOHz8CNhGRx5UmIjYkz3Xdqn9SlSnBN2aLbLK4SoPD/70UzbHAnkSmZiwIUoAAFKEABFQUWL/kVhw6dUjEiQ7mbQKtW9fFEhZLu1hb7oQAFHCyQkZGJsV/M46vnDnZWK/xrr9VCZER5tcIxjgsJDB0di8tXEkRW9GOM0fTKvQmlqMjQEpDl0yIrCQz0w8RRPUWmZC4KUIACFKAABVQSMCWmYApPDFRJ033D1KwRjnr1qrlvg+yMAhRwiMDixb/i0GF+KeIQXAcF7dmjRfZetLzcS2DkuLk4e/6KyKbiYoymKvctWnWrCm+z2XALgMBd1CRMGt0DymbLvChAAQpQgAIU0JbA4sW/ZJ8oyosCjxJ46qkyeKNFXSJRgAIUsFrAYrFg9Jg5yMriAR9Wo7nAQF9fHwzo3yZ731pe7iMwdeYK7BO4d6kE6WK0MbHIfYtWyn8RFWFQlrKFPr8d1fEVPFOlgvvcUXZCAQpQgAIU8AABkykFU75anH3IAi8KPEqgdOmi6NjhZSJRgAIUsFqAJwZaTeVyA8uWK4Z2bRpwfyuXuzP2F7R4xW/49ffd9gewfaa5mNHkMwy464dMSYnTOSJktQTpVdtj2j9DWbBSFq54UYACFKAABSigHYFFi3/BYT5lpZ0b5sRKlSPR332nmRMrYGoKUEBrAmM+/w7p6RlaK5v1/k/gzZb1ULFiKXq4icBvW+KwYOlGod3o9Zb8M3YnX/tv0uxFq6gIw2gAg0VWU7RIPgz94C2RKZmLAhSgAAUoQIFcCCQn38TkLxfyKatcGHrSVIMhCP3ea+1JLbNXClAgFwLx8ZcRO2t1LiJwqrMFJEh4//123AbI2TdCpfyHjpzGl98sUymalWF0crmYPUnH71u06hoR0s4CaZ6VYVQZZggJxBefvatKLAahAAUoQAEKUMDxAqtXb8HuPUccn4gZ3EJA2bv0g/fbu0UvbIICFHC8wJdTFiEhIdnxiZjBoQLFixfE251e5WuCDlUWE/zq9UR8PCJGTLL/ZZF0eDp6j+mudxJvvx4YGRouybJRZDV6vQ5fj3sPOl12CbwoQAEKUIACFHBhAbPZjAkT5+PmzXQXrpKluZKAt7ceHw1525VKYi0UoICLCqSlZeCLcXNhscguWiHLskXgrY6NUarUfftp2xKCY11AIMtsRs8Bk4VWIuulF2N3J276b9LsFSPlBMEssyFFAnxEVjT0w7dQtHA+kSmZiwIUoAAFKEABOwS2bduP9Ru22zGTUzxZ4NOhUfy23ZM/AOydAlYKLF6yEYcOnbRyNIe5uoC3t1f2k7bKn7y0LdBjwCTB20JIzWKMiSvvW7RS/ouoCIPyk+gzIkk7tG6AGtUriUzJXBSgAAUoQAEK2CEwY8ZKXLh4176YdkThFE8T+PijTvDy4i8tnnbf2S8FbBUYNXo2MjOzbJ3G8S4sUK9eNdSsEe7CFbI0awT6fDAF6RmZ1gxVaYzUKcaYOOdhi1ZTAfRQKZNVYWo+VxntW71k1VgOogAFKEABClDAOQI3b6Zh/ITv+dqGc/g1nXXQoI7w8xX6IL+mvVg8BTxR4OiRM1iw6GdPbN3te/7wgw7w9/d1+z7ducH+Q6Yi9WaasBZlWeoTuzfxqwcuWnWubIiSdIgWVg2AkiUKYXC/diJTMhcFKEABClCAAjYKbNy4C5v/ELr1pY0VcrirCrw/sB0CA/1dtTzWRQEKuICA8qVISsotF6iEJagt8NxzldCwwbNqh2U8gQIfDP0GpqRUYRllSR4aG5c04oGLVl0qGarKeuwSVg2AQgXzYPhgbtAp0py5KEABClCAArYKfDtjBS5evG7rNI6nAAb0b4fgYC5a8aNAAQo8WCA9PQOfj50LWeYG7O76GVH2tlJOk+WlTYHBw2fiRkKSuOJleWLM3qQBD1y06l0WvjeDDMoZo96iKsqbx4DRQ7uISsc8FKAABShAAQrYKKCc5DTm8znca8RGNw6/LcBFK34SKECBRwksW7YJ+w+cIJIbC9Sv9zRq1Ihw4w7du7VPRsXiytUEgU3Ks2OMSXc92ZR9euA/V1SEIQ6AsE9USHAgxo14VyAAU1GAAhSgAAUoYIvAuXNXEB2zypYpHEuBOwJctOKHgQIUeJTAyFGzkJVlJpIbC0iShMGDOsLHR9izMW6sKb614WPnCD6IR/4hxpj0+n87vXvRKtywABJai6II8PfFpDG9RKVjHgpQgAIUoAAFbBTYvDkOGzfttnEWh1PgtgAXrfhJoAAFHiZw8eI1fDvjrpPtieWmAm3bNkD5csXdtDv3bmvUhHmIP3tZZJObY4ym2g9dtOocEfKpBGmYqIq8vb3w9bi+otIxDwUoQAEKUIACNgosWvwLDh8+beMsDqcAF634GaAABR4tMGPmSly4cI1MHiCQJ08IevdqCeWpK17aEvjym6U4dOSMsKIlGfuj95oqP3zRKjKkoyRLc0RV5KXXY+qE90SlYx4KUIACFKAABWwUmD1nLU6fvmjjLA6nABet+BmgAAUeLTBiZCzMZguZPESg33utYTAEeUi37tPm7PnrsG3HIYENSedijInFHrpoFRUR9gpgWSOqIr1eh2kT+olKxzwUoAAFKEABCtgoEB39A86dv2rjLA6nABet+BmgAAUeLpCekYkxY4Q9K8Fb4QICdetURe3akS5QCUuwRWDFmj/w0y87bJmSy7FSaowx8a7Vzbuez3s7PKShTpJ+ymUWq6fr9XpM45NWVntxIAUoQAEKUEC0wMzoH3Cei1ai2d0mX/9+bRASEug2/bARClBAHYG4PUfxw+o/1AnGKJoQ0Ol0GDL4LXh56TVRL4u8LbBx8x4sWr5JKEdShsl3ySFk/JP07kWrSMMbOhlLRFXEPa1ESTMPBShAAQpQwD6B2FmrER8vdANO+wrlLJcUUPYwyZvX4JK1sSgKUMB5ArNmr8WZM3z13Hl3wDmZu3V9HUWK5HNOcma1S2C38RhmzF5t11w1WTl6AAAgAElEQVR7J1kkc4FZcSl3HvO/a9Gqc6ThXUnGdHuD2zrP19cbU8b2sXUax1OAAhSgAAUoIEjg+/nr8fffZwVlYxp3E3j3nWYoVCivu7XFfihAgVwKjBo9G5mZWbmMwulaE3iyYim0bFlPa2V7dL0nTl3AF18uEGogWywVYvclH/0n6V2LVlHhIR9DkkaIqigo0B8TRvUQlY55KEABClCAAhSwUeDnX3bgzz/32TiLwylwW6Dz201QvHhBclCAAhS4S2DkqFnIyjJTxQMFlFcEfXy8PbBzbbZ8IyEJg4fPFFq8pJOfi96T9NcDF626hIdOkSW5t6iKwkKD8fmwbqLSMQ8FKEABClCAAjYKnDx1Ht99t87GWRxOgdsCbVq/hMcfL0EOClCAAncJjBg5C2YzF6088WPxTrdmKFyYT+Bq5d6bLRb06D9JaLmyJDeOjUu688PnPU9aGRZCQitRFRXIF4oRH0eJSsc8FKAABShAAQrYKGCxWKC8xsFjyW2E4/BsgSav1kDVqhWoQQEKUOCeRatY/nvFQz8Tzz77JF5u9JyHdq/NtnsOnCz4yUi5XYwxaf4/WncvWkUYlG3h64iiLFo4H4Z++JaodMxDAQpQgAIUoIAdAt98sxyXLt+wYyaneLpA3bpVUbsWjzj39M8B+6fAvQIjRsRCeYKDl+cJ+Ph4YdCgt6CT7lqK8DwIDXXcd9BXSEu7c5ifwyuXIPeKNiZNfciiVchBQKro8Cr+l6BkiUIY3K+dqHTMQwEKUIACFKCAHQLrN/yFbdsO2DGTUzxd4JlqFdG48fOezsD+KUCBewQ+GxEL5UleXp4p0O+91jAYgjyzeQ12PfDj6UhOuSmsckmWh0bvTbqz1/q9T1qZAISIqiaicll07/yaqHTMQwEKUIACFKCAHQKpqWmYMPF7WCyyHbM5xZMFnnyyNFq+8aInE7B3ClDgAQJctPLsj0X79g1Rtkwxz0bQUPeDhs1AQmKysIplSFNjjYm9/kl4Z9GqW9Uwg9lsSRRWCYB6darizdeFvY0osjXmogAFKEABCriVwMzoH3D+/FW36onNOF6gbNnH0L5dI8cnYgYKUEBTAiNGck8rTd0wlYuNjCiP116rpXJUhnOUwCcjY3DlmsClIgnLY+JMLe5btOoanudJi2QW+ux/6+Z1UbdWFUfZMi4FKEABClCAAioJ7N59BKvXbFEpGsN4isBjjxVAl6imntIu+6QABawU4OmBVkK56TA/Xx98+GEHSNzXShN3+LOxc3D+4jWBtcrbYoxJd/YWuPOkVedwQwNJwnqBlaB/zzfxeDk+FijSnLkoQAEKUIAC9gjIsowJExcgReCeBvbUyTmuJZAvXyh69XzDtYpiNRSggNMFRo6aJfg0Mqe3zALuEXh/YDsEBvrTRQMCYycvwMnTF4RVKgOnY42mUv8kvLNoFRUe2hmSHCOsEgDjR3ZHcFCAyJTMRQEKUIACFKCAnQIbN+7C5j+Mds7mNE8UCAoKwMABbT2xdfZMAQo8QoCLVvx49OzxBvLnDyWEBgRi5/2I7bsOi6tUQlpMnOnOiua/i1aRIUMhS8NFVeKl12PqhPdEpWMeClCAAhSgAAVyKaCc9DT2i3lITxd37HEuS+Z0Jwt4eenx8UdvO7kKpqcABVxNYNTo2cjMzHK1sliPQIGOHV5G6dJFBWZkKnsF1vy0Dat/2mrvdLvmmSGFzTYmZm+k9e+iVYRhJoAudkW0Y1JgoB8mjuppx0xOoQAFKEABClDAWQLr1/+FbX8J3QLTWa0yr0oCQ4Z0go+3l0rRGIYCFHAHAS5aucNdzF0PtWtFom7dqrkLwtlCBJSnrJSnrUReOtny+My9ycfuXrQKN6yDBGHHu+QJC8GYT7uK7Ju5KEABClCAAhTIpYDFImP8hO9x82ZaLiNxuqcIDBjQlttBeMrNZp8UsFLgiy/m4eYt/nvESi63HPZ4+RJo0+Ylt+zN3Zo6deYiPp80X2hbsmypGbs3OfsEoP8+aaVsUhEuqpIihfLi00GdRKVjHgpQgAIUoAAFVBLYvNmIjZt2qRSNYdxdoG+fNxEWFuLubbI/ClDABoGvvlqM6zeSbJjBoe4mkCePAX16t3S3ttyyn5TUWxjw0TShvcmS9FpsXOKquxatukQYLstAAVGVlC5ZGB++x405RXkzDwUoQAEKUEAtAeUkwUmTFyIpKVWtkIzjxgI9e7RA/vxhbtwhW6MABWwVmBmzCufPXbF1Gse7kYAkSRj6SWcof/JyfYEeAybBbLYIK1SSpc7RexNn3Vm0qlMHXmUSDZnCKgBQvVpFvN3uZZEpmYsCFKAABShAAZUEdu0+gjVrsp/a5kWBRwq8+04zFCqUl0oUoAAF7gh8//16/H38LEU8XOCjIZ3gzT0PNfEp6DvoK6SlCT2I5/0Yo2n8nUWrd8P9i2ZKPudEar3+ag28XP9ZkSmZiwIUoAAFKEABFQW+nroU165lH+zCiwIPFXivbyuEhgZTiAIUoMAdgeXLN2Hf/hMU8XCBwYPegq+vt4craKP99z+ZjqTkm+KKlTA2Js406M6i1duVDVV0OuwWVwHwbuemiKxcTmRK5qIABShAAQpQQEWBw0dOY9GiX1SMyFDuKPDhhx3g7+frjq2xJwpQwE6Bdeu2YvuOQ3bO5jR3Efjwgw7w9+e/H7RwP4d8NlPoPnSSjJjovaYudxatOkWENNZDWisSa/jgTihUkI+KizRnLgpQgAIUoIDaAjNmrsSFC9fUDst4biTw6dAo7lniRveTrVBADYGNv+7E5i171QjFGBoWeH9gewQG+mm4A88p/dMxs3Dp8g1hDcuQV8Uak167s2jVJTz0bVmSY4VVAGD6xH7Q6XQiUzIXBShAAQpQgAIqC5w4dQFzv/tR5agM5y4Cfn4+GPRhR3dph31QgAIqCaxbtw3bdxxUKRrDaFXgg/c7ICCAT1pp4f6NGj8P8ecuCytVgrw12pj0wp1Fq87hof0lSZ4gqgJfH29M+aKPqHTMQwEKUIACFKCAAwVmzV6DM2cuOTADQ2tVoECBMPTo3kKr5bNuClDAQQI/rNqMuLhjDorOsFoR4OuBWrlTwKRpS3DkWLzAguVDMcakJ+8sWkWFhw6HJA8VVUFIcADGjeguKh3zUIACFKAABSjgQAE+beVAXI2HrvB4CbRu/ZLGu2D5FKCA2gJLl27EgYMn1Q7LeBoTGDyoI3x9fTRWtWeWO2fBemzdfkBc8zLOxuw1Ff930SoiZDIg9RVVQd48IRg9tKuodMxDAQpQgAIUoICDBb75dgUuXbru4CwMrzWBhg2r47nqT2mtbNZLAQo4WOD7+evx999nHZyF4V1d4OOPOsHLy8vVy2R9AJat2owNG3cKs5CAhGijKc+dRavOESGzJEidRFVQsEAefDbkbVHpmIcCFKAABShAAQcL7N37N1as/N3BWRheawID+rdFcHCA1spmvRSggIMFYmetQXw8Xyt3MLPLh+dBHS5/i+4UuGHjLixbJfTnvKwYo8n7zqJVVKRhIWS0EkX2WJH8+OQDbsopypt5KEABClCAAiIEJk1eCJMpRUQq5tCAQOHC+fBOt9c1UClLpAAFRAt8O2MFLl7k07mi3V0pn7+/Dz7kmoAr3ZJH1vLn9gP4bsF6ofUmGU1eSwCzpGTtEm5YLktoJqqCEsUKYsiA9qLSMQ8FKEABClCAAgIEfv99Dzb9tkdAJqbQgsBLLz2DF56vrIVSWSMFKCBY4OupS3DtmklwVqZzJYFChfLi3XeELUG4UuuarGWX8Shmzl4jtPaAFJPfV8eRfnvRKiJktQzpVVEVlCpRGIP6tRWVjnkoQAEKUIACFBAgYDZbMObzOcjKMgvIxhSuLODv74sP3m8PScr+UZMXBShAgbsEJn+5CImJyVTxYIFKlcqgRfO6Hiygrdb3HjiBadErhRadYTEFzd2H1OyfJKIiDMpzXg1EVVCmVBF80LeNqHTMQwEKUIACFKCAIIG1P/6JnTsPC8rGNK4qoDxhpTxpxYsCFKDAgwTGjf8eqam3iOPBAnXqVEGd2lU8WEBbrR88fBpTvl0mtGi9Xhc6Y3eCiYtWQtmZjAIUoAAFKODeAhkZWRj7xXdQnrri5ZkCXl56DBrUEV56vWcCsGsKUCBHgTGff4f09Iwcx3GA+wq82bIeKlYs5b4Nullnx46fw4SvFwntyiKZC8yKS7n6v0WrkDWA9IqoCvh6oChp5qEABShAAQqIF1j741bs3HlIfGJmdAmBWjUj8OKLT7tELSyCAhRwTYFRo2cjMzPLNYtjVUIElP2slH2teGlD4OTpCxg7eYHQYvUZuhIzDiXE//Ok1QoAwo53KVm8EAb3bye0YSajAAUoQAEKUECMgPKLyBfj5iIzk3tbiRF3nSxBQQEY0L8N97JynVvCSijgkgJctHLJ2yK0qPf6tkZoaJDQnExmv8CZs5cxesI8+wPYMVMnWx6fuTf52D+LVosBtLQjjl1Tij1WAB8P7GDXXE6iAAUoQAEKUMD1BX7fHIdNm3a7fqGsUFWBpk1roEpkBVVjMhgFKOB+Aly0cr97amtHgwd1hK+vj63TON5JAucvXsNnY+cIzS7pdOHRexL2ZS9adY4MmSPJUkdRFRT+/8cAhw3qJCod81CAAhSgAAUoIFhAlmUop0OZTCmCMzOdswRKliiMTp2E7TbhrDaZlwIUUEGAe1qpgKjhEEFB/hg4gG9eaekWXr2WiI9Hxggt2WKRq8/al7T99pNW4aFfQZJ7iaogf14DRn7SRVQ65qEABShAAQpQwAkCR46cwcJFPzshM1OKFtDpdOj3XmsEBweITs18FKCABgW++moJrt8wabBylqyGQJUqFdC0SQ01QjGGIIGU1FsY8NE0Qdlup7FIUp1ZcYm/Zy9adYkwjJKBIaIqCDUEYezwd0SlYx4KUIACFKAABZwksHDhzzhy9IyTsjOtKAFl43VlA3ZeFKAABawRiJ21BvHxl6wZyjFuKNC69Uuo8HgJN+zMfVuyWCzo3n+S2AZ18ssxe5J+ur1oFW4YJEsYI6qCAH9fTBoj7MEuUW0xDwUoQAEKUIAC9wjcupWOCRPnIyuLm7K764dDeS3wrbcac/N1d73B7IsCDhD4af1f+OuvAw6IzJBaEOjTuyXy5DFooVTW+B+B7v0nwmKRhZlYJLScFWda+r89rQzvSjKmi8qu1+swbUI/UemYhwIUoAAFKEABJwrs2XMUq1b/4cQKmNpRAr4+3ujXrw38/LiZrqOMGZcC7ihw4OBJLF260R1bY09WCHw0pBO8vb2sGMkhriIgZ95E78EzkCnwS0hJQpfoOFPM/560Cm0uS/IykSDjRnZHSBD3PRBpzlwUoAAFKEABZwjIMrB4yS84fPi0M9IzpwMF2rR+CY/zFQ8HCjM0BdxTIDExBZO/XOiezbGrRwqULl0EHTs0ppLGBOSUS+g3cjFupWUKq1ySpIHRcYkTbm/EHhH8AqDbIiw7gIG9W6NcmaIiUzIXBShAAQpQgAJOEsjIzMLkyQtx82aakypgWrUFatQIR/161dQOy3gUoICHCHw2Ikboq0YewurybXI/K5e/RQ8oUIZsOocPxq1CUoq4n+MkWRoRvTdxaPaiVaeIkHJ6SMdE8nVo3RA1qj8lMiVzUYACFKAABSjgRIHz569iZvQPTqyAqdUSKFv2MbRr25D7WKkFyjgU8ECBkaNmIysrywM79+yW+/drg5CQQM9G0Fj3cloikJ6EIRPX4obpprjqZenrmL2JvbMXrdo9myfEL90s9MzRBi9WQ4umtcQ1zEwUoAAFKEABCjhdYPuOg1i3bpvT62AB9gsop0D37PkG9yOxn5AzKUABANOmL8OVKwm08CCB4KAA9O/fhl94aOyey8kXAEsWhk5ZhyvXU8RVL0vzYvYmdshetFKuqIjQVEAWtslU+FNl0aPLa+IaZiYKUIACFKAABZwuIMsyfvjhDxj3Cn3A2+l9u0sBPj7e6NXrDYQE81tyd7mn7IMCzhKIj7+E2FlrnJWeeZ0g0LRpLVSJLO+EzExpt4A5A8p+Vsr12dQNuHBF3LNOMuQ1scakJv9ZtDKcAFDa7mZsnFi8WEF8NKC9jbM4nAIUoAAFKEABrQuYzRbMnbcOp09f1HorHlW/JEno1vU1FC6cz6P6ZrMUoIDjBEaMjIXy7wReniEwcEBbBPEwNk3dbDnlMmBOz6559Le/IP6CyKcj5S0xxqSadxatOkeE/ClBel6UYMECYfhsSGdR6ZiHAhSgAAUoQAEXEsjIyMQ336zAjYQkF6qKpTxKoE2bBni8fHEiUYACFFBN4Jtvl+PSpRuqxWMg1xUoVqwgojo3cd0CWdkDBeSks4ByDDSAL6I34uTZ6yKljDFGU+R/n7RaDKClqAqU/RDGDn9HVDrmoQAFKEABClDAxQRSUm9h+vRlSE0VdxKNixFoppwWzeuiUqUymqmXhVKAAtoQSE65iYkT5uP2r8S83FmgW9fXUaQIn9TV0j2W001A2r+vA079fgv2HxP6lPzxGKOp3L+LVuEhEyBJ/UUh+vv5YvLnvUSlYx4KUIACFKAABVxQIMmUimnfLENaWoYLVseSFIEmTWqgapUKxKAABSjgEIEvxs3FzZu3Xz/i5Z4CYWHB6NP7TW7ArrHbKyedB2TznarnrNyJbXGnxXUhyZdi4pIK//t6YHhof0mSJ4iqQCdJmDaxHz+4osCZhwIUoAAFKOCiAjduJOGbb1dAeWWQl2sJNGz4LJ6rXsm1imI1FKCAWwmcPn0Js+dwQ3a3uqn3NNO162soWiS/O7fofr2Z05G9n9V/rmUb9uLnP8UdpCMBKdFGU/CdRasuVQytZAsWitQePbQr8uYJEZmSuShAAQpQgAIUcEEBZeHq2xkrkJ7OhStXuT1161ZF7ZqRwJ2fFl2lMtZBAQq4m8CYz79DejqfuHW3+6r0U6pUEXTs8DIfVtHYzc0+MdB89/8mN2w5iuU/7xPZiRxjNOnv/BjSqXJwTb1Ot1lkBb26NUOlisIOLBTZGnNRgAIUoAAFKGCjABeubARz4PDatSNRp3YV/pLhQGOGpgAF/hU4ceIc5s77iSRuKPDB++0REODnhp25cUuyBdmvBt6z29zWPafw3Q+7hDaelOHz75NWnSsZSkt6nBBZwZvN6qJe7SoiUzIXBShAAQpQgAIuLMCFK+ffnObN6qBypbJ8wsr5t4IVUMCjBMZ+MRe3bnFvK3e66W3bNkD5cjx1Vmv3VE69CmTduq/s/UcvYur8LULbkbKyCv37pFXJkn760IT7K3NgSfXrPI2Wr9d2YAaGpgAFKEABClBAawIJCcnZrwpyc3axd87b2wsd2r+M4sULik3MbBSgAAUAXLh4DTNmrKSFmwg891wlNHjpGT6xq7n7KUM2nbvvKSuljRNnr2Fc9CahHZkhlbprl4KocMN1SMgjqoqqEeXRrVMTUemYhwIUoAAFKEABjQgoC1czZq7kt+6C7lflymXxcqPn4O/vKygj01CAAhS4X+DrqUtw7ZqJNBoXKFIkP7pENYFOp9N4J55X/sOeslIk4i8mYPQ3vwhFkc0oc/eiVWTIIcjSE6KqKFWiMAb1aysqHfNQgAIUoAAFKKAhgeTkm4idtRrKAhYvxwiEGALRolkdFC9eiN+GO4aYUSlAARsEUlNvYcLEBbBYLDbM4lBXEggODkDvXi3h4+PtSmWxFmsEHrKX1T9TL1wx4bOpG6yJpN4YnVzurkWrLhGG32RA2Pt6yrGXQz/oqF5DjEQBClCAAhSggFsJKPubzJv3E85fuOpWfTm7GeWXiiZNaqBM6aLQ6/XOLof5KUABCtwRWLt2K3buOkQRDQooT+v26fMm/P341K4Gbx8edGLgf/u4eiMFn3y5TmhrOtny+N1PWkUYFgNoKaqKgvnD8NlHnUWlYx4KUIACFKAABTQokJGRiaXLNuHYsXgNVu9aJRd7rABerFcNyp9eXlyscq27w2ooQAFFQJZlKJuyc19DbX0efH290ad3KwQG8qRAbd2529XKWWlA6pVHln7pahKGfb1eaHv3LVp1iQj9WobcU1QVecKCMebTbqLSMQ8FKEABClCAAhoVyMoy48cft2JP3FGNduC8spVXNJ5/rhIqVS6DPGEhfA3QebeCmSlAASsFlE3ZZ878IXsBi5frCwQF+aNHjzcQwH0RXf9mPaRCOekcID/6tdz4CwkY/a3YPa0gSSXv3dNqKGRpuCjp4CB/jB/ZQ1Q65qEABShAAQpQQMMCyh4nW/7ch40bd2m4CzGlK5vfVq36OCIjyqNgwTx8BVAMO7NQgAIqCqz8YTOMxmMqRmQoRwjkyROCd7o1g/KkFS9tCsi3rgMZqTkWf/zMNYyPFXx6oHdW4XteDwzpAUhTc6xWpQEB/n6YNEbYg10qVc0wFKAABShAAQo4U+D48XNYsHADzGZu1HvvfXjyydKoVu0JFCmcHz4+Xs68TcxNAQpQIFcCylNW4yfMh7I5Oy/XFChaND/e7vQqXzd3zdtjXVWWLMjJF6wae+j4ZUyZu9mqsWoNMkMKu3fRqi0gfa9Wgpzi+Pn64MuxvXMaxr+nAAUoQAEKUIACdwkkJiZj4cKfcenyDY+XUX5pqFkjHMVLFOarGR7/aSAABdxLINGUgq+/XgLlFXFeriVQtmwxtGn9EvR6nWsVxmpsEshesLJkWTXHePg8vlm41aqxag3S602Bdy1adY40tJBkLFUrQU5xvL298PW4vjkN499TgAIUoAAFKECB+wSUX2K2btvvka8LBgUFoGbNcJQvVxxhYcH8dFCAAhRwW4GDB05iybKNbtufFhurHF4WrzetBeVVdF7aFZDTTUCayeoGduyLR+yy7VaPV2NgUobJ965Fq7fDg1/VSbrVagS3JoayKjttQj9rhnIMBShAAQpQgAIUeKDAhQvXsGLl77h6NcHthSIjHs9+/a9QobzQ6e76Mc7te2eDFKCA5wqsWvUHD+JwkdtfvfpTaNjgWR7q4SL3w+4yZAvkpPPKuYFWh9iy+xTmrRK7r2gxo0l/1087XSIML8nABqurzuVAZWV2+kQuWuWSkdMpQAEKUIACHi9gNpux/8BJrFmzxe1eIwkODsCLdavi8fIlEMCjxD3+s04ACniigAwZMTGrce7cFU9s32V6rlunCmrViuSClcvcEfsLkVMuAuZMmwL8vuM4FqyNs2lObgfHGE3SXYtWXSMN9S0yfs5tYGvnK98QTp/Y39rhHEcBClCAAhSgAAUeKXDrVjri4o5i46bdml+8qlixJKo/WwmPPZafr2Dwc08BCni8gPJKuLK/lbLPFS/xAo0aPY9nn6mIu1cQxNfBjLkXkDNSgFu27wn6x+6T+H7V7twXYEMEvd7k49QnrSRJwjeTuGhlwz3jUApQgAIUoAAFrBBIT8/EgYMn8fvve5CUlPMxzlaEFDIkf75Q1KgRjjJlHkNQkL+QnExCAQpQQCsCyhcTU6cuQ0rqTa2U7BZ1Nnu9NsLDy7lFLy7XhHJ6X0YqYE4HZDMgWwBZeWVP+Y+E7FVCSQdIXoDeB5K3f/af9l8yZNM5m14L/CfXNuNpzFmx0/7UdsyUA71DuGhlBxynUIACFKAABSigDQGLRcaly9dx6OBJ7Np9BGlpGS5XeJ48huxvr0uXLop8+Qx87cLl7hALogAFXEkgOfkmpk1fBmUBi5fjBdq1a4hyZYs5PpEnZZBlyOlJQGaq1Sf33cWjLGJ5+QLegfg/9u4DPKoq/R/490xJTyahdwuCCkISsGBv2DvWVdkVEhtYwLq6ukuzgr2uklh21d/a0EWx17UrMAEVFVDpEEKSmUmfmXv+/xtwFxDIlDvnzr33e5/H5+dvOee87/u5Azhv7j1HeHPikpMN1UC0Ja45vw3+euFyVLyodiN2TUS7bdG0KhtacCxc4o2EKkhgkksIPMInrRKQ4xQKUIACFKAABeIV0BtYGzbUQ9+4/YeflmP5sjVobEzsP9zijb35eP1J891374fBg3dF715dUVRUwNctkgHlXApQwHEC9fUNqHxitqWepLXaTdK38ikbezJ69+5qtdTTOt/2ZpX+j/5ElRFXewMrCyK7CBDuHa8YDaN9L6sEL/8Pq/Doc58lODuxaTKK/lvuaVWcf6LG0wMT0+QsClCAAhSgAAUsJ9DQ0Iy6uiD0n9zX1YWwfn09auuC0P/3hoYmtLXFt0np1gCFvjx07VqE7t07te9N1blLITp3KuAeVZb7pDBhClAg3QT0J2effnoOVq+pSbfULJ9Pnz7dcO4fjkZOTpbla0mbAvTT+prWA5EUPiHoyYbILgRc3m2W3X5aoP4KYoLX4mXrcVflhwnOTnCaFMO2fNKqpPBUQM5KcLm4p3ncbjx014S453ECBShAAQpQgAIUUCGgn0oYjkQRjUTbN3aPRjVI/bF+/R99Rwht07+37z8BeDxueDye9v+bnZ0Jt9ulIk3GoAAFKOBIAf3P5Pfe+xqff/Ft+5/LvJIXOPaYERgxYq/kF+IK/xOQUciGdYm9CpiIo/7kVU6XjXthbbra981q3pDIav+ds7YmhEkPvJnUGvFOllIcsVXTyncmgOfjXSjR8V6PGw/OYNMqUT/OowAFKEABClCAAhSgAAUo4HSB5cvX4oUX329/apZXYgIDd+uLE048ED5fXmILcNa2BfQnrPRX8rTEn3BKmDazACKrsH26DK5M+pXEhsZWXHPnvxNOJ7GJ4rQtN2IvLfiDlOLZxBaLf5bX68GD06+MfyJnUIACFKAABShAAQpQgAIUoAAFNgmEwxHMm/cj3nv/m6Rf7XYSas8enXHMMSOw8849nVS2olrlxiesoiYeAuPyAJ5soC2UdM363qDjJr+Y9DrxLCAhxmz5pFVp4WhI+XQ8iyQzNiPDiwfuvCKZJTiXAhSgAAUoQAEKUIACFLUW0r8AACAASURBVKAABSjQLqCfKvj119/jk08XsHm1g89Ev37dcfDBJTwZMIW/b2RL/cZN1210XTblJUSiBm0iH4OLhJi4ddNqLKSsiGGuIUMyMzNw/x2XG7IWF6EABShAAQpQgAIUoAAFKEABCugCbW0RfPvtUnzyaRVqa+3VOEj0Duun1xYP3Q377TcYPXt2SXQZzotFINIK2bgulpGWGnPlLbPQ2hZRlvP/30F00hZNq7ElvgsF8JiqDLKyMnDf7WxaqfJmHApQgAIUoAAFKEABClCAAk4TWLmyGgsWLMF8/0/QXyN02qW/4XTAAUMxrHQgCgpynVa++nr1faxCa5I6qU990rFFvPqOV9HYpPJ1R3nPFk2rMcW+i1wCf48t3eRHZWdl4t7bL0t+Ia5AAQpQgAIUoAAFKEABClCAAhTYgYD+9NXixcsxd+4P+OXX1bD7gYP9+vXAfvsOwh577MzTbBX+zpCtAaAloDCiulDXz5iNQKhFWUAhUbHlRuzFvoukyqZVdibuvY1NK2V3nIEoQAEKUIACFKAABShAAQpQAHV1IXz73c/45ptFCAQabCOiH3a29957orRkILp1K7JNXZYpRItAhlZbJt14E/3LPXOwob4x3mkJjxfA86Y2rXKyM3EPm1YJ30BOpAAFKEABClCAAhSgAAUoQIHEBaSUWLZsLfxVi9v3wIpEookvZuLMvLxsHH74cAwdshv0xhUvcwRk03og3GxOcAVR/3r/m6jekPxJhDGnKvHmlhuxF/suhsCjMS+Q5MCcnCzcc+v4JFfhdApQgAIUoAAFKEABClCAAhSgQHICLS1t+O67n/HJJ1Woq1f4xTyJtHNzszFy5D4oHjoALtcWX++TWJVTExKIhiEb1iQ01SqTpjz0NlZXK3z1Ucr/mNq0ys3Jwt1sWlnl88k8KUABClCAAhSgAAUoQAEK2F5A0yQWLfoVH308D9XVdWlZr9vtwgH7D8Ghhw6Dx+NOyxydlpRsrAYi6vZ7MsP31kffxfI1Sn9PfGlu0yo3G3ffMs4Ma8akAAUoQAEKUIACFKAABShAAQpsV0CTElVVi/H++98gFGpKG6m+fbvh5JMOQdeuhWmTk+MTibZBNqy1PcOdM9/Hzys2qKxzvrlNKz5ppfJmMxYFKEABClCAAhSgAAUoQAEKxCkQDkfw+ecL8Z9PqqD/u1mXvlfVUSP3xb77DjIrBcbdjoBsrAEi6dPYTNWNuvepj/HDz+tStfw21pXfbdm0KvGVA3hcVQbZWZm493aeHqjKm3EoQAEKUIACFKAABShAAQpQIDGBYLAR7773NRYsWJLYAknM6r9rb5x08sEo9OUlsQqnpkTA5icGbm72yHOfouoHlacjyh+3aFpdWFJwngbxz5TcyG0smpnpxf13XKEqHONQgAIUoAAFKEABClCAAhSgAAWSEli5shpvvvUF9P+b6iszMwPHHjMCpaUDUx2K6ycoIFvqgFZrbNyfYIn/nfbo/30G/6JVyS4Tx3z5/RZNq/LiwlFSyJfiWCGpoV6PBw/OuDKpNTiZAhSgAAUoQAEKUIACFKAABSigUkBKiYULl+KDD+eirs74hoUQAsVDd8NRR+0L/YRAXmkqIKOQQZVNHHMdHvvXZ5j3vdJ6F2zRtBpbWnCckGKOKgb9N+LDd02Ay+VSFZJxKEABClCAAhSgAAUoQAEKUIAChghENQ1+/0/45D9VqKs3pnnVp083HHPMfujbp7shOXKRFAq0NUA216YwQHot/dAzn2DhT2uUJSUE5m35pNWw/IOl5vpYWQYAbp90MYoK+V6uSnPGogAFKEABClCAAhSgAAUoQAHjBDRNw6JFv2LuvB/xyy+roT+JFc+lP9Cx6669cNCBxdhll17xTOVY0wQkZHA1IKOmZaA68PSZ72Op2tMDv9yiafWn4k6DPSL6rcrCr7vyHPTfpbfKkIxFAQpQgAIUoAAFKEABClCAAhRIiYD+uuCChUuwZMlKrFlTg0hk200NvVHVpYsPAwf2Q/HQAejWrSgl+XDRFAlEWiEbVZ6kl6I64lj2tr+/i2Wr6+KYkfTQt7doWo0blNujNcOj7lkvAOeeORKHHlicdCVcgAIUoAAFKEABClCAAhSgAAUokE4C0aiG6vV1qKsNorGxBfrrhPqBZPopgN17dEZOdmY6pctc4hCQjdVApCWOGdYfOumBN7G2xpjXYGPSkPi/LZpWl++GzKY8n1L1g0YMwehzjo4pXw6iAAUoQAEKUIACFKAABShAAQpQgAKmCmgRyNBqU1MwI/i1d85GqFFpy+jhLZpWetFlJT79Wa9CVQA79+uBG646T1U4xqEABShAAQpQgAIUoAAFKEABClCAAgkLyJYA0BpIeL4VJ+r7tF029WXoTw8qvG7ZVtNqPoASVUl07VKIaTeVqQrHOBSgAAUoQAEKUIACFKAABShAAQpQIDEBqUEGVwGIb7P9xIKlz6zlq+tw69/fVZyQHP+7ptXYEt/LAjhNVSa5OVm4+9bxqsIxDgUoQAEKUIACFKAABShAAQpQgAIUSEwg3ATZVJPYXAvPmvXOQrz1yQ9qK9Dkcb9/0qq04C5IcZWqTFwugQenT4Db7VIVknEoQAEKUIACFKAABShAAQpQgAIUoEDcArJhDRANxz3P6hNMODkQLqnt/vsnrYoLLhdC3K8S9JrLzsKA3fqqDMlYFKAABShAAQpQgAIUoAAFKEABClAgdoFoG2TD2tjH22jkddNnI9igcBN2gWiwNZDz+6ZVacFxQoo5Km2PPGwYzjr1cJUhGYsCFKAABShAAQpQgAIUoAAFKEABCsQsIJvrgLZQzOPtMnBDoAl/uft11eX8UuEP7Pq7ptXFJQUDIhA/qcymd6+u+Ot1f1QZkrEoQAEKUIACFKAABShAAQpQgAIUoEBsAu0bsK+MbazNRr38zkK8rXo/K4mXK6oCp/+uaXXRcHijUV8TAI8qZ58vD3dOvlhVOMahAAUoQAEKUIACFKAABShAAQpQgAKxC7Q1QDbXxj7eRiOnPPQWVlcH1VYk5c0VVcFpv2ta6VmUlRR8C4jBqjLyeNx4cPqVEGKb6ahKg3EoQAEKUIACFKAABShAAQpQgAIUoMDvBJy6AbsEMPHWWWhpjSj9VLhc2kmPzwu9ts0u0diSgqcEhNL39W686nzs1K+7UgQGowAFKEABClCAAhSgAAUoQAEKUIACOxRw8Absi5etx12VHyr/gAitre/MBc0rt9m0Ki8tuEJKcZ/KrI4duR9OO/EglSEZiwIUoAAFKEABClCAAhSgAAUoQAEK7FBAttQDrYpfj0uTe/L4819g7ncrVGezvMIf2EkPuu0nrYoLDxdCvq8yq769u+Gma0erDMlYFKAABShAAQpQgAIUoAAFKEABClBg+wJSQoZWAlJ/Uc551033zEFNfaPSwgXE0zP99X/abtNqTGleV5d0V6vMyleQhzuncDN2leaMRQEKUIACFKAABShAAQpQgAIUoMAOBCLNkI3rHUkUiWi48tZZiEY1pfVL4KJKf+Dx7Tat9F8YW+LT3x3srSozbsauSppxKEABClCAAhSgAAUoQAEKUIACFIhFoL1hFWmOZajtxnyxYBmefOkr5XVpIjr4ifkN3++waVVW7HsJAqNUZnfdleeg/y7K+mQqS2MsClCAAhSgAAUoQAEKUIACFKAABawkIKOQwVVWytjQXPUN2PWN2BVf6yr8gR6/xdzmnlb6L44t9f1ZSNymMrkjDinF2aOOUBmSsShAAQpQgAIUoAAFKEABClCAAhSgwO8F2hohmzc4Vub6GbMRCLUorl88WeGvH9Nh06q8pOB4CfG6yux6dO+EyTf8NzeVoRmLAhSgAAUoQAEKUIACFKAABShAAQr8V0A2rgMirY4UaWxuwzV3vGrC/vPyvAp/8NkOm1aXFGf3DouMlSrvTn5eDmZMu1RlSMaiAAUoQAEKUIACFKAABShAAQpQgAJbCjj81cA3//MDXnl3oepPhQzLtr5PVzX/953M7b4eqGdWXlKwWkL0VJWl2+3CQzMmQIgdpqUqHcahAAUoQAEKUIACFKAABShAAQpQwIkC4UbIJue+Gjjlobexujqg+s5XVfgDJZsH3WF3qKzE9zyAM1VmecNV52Hnfv/dc0tlaMaiAAUoQAEKUIACFKAABShAAQpQgAKQjdVARPV+TukDf+2d/0aoUfGrkUJMq5hff3McTavCKwF5r0q2E48ZgZOOO1BlSMaiAAUoQAEKUIACFKAABShAAQpQgAIbBaQGGVS6W1JaybeGI5hwyyuQUirNSxPisCfm138Uc9OqvKTwMAn5gcosd9mpJ/488VyVIRmLAhSgAAUoQAEKUIACFKAABShAAQpsFAg3QTbVOFbjc/+veGrW10rrF0BzoC1Q+ML3aIu5afXHPfI7e7Nc6wEo22SqqDAft0+6SCkOg1GAAhSgAAUoQAEKUIACFKAABShAAV2gvWEVbnIsxv1P/wffL12rtn6JlyuqAqdvHbTDZlRZqW8JJPqryjY7KwP33n65qnCMQwEKUIACFKAABShAAQpQgAIUoAAFNglIyID+aqDaV+PSif/m+97A+toGtSlJUVZRVV8Zd9NqbInvWQH8QVW2+smBD0y/Al6PR1VIxqEABShAAQpQgAIUoAAFKEABClCAAkCkFbJxnaMlrr79VTQ2b/GWXso9ZBT9KxcGfo67aVVWXDgRQt6d8gw3CzC+/FQM3UvZw10qS2MsClCAAhSgAAUoQAEKUIACFKAABdJVoDUI2VKfrtmlPK9oVMPlU1+GpnITdoEVFfMD/bZVXMevBw4rOBaaeCPlMpsFOGjEEIw+52iVIRmLAhSgAAUoQAEKUIACFKAABShAAYcLyIZ1QLTVsQo//LwO9z71ser6Z1b4Axcm1LQqH+rbRbrwu0e0UllB1y6FmHZTWSpDcG0KUIACFKAABShAAQpQgAIUoAAFKPA/AalBBvX9rJx7PTnrK3zhX6YYQJ5X4Q8+m1DTSj85cGxJYaOAzFaVdV5eNu6aNk5VOMahAAUoQAEKUIACFKAABShAAQpQwOkCkRbIxmpHK9x87xysr2tUauCS0b0er2r4LtGmFcpLfB9K4FBVWbvdLjw0YwL0Tdl5UYACFKAABShAAQpQgAIUoAAFKECBVAvI1gDQEkh1mLRdX9MkJtw6C23hqMocI30LA9mTPkQk4aZVWYlvOoBrVGZ949XnY6e+3VWGZCwKUIACFKAABShAAQpQgAIUoAAFHCogG9YCUbWn5qUT9cffLMWzs+epTumrCn9gv+0FjelRprGlhX8UUj6lMvNjR+6H0048SGVIxqIABShAAQpQgAIUoAAFKEABClDAiQLczwo33TsHNYpfDQTkfRX+4ISkmlYXlnQ6QEP0U5Wf2149OuNvf75AZUjGogAFKEABClCAAhSgAAUoQAEKUMCJAuFmyKb1Tqy8vebmljCuvuNV6K8IKr2E/GPF/OA/kmpaXTI0r1vY5V6nMvG83GzcdQs3Y1dpzlgUoAAFKEABClCAAhSgAAUoQAEnCsiWeqA16MTS22v++78+x/zvTTg5UYphFVX185NqWumTy0p8+hb6XVXdQZdL4MHpV8LtdqsKyTgUoAAFKEABClCAAhSgAAUoQAEKOFBANqwBomEHVg5IKTHxtlfQ0rrNvdBTaaLlNARyHliC1uSbVsW+lyAwKpXZbr122fnHY9+991QZkrEoQAEKUIACFKAABShAAQpQgAIUcJKAFoUMrXJSxVvU+v4Xi/H8G34z6v+mwh/YZ0eBY9qIXV+gvKRggoS4R2UVA3btg2uuOFtlSMaiAAUoQAEKUIACFKAABShAAQpQwEkC4SbIphonVbxFrddPn41AQ4vy+gVw00x/4BZDmlYXlvpGahLvqKwiPz8HM6ZeqjIkY1GAAhSgAAUoQAEKUIACFKAABSjgIAHZXAu0NTio4v+Vuro6gCkPvW1K7VJoB1TOD31uSNPqgkG5PdwZnjUqK/G43XhwxgSImJ8HU5kdY1GAAhSgAAUoQAEKUIACFKAABShgdQEZXA1I5fs5pQXb5Ifewppq9RvQC6A5MCCQ/8ILiBrStNIXKSvxLQHQX6XshHFnYM+BO6kMyVgUoAAFKEABClCAAhSgAAUoQAEKOEFAi0CGVjuh0t/VGI1KXHHLy4hGNeX1S4HnKucHzu0ocFzPMI0tKXxQQI7vaFEjf33oXv0xvvxUI5fkWhSgAAUoQAEKUIACFKAABShAAQpQAGhrhGze4EiJf746F5/M+9mk2sVpFf76VzoKHlfTqqzEdyaA5zta1MhfL8jPwXTua2UkKdeiAAUoQAEKUIACFKAABShAAQpQQBdo2gAZbnSkxcTbXkFzS9iM2iPB7EDBC5+juaPgcTWtLizOH6gJ148dLWrkr3s8bjw0Y4KRS3ItClCAAhSgAAUoQAEKUIACFKAABSgAGVwFyB1uq2RLpR9/qcY9T35kSm1CoGLm/EB5LMHjalrpC5aV+AIACmJZ3KgxV48/CwMH9DVqOa5DAQpQgAIUoAAFKEABClCAAhSggNMFtDBkSOl5c2kjfvN9b2B9rTknJgoNR85cEHg/Foy4m1ZjS3z/EsBZsSxu1JjiIQMwruxko5bjOhSgAAUoQAEKUIACFKAABShAAQo4XaCtAbK51nEKUgKXT30JERM2YAewvsIf6A5AxgIff9NqqK9MuDAzlsWNGpOfl4MZ0y41ajmuQwEKUIACFKAABShAAQpQgAIUoIDTBRy6n9UbHy/Cq+99a8rdl5ATK/3Be2MNHnfT6sKSwhINcn6sAYwYx32tjFDkGhSgAAUoQAEKUIACFKAABShAAQr8JuDU/ayumz4bwYYWUz4Ibre312Nza2J+JzPuptWZgLugxKfv8O5VWeHN1/4RfXp3VRmSsShAAQpQgAIUoAAFKEABClCAAhSwo4CD97MaP/klRDVN+V2VwHOV/sC58QSOu2mlL15W7HsJAqPiCZTs2EMPKsa5Z4xMdhnOpwAFKEABClCAAhSgAAUoQAEKUMDpAg7dz+qjr5fiudfmmXL3pdAOqJwf+jye4Ak1rcqL88dI4aqMJ1CyY30FubhzyiXJLsP5FKAABShAAQpQgAIUoAAFKEABCjhdwKH7WZn2aqAU31ZU1Q+J92OXUNNqbGlhsZDSH2+wZMZnZWbgvjsuT2YJzqUABShAAQpQgAIUoAAFKEABClCAApCh1YAWcZzEFdNeRls4akbdZ1X4Ay/EGzihptXGfa0KmgCREW/AZMY/OGMCvB53MktwLgUoQAEKUIACFKAABShAAQpQgAJOFpAaZHCl4wQaGltxzZ3/Vl63AJoDbYHCF75HW7zBE2pa6UHM2NfqvLNG4pADiuOtkeMpQAEKUIACFKAABShAAQpQgAIUoMBGgUgLZGO14zT+/f63mPPRIjPqvr7CH7gzkcAJN63GlvrKhMTMRIImOqdvn2646ZrRiU7nPApQgAIUoAAFKEABClCAAhSgAAWcLtAahGypd5zC9TNmIxBqUV63FN7elfNrVicSOOGm1YUlBftoEF8lEjTRObk5Wbj71vGJTuc8ClCAAhSgAAUoQAEKUIACFKAABRwuIJtqgHCT4xSuvGUWWttU7+Mln63wB89LFDvhptXoocjNcPkaEg2cyLwMrwcPTL8ykamcQwEKUIACFKAABShAAQpQgAIUoAAFIIOrAGnKZuSm6o+b/CI0TSrNwSXEYY/Pr/8o0aAJN630gGUlvi8A7Jdo8ETmPXLPRLiEK5GpnEMBClCAAhSgAAUoQAEKUIACFKCAkwW0yMaTAx12rV4fwJQH31ZddX1wQKDLCy8g4Q5hUk2rsaUFNwsppqis+sarzsdO/bqrDMlYFKAABShAAQpQgAIUoAAFKEABCthAQEaagcb1NqgkvhJe+/A7vPbB9/FNSnK0FHJq5fzgX5NZJqmmVXmJ7ygJKG3VnT3qcBxxyLBkauZcClCAAhSgAAUoQAEKUIACFKAABRwoIFuDgAM3YZ/68DtYtU7x5vNCHFoxv/7jZD5mSTWtLinu3DssIiuTSSDeuQeNGILR5xwd7zSOpwAFKEABClCAAhSgAAUoQAEKUMDhArJpAxBudJzCxNteQXNLWGndstlbUPljTSiZoEk1rQCIshKfXrU7mSTimbv7gL64avxZ8UzhWApQgAIUoAAFKEABClCAAhSgAAUoANmwBoiqbd6kA/vlU19GOJLw1lIJlCC/q/AH90pg4hZTkm1a6Zux6y+Ddkk2kVjnd+1SiGk3lcU6nOMoQAEKUIACFKAABShAAQpQgAIUoEC7gAwsd5yEJiXGT34RUu3BgTMr/IELk8U2omnVACA32URinV+Qn4vpUy+JdTjHUYACFKAABShAAQpQgAIUoAAFKEABINoG2bDWcRKLl63HXZUfqq1birKKqvrKZIMm1bS6aDi80aivLdkk4pmfn5eDGdMujWcKx1KAAhSgAAUoQAEKUIACFKAABSjgcAGp72Wl72nlsOvf73+HOR+pPTnQJcRhj8+v/yhZ6qSaVucO8RVlu1GbbBLxzM/Pz8GMqWxaxWPGsRSgAAUoQAEKUIACFKAABShAAacLSP3UQP30QIdd0ys+wNLlNUqrllH0r1wY+DnZoEk1rf403NffE8WSZJOIZ37nTgW49a9JvxYZT0iOpQAFKEABClCAAhSgAAUoQAEKUMDiArKxGoi0WLyK+NO/6vZX0dSs7iU5CUiPO5D52FwkveN9Uk2rMUML9nO5xBfxkyU+o3ePLvjrn/+U+AKcSQEKUIACFKAABShAAQpQgAIUoIDjBGRoFaCpPEEvPYivvGUWWtsiKpPxV/gDpUYETK5pVZx/oku4ZhuRSKxr7LpzT1w/4dxYh3McBShAAQpQgAIUoAAFKEABClCAAk4XkBpkcKUjFcZPeQnRqKasdinxRGVVYKwRAZNqWpWV+MoBPG5EIrGuMax4IC4ec1KswzmOAhSgAAUoQAEKUIACFKAABShAAYcLSP21QP31QIddmqZh3OSXlFYthLhy5vz6+40ImlzTqtR3OySuNyKRWNc47qj9cOoJB8U6nOMoQAEKUIACFKAABShAAQpQgAIUcLiAbAsBzXWOU1i8bD3uqvxQad0C8oSZ/uAcI4Im27R6ERKnG5FIrGuMOe84jNhnUKzDOY4CFKAABShAAQpQgAIUoAAFKEABhwvI5lqgrcFxCrPeXYi3/vOD0ro1DcOfWBCYZ0TQ5JpWJb4qAEONSCTWNf488VzsslPPWIdzHAUoQAEKUIACFKAABShAAQpQgAIOF5AN64Boq+MUbnnkbaxYG1BatxTh3pXzm1YbETTZppX+bF2hEYnEusb9d1yBzExvrMM5jgIUoAAFKEABClCAAhSgAAUoQAGHC8jgCkBKxylMuHUWWloVnhwoofUtCmRO+hCGBE24aXXRcHijUV+byjvudrvw8F0TVYZkLApQgAIUoAAFKEABClCAAhSgAAWsLKBFIEOGPPhjOYXLp76McCSqMG/xfYW/frBRARNuWpUNLugEr9hgVCKxrJOR4cUDd14Ry1COoQAFKEABClCAAhSgAAUoQAEKUIACkOEmoKnGkRLjJr8ITVP5hJl8qsIfvMAo7ISbVheUFO7shvzFqERiWScnOxP33HZZLEM5hgIUoAAFKEABClCAAhSgAAUoQAEKQLYGgBa1+zqlA3tDcxuuuf1VxanI8RX+4MNGBU24aXXR8Pw9olHXIqMSiWWd/LwczJh2aSxDOYYCFKAABShAAQpQgAIUoAAFKEABCkDqT1npT1s57PrCvwxPzvpKadVS4KjK+YF3jQqacNNqTGmnQS4Z/c6oRGJZp0f3Tph8w5hYhnIMBShAAQpQgAIUoAAFKEABClCAAhTYuJ+VZsi+4JbSvO/pj7Fo6TqlOWsiOviJ+Q3fGxU04aZV2dCiveDSFhqVSCzr7D1sD1z4xxNiGcoxFKAABShAAQpQgAIUoAAFKEABCjheQEIGVjhSYcIts9DSprZZF4UoetJfX28UeMJNqwuGFA1xu7UFRiUSyzpHHTYcZ5x6WCxDOYYCFKAABShAAQpQgAIUoAAFKEABpwtE2yAb1jpS4bIpLyES1VTWXlPhD3Q1MmDCTavyYUVDpaZVGZlMR2udduLBOHbkvh0N469TgAIUoAAFKEABClCAAhSgAAUoQAHItgagudZxEq3hKK6c9rLquudU+AOGvh6XcNPqwuL8gZpw/ahS4KxRh+HIQ4arDMlYFKAABShAAQpQgAIUoAAFKEABClhUQLbUAa0hi2afeNoffLkE/5ozP/EFEpgphPzrzPnBqQlM3e6UhJtWY0u79BIyvMrIZDpa64hDS3H2aUd0NIy/TgEKUIACFKAABShAAQpQgAIUoAAFIBurgUiL4yT+dv8bWLehQWndLimPfbwq+JaRQRNuWo0e2j03w9WiVKB71yJM+ctYI+vnWhSgAAUoQAEKUIACFKAABShAAQrYVEAGVwEyatPqtl/W5VNfQjiidD8rSE3bo3JByNA38hJuWuk0Y0t8dQIoVHX3s7IycN/tl6sKxzgUoAAFKEABClCAAhSgAAUoQAEKWFVAapDBlVbNPuG8pQTGTX4RUv8XRZcEpFYYyHnyQxj6WFtSTauyEt+XAJTtjC6EwIMzJsDjdiliZxgKUIACFKAABShAAQpQgAIUoAAFrCggI81A43orpp5Uzt8tWYcH/vFxUmskMPnLCn9gRALzdjgl2abVwwAuNTqpHa13wXnHYv99BqsMyVgUoAAFKEABClCAAhSgAAUoQAEKWExAtgaAloDFsk4+3fv/+TG+X7wu+YXiW+H6Cn/gzvimdDw6qaZVeamvTErM7DiMcSN26tsdN159vnELciUKUIACFKAABShAAQpQgAIUoAAFbCcgm2qAcJPt6uqooMun71nDogAAIABJREFUvoxwRPU+XtpBFf7Qpx3lFu+vJ9W0KivJPxBwfRJv0GTGZ2dl4t7bL0tmCc6lAAUoQAEKUIACFKAABShAAQpQwOYCMrQa0CI2r/L35Y2f/CKimrr9rPQMvFq0+6MLGqqNxk6qaXXpEF9Rmxu1Rie1o/VcLhcevmsC9P2teFGAAhSgAAUoQAEKUIACFKAABShAgd8JSAkZXOE4GH3z9XGTXoTalhV+qfAHdk0FdtKdn7IS30IAe6Uiue2tecXFozB4z11UhmQsClCAAhSgAAUoQAEKUIACFKAABawiEGmFbFS+r5PpOouX1eCuyg+U5iEg753pD05MRdCkm1blJb5bJHBjKpLb3pqD99gZV1xyusqQjEUBClCAAhSgAAUoQAEKUIACFKCARQRkawhoqbNItsal+fLbC/D2pz8at2AMKwnIE2b6g3NiGBr3kKSbVmOKC45xCfFm3JGTmJCdnYl7b+O+VkkQcioFKEABClCAAhSgAAUoQAEKUMC2ArJpAxButG192yts6sNvY9U6tScmSk3bo3JBKCWdsuSbVnt16uvyRJer/CS43fq+Vil58kxlGYxFAQpQgAIUoAAFKEABClCAAhSgQAoEnLoJ+2VTXkIkqqVAdPtLymZvQeWPNaFUBE26aQVAlJUUrAREr1QkuL01/3LtaPTr3U1lSGNiSQlI/QMkAX0zeeE2Zl2uQgEKUIACFKAABShAAQpQgAIUoED7d24ZXOlIiXGTX4Sm8ORACayq9Af6pArbiKYVykt9j0iJS1KV5LbW3W+fQRh73nEqQ8YfS4tChpuAaCughTcetak3rba+XB7AndH+j/Bkbfx3XhSgAAUoQAEKUIACFKAABShAAQrELdD+PbypJu55dphwqX5y4Lb6DikqTgLPV/oDZ6doeRjStBo7rPA0ocmXU5XkttbNyc7CPbeNVxkyxlgSsq0BaGsEom0xztlqmHABnmzAmwPhzdIfZktsHc6iAAUoQAEKUIACFKAABShAAQo4TEDqG7DrG7E77ApHNFw+9SXVVV9b4Q/MSFVQQ7ohFxbnD9SEKyWbbm2vcI/HjYdmTEiVS/zrSgnZGgTaQpte/4t/iW3O0BtYevMqI49PYBlEymUoQAEKUIACFKAABShAAQpQwL4CsmHdxjeeHHYtWroO9z39sdKqpZDHV84PvpGqoIY0rSYdBs+KOl8tBPJTlei21r31r+Xo3MmnMuS2Y7U1QLbUG9us2lYktxfw5m5sYOnNLF4UoAAFKEABClCAAhSgAAUoQAEKbCEggyu2vTWPzZ1efMuPdz9brLRK4cLeM+cF5qYqqCFNKz258hLfvyRwVqoS3da6Rx46DGeddrjKkFvGirZBNteZ0MEVm56+ygX0PbB4UYACFKAABShAAQpQgAIUoAAFKNC+TY9sWOtIickPvY011QGltUchdnnSX/9rqoIa1rQqKy4YDSGeTlWi21o3Ly8bd00bpzLk/2K1BiFb9A/DNjZWV5mRywtk5EFk5PLpK5XujEUBClCAAhSgAAUoQAEKUIACaSfQvm2P/iaUA6/xk19EVOHJgTpxZltG/sPfr29IFbdhTauxpYXFQkp/qhLd1rqm7GulH52pn0IQaVFZagyxBJDx295XmTGM5xAKUIACFKAABShAAQpQgAIUoIC9BNq/r+unBzrwGjfpRWgKTw4EUFfhD3RKJbVhTauJ+yM71OwLSsCTyoS3XnvG1EuRn5+jJmSkFbJpfer3rkq2Gpdn095XOYD+JBYvClCAAhSgAAUoQAEKUIACFKCAAwRkaDWgRRxQ6e9LvHTSi5Aqm1YS71VUBUamEtuwppWeZFmx710IHJnKhLde+4SjR+Dk4w9MfchwI2RTrfmvA8ZbqTsD8GRDeLN5+mC8dhxPAQpQgAIUoAAFKEABClCAAtYRkFHI4Crr5GtgppGohsumvGTgih0vJYDpM/2B6zoemfgIQ5tWY0uKxgtoDyaeTvwzCwpyMX3KJfFPjGdGa2DT/lXxTErDsfqJg95sCH3zdv0f4U7DJJkSBShAAQpQgAIUoAAFKEABClAgfgEZbgSaNsQ/0QYzFv28Dvc99bHSSoTEOTOrAv9KZVBDm1ZlxQX7QogvU5nw1mt73G48dNeElIWU+gde/+Db8XJnQHiy2xtZ0J/I4kUBClCAAhSgAAUoQAEKUIACFLCogGyuBdpStid4Wqs8O3suPv7mZ6U5Cpfcf+a84BepDGpo0+ry/ToVNLVG9W36DV23I4Bbby5H586+jobF/euycT0QaY57niUnuDwQ3hxA/4cNLEveQiZNAQpQgAIUoAAFKEABClDAyQKyYS0QbXMkwVW3vYKmlrDa2l1yQMW84JJUBjW8uVRW7PscAiNSmfTWa+83fE+MHX28oSFl4zog0mrompZZTG9gZeRtbGDpm7rzogAFKEABClCAAhSgAAUoQAEKpLOAlJDBldbbh9og00snvQCVe7Drabdkun3PfFkbNKiEbS6TgqZVwUQIcXcqk956ba/XgwenX2lQSAnZsM6x3dnfIXoyIbx6Aysb0PfE4kUBClCAAhSgAAUoQAEKUIACFEg3gUgLZGN1umWlJB+9WaU3rRRfKyv8gb6pjml40+qi4QX7RaMipe80bo0ihMAjd+u9siTLkRraHyd06PGYO/6wiY2buGfkbtzEXe0boKn+fcD1KUABClCAAhSgAAUoQAEKUMDCArIlALQGLFxB4qnPX7QKf/+/zxJfIJGZUvyjoqr+j4lMjWdOkl2e34c6d4ivKNuN2niSMGLshX86EXuX7p74UvrRmKG1gIwmvoZTZgoB4c0F9AaWO9MpVbNOClCAAhSgAAUoQAEKUIACFEhTgfanrCItaZpdatOa8tBbWF2d0rf0fleAkGLszKr6J1JbWYoelykr9n0DgeGpTn7z9bt1KcLUm8YmFrK9YbUGkFpi8508S7ggMvJ5AqGTPwOsnQIUoAAFKEABClCAAhSggMkCMrjKkQ+hSACX/k35q4GQAvtUzg98k+rbbviTVnrC5cWFV0shZ6Q6+c3X118NfPiuCXC54tx3SX8lsL1hxSeskr5f7Ru4b3p9kE9gJc3JBawtoGkSkWgUUpNwucSmf1zJv8ZsbRZmTwEKUIACFKAABShAAeMFtAhkaLXx61pgxcamNlx9x6vKM/Vq0e6PLmhI+SZiKWlajRnqG+ZyYa5qtaOP2Aenn3xI7GH10wX0DzYbVrGbxTpSfwJLP31Q3//KkwkId6wzOY4CaS+gaRrq6xtQWxdEbW0Qdfo/9SHU1YUQDDairS2MaHT7T2663W643Xojy4XMzAxkZWUgOzsT2VmZKPDlwufLQ15eNnJzs+Er2Pj/6wdO8KIABShAAQpQgAIUoAAFfi8gw41A0wZH0jz/hh/vf7FYde3rK/yB7iqOakxJ0+rM/ZFd0OyrA6B0wyP9aYaHZsT+tFV7w4qbrqv5cLu8EPoJhHoDy5UBuNjEUgPPKEYItLS0Yd26WqxcWY2flqzAyhXViEbVPp3p8+WiV6+u2GXnnujWrRO6di1sb2rxogAFKEABClCAAhSggNMFZEs90Kp2T6d0MNdfDRw36UVI/fhAhZcEHqv0By5WETIlTSs98bJS33OQOEdFEZvHGLHPIIw577gOw8rGdUCktcNxHJAiAZcbwqM3sbIAtxdweVMUiMtSIH4B/c/82toAli1bi4XfLsWvv65R/hdBLFn37NkFgwfvip136tHe0NIb97woQAEKUIACFKAABSjgNAHZVAOEm5xWNvQtScZNflF53VLI4yvnB99QEThl33DKSgpOAMRrKorYPIa+t9X0KZcgPz9nu6Flcx3QFlKdGuPtSEAIwJuzsZHl1p/E4qtQ/MCoF6ipCWDxkuX45psfsGGDtY7Lzcz0YsR+e2HQoF3QvXsn9XiMSAEKUIACFKAABShAAZMEnHpy4NIVGzB95vvK1bWIu98T39auUBE4ZU2r8qGd+khXVEkRW0Ppe8DcOeWSbftFmiAba1TYMkYyAu17YuUC3iy+TpiMI+d2KNDU1IqfFi/H558txLrq2g7HW2FA586FOOTgYuw+sB+yspW+pW0FHuZIAQpQgAIUoAAFKGAzAae+SXX/0x/j+6Xr1N5NKddWVAV7qdjPSi8sZU0rffHyEt8SCfRXK7gx2tmjDscRhwzbMrSDTxQw4x4YGtPthcjI37QnFl8lNNTWgYvp73yvWlWDefN+QNWCxTvcNN3KPPoDjMOG7YHhw/ZAr15drFwKc6cABShAAQpQgAIUoMB2BWTDWiDa5igh/TvNpZPUvxooICbP9NdPUoWd0qbV2BLftQK4U1UxW8e5+5bxyM3N+u//LIMrAMUblJlVu63j6vthZRYA+quEfI3Q1rfa6OJCoSb89NNy/OeTKtTXO+sV4aKifBx22HAMHNC3/aRCXhSgAAUoQAEKUIACFLCLgAytAbSwXcqJqY6opmH85JdiGmvkIE3D8CcWBOYZueaO1kpp06psaNFecGkLVRWzdZxORQW49a/l0Pe5kk3rgXCzWakwbqoEPJmbGlh6czKlH+dUVcB1UyzQ2tqG5cvX4auvv8eSxSshofZkjRSXl9Dy++y9J/bee0/ufZWQHidRgAIUoAAFKEABCqSbgAytBrRIuqWV0nxWrq3HtEfeSWmMrReXgMzNdBc+8GWtsqMaU/otfxLgWlHiWwagj1LJzYKNPucYHLR3f8jG9WalwLgqBISAyCwEMnIA4VYRkTHSWCAYbMSaNTX49tufsWjRr4hEo2mcrXmp9e7dFYcfNgy77NobbpfLvEQYmQIUoAAFKEABClCAAkkIyIY1QNRZT1o99crX+Hz+r0moJTT1nQp/4OiEZiY4KaVNKz2nshJfOYDHE8zPkGn33HAqsrO4D5IhmBZYRGTpzas8QPBLuAVulyEp6k9TrV9fj1+XrcWCqsWoXl9nyLpOWcTr9WDkyH0waM9ddnjyqlM8WCcFKEABClCAAhSggLUEnLin1fgpLynfm1dKbVRlVWiWyk9HyptWY/bq1NfliS5XWdTWsXp1K8DN446BvikxL6cICGxsXuWyeWXDWx6JRFGzIYBVK6uxYOFSLF++FvpGhLySFxg+fA8ceOBQ6K9X86IABShAAQpQgAIUoIAVBGTDOiDaaoVUDcnRrP2sIm7s9tTcwFJDiohxESVtnLLigo8hxMEx5pSSYePOPQhDd++ZkrW5aDoLsHmVzncnntwaGpuxZnUN5vl/xE8/Llf+U4V4crXD2NKSgTj44BJ06sTmlR3uJ2ugAAUoQAEKUIACdhaQjdVApMXOJW5RW2NTG66+41XV9YZzGgL5DyyB0u6gkqZV+dCCEdIlPlctunW8B24eBa+H+x2ZfR/Mia83r3yAN4cnDppzAxKK2tzcip9/WY0vvvgWK1asS2gNTkpO4KCDiqH/k5WZkdxCnE0BClCAAhSgAAUoQIEUCTjt4LX3vliMF97wp0hzO8sKObtifvBktUEVHbe2aUP2nwD0V13g5vH23qsfys/cz8wUGDsdBLzZEJk+wM0v4elwO7aVw/r1dfj6mx/wzTeLoGlauqbpmLxcLoHTRx2OPffcBfq/86IABShAAQpQgAIUoEA6CcimDUC4MZ1SSmkuN907BzV1ausVQp47c37wuZQWto3FlX37KCv1HQmJd1UXuHW82646AUW+HLPTYPx0EHC5N5446M3iiYPpcD8AVFfX4fU5n2LZsrVpkhHT2Fygb99uOOvMkdysnR8LClCAAhSgAAUoQIG0EpDNtUBbQ1rllKpkNE1i3OQXU7X8dtfVRHTwE/MbvlcdWFnT6sxByCjI8OkbsndXXeTm8Xz52bj96hMguCu7mbch/WJ7cyEy8wG3fsqkst8W6edgUkYtLW14552vMHfeDyZlwLCxCuh/dv7hnKMwYEBf/jkaKxrHUYACFKAABShAAQqkVEC21AOtwZTGSJfF28IRXDFN6QF+7aVHIYqe9NfXq3ZQ+u18bKlvpJB4R3WRW8e7rvwI7Nq3s9lpMH46CrjcQGYhhDebpw4quj9r127AE0++jtbWNkURGcYIgQP2H4KRI/eBy+UyYjmuQQEKUIACFKAABZwloEUBGQGiYUj93wUghAdweza+BeLyOMsjyWql3rDSG1cOuL79aQ0efOYT1ZX+XOEPmLLdk9Km1aa9raoA7KVaePN4GV437r3xNO7NYuZNsELszHyIjHz+hZHCe7Vo0a944cX3oD/iyst6AnvsvhPOOOMIeHjAhfVuHjOmAAUoQAEKUMAcgUgL2p8KinbwA1vhAvTvI95cfh+J4U5J/dVA/RVBB1z3Pf0xFi1VfkjVbRX+wI1m8CptWukFXlyaNygi3d+ZUezmMa+64DAM3KWr2WkwvhUEPNkQ2UX8y8Lge+X3/4RXXv3Y4FW5nGqB7t2KUFZ2MjIy9FdreVGAAhSgAAUoQAEKbFNAi0A21XTcrNrWZHcGRHYnHiS1g4+WDDcBuq/NLyklLp2kfj8rocn9Zy4IfmEGr/KmlV5kWanv/yBxthkF/xbT43bhvptOg5uvtph5G6wV25sDkaU3r9zWyjsNs128eAWefe5t6H/o8rK+QM+enVE29mQ+cWX9W8kKKEABClCAAhRIgYCMtACN1cmvrDevcrrwh+nbkJThZqBpffLGab5COBLF5VNfVp6l0Nx9Zy6oXak8sFk7To8emtctQ7iWQYgsM4r+LeYNF4/ETr2KzEyBsa0okFW4cdN2btie0N1buaoalZWz+UpgQnrpO0nfmP2cs4+C2809rtL3LjEzClCAAhSgAAVUC6TkCaDMAojMAu7Bu9nNlJFmoNH+TasVa+txyyPKtwlvc7sDeY/NRVj17x89nilPWumBLyz1na5JqH+ubTPlIl8Obp2onyRoBj1jWlrA5YHI7Qq4+EpUPPcxGGrE/fc/j0gkGs80jrWIwPDhe+DEEw7kqYIWuV9MkwIUoAAFKECBFAvo+1cZ8YTVttIULoi87vw+ssnGsKfZUvyRSHb5h5/5BAt+WpPsMvHOf6HCHzgr3klGjTetXbNpU/b5AIYaVUwi69x57UkoyDP1ga9E0uacdBHI7gyRkZsu2aR1HnqjasZdz6ClhacEpvWNSjK5U045BKUlA5NchdMpQAEKUIACFKCAxQW0MGRIQXOh/S2QAotjJZ++E5pW+uFV4yarf+5Hk9pJT1SFXkv+LiW2gmlNKz3dMXt16uvyRH8BYNomQSOKd8IFo/ZNTI+zKKAL6I/nZhXSogOBhx95CdXVdXRygMCF5aegd28edOGAW80SKUABClCAAhTYloDUIEOrAamp8XF7IXK7O/p1wZS8hqnm7sUcpbG5DVff/mrM440aKDTsOnNBQO/bmHKZ2rTSKx5b4rtQAI+ZUv2moPf95TRkZnjMTIGxrS7AxtUO7+A7736FTz9dYPW7zPxjFHC5XLjm6nORk8OnWGMk4zAKUIACFKAABWwkIPW9lfQ9llRe+uuC+T0BYdrzICqr/V0s2RoCWuz9A/JX3/sWb3y8SLVzNKchkPvAErSqDvxbPNObVmeeCXfBYt93AHY3C+GK0Qdj0G49zArPuHYR4KO527yTGzYE8OBDL/KkQLt8zmOso/+uvXH++cdyf6sYvTiMAhSgAAUoQAF7CMjWINBSb1IxYuM+V+4Mk+KbF1bqDSu9cWXTS5MS4yfr36kUFyjxZkVV4DjFUbcIZ3rTSs+mfGinPtIV/dWs1wTzczOh720luCO7mZ9FW8QWud0AD58u+e1mRqMa7rjzH2hrM+WgCVt8pqxcxKhRh2HokN2sXAJzpwAFKEABClCAArELaJGNrwWafG1sXGWanIXa8KY83aawxJq6Btx07xsKI24M5ZI4+/GqwPPKA28WMC2aVno+Y4p9F7kE/m4WBjdkN0veZnHbH8vtDR5JufG+PvX0HPzyi/l/cdvsU2apcq688mwUFeZbKmcmSwEKUIACFKAABRIRkI3rgIhpb1FtkbLTfpguQ6sAzZ4nlEspcd302Qg1qv9sud3Y7bG5gaWJ/H4wak7aNK02vSb4AwBTfiw/8oCBOOOYYqNcuY6TBbi/Vfvd1zdd1zdf5+Vsgb59u2PsmBP5JKuzPwasngIUoAAFKGB7AdnWADTXplWdjmlcRdsgG9amlb2Rycz7biUee/5zI5eMda1otD6Q9+SvaIl1QirGpU3TSi/ukuLs3mGRsQKAKXk9cPMoeD3O3LguFR8uJ68p8nsBLudu7q//NOC2259CW1vEyR8D1r5J4A/nHIXdd9+JHhSgAAUoQAEKUMCmAhIyuBLqNxzqmFPk9bD9HleyeQPQ1tgxhgVHbKhvwl/ued2szJ+t8AfOMyv4b3FNaQ7tqOiyYt/tELjeDJibLj0KfXoUmhGaMe0m4M2GyOlqt6pirmf27E8wd57+4CQvCgAul8B1145GVpbzNgXl/acABShAAQpQwP4C6b4JuL0bV+nbMEz2k9/SGsFVt78KTdOSXSqh+W5NjnhsQfDLhCYbOCntmlajh3bPzXC16M9VKv9206ubD38df7SBvFzKyQIiryfg9jqOQN90/bbbn+ZpgY678zsueP/9h+CYo/ejCgUoQAEKUIACFLCXQJpsvt4RqsjvCbjs991EtoWA5rqOyrfcr0eiGm68+zUEG9TvY/UbltutdX1sbqjGbLy0a1rpIGWlBaMhxdNm4Ey/7iTk5/L0NzPsbRczIw8iu5PtyuqooPsfeB61tcGOhvHXHShw+WVnonNnnwMrZ8kUoAAFKEABCthVQDbVAOEmS5Rnxy1MZMMaIGqvk8o1KTG94gP8smKDmZ+rqgp/oMTMBH6LnZZNq7G7d8kXOeE6SCjfYOrog3bHqKOGpsO9YQ42EBAFfQDhskElsZWwfn09Hnr4xdgGc5TjBAYM6Itz/3AMD9d03J1nwRSgAAUoQAGbCmhhyNAaSxXXftK5S/nX7JQYyUgz0Lg+JWubtaiUwP+9Pg8ffW3qgX36JuNHz/QH3jHLYfO4adm00hMsLy6cIoW82Qyk+28ahQyvPX4jm+HHmJsJZBVCZBY4hmTaLU8gErHnUbOOuYkpLrS87GT06dMtxVG4PAUoQAEKUIACFEi9gJWesvqfhsDGJ66s/323vWGo2espq/98/TOeeW1u6j+8HUQIZ2hdnv4qZOqjXr+lmLZNqwv2ye3hDntMaVtfNeZQDNyZX6pM/51ihwRcno1/KTjgWrJkJf75zJsOqJQlJiPQq2cXXHjhKRAibf/6SaY8zqUABShAAQpQwCkC0TDaX02z5CUgCnoBwrqNK9nWADTrW2Hb5/rp1/W4+4kPzS9Iyi8qqoL7m5/IxgzS+ltDeUnhSgnZWzVWQW4m7rj2JH6pUg1v13i53SE8mXat7r91TZ1aiahJJ1vYHtdmBY4dcyL69eths6pYDgUoQAEKUIACThKQTeuBcLOFS9YbV/pWJmndEtiurwytAjT7vOFRU9eIm+6dkx6fJyn3q6gKfpUeyaR50+qi4sLDo0K+bwbWrVedgE6+HDNCM6bdBBywIXtV1RLMeiUNfipgt8+OTevp3r0TLrn4NP5gwKb3l2VRgAIUoAAF7C4go21Aw1pblCkK+lqucSX1J6z0J61scjW1hHH17a9A38/K9EsgGswK5L/wOdKmI5vWbdVxg7rmtWa06ceQKc9z+F59ceGZI0z/zDABGwgI/acYfW1QyPZLmDK1EhqfsrL1PTa6uLKxJ6Fv3+5GL8v1KEABClCAAhSgQMoFrP+U1ZZEVjo8SkZagMbqlN9jVQGimsSNd7+GQKhFVciO4txY4Q/c1tEglb+uvBkUb3HlJYX/kJDnxzvPiPF3/fkU5GZnGLEU13C6QE5XCG+2LRWWLFmBfz7zli1rY1GpE+i/a2+MHn1c6gJwZQpQgAIUoAAFKJACATs9ZbU5z8Y9rjwpEDN2SRlcBUj7vBb48ttVePvTn4xFSnw1ibDsUvFdMK02C0v7ptV5Q7P7ZLkyViTunvjMc04YhsP27Z/4ApxJgd8EvDkQOV1s6TFlSgW0tHiW1Za8ti5q/LjT0bVrka1rZHEUoAAFKEABCthLwG5PWW3RuMrrDrjTdy9eqT9hpT9pZZPrl5W1uOPx99KnGinvrqgKXp0+CW3MJO2bVpMA14pSXyMksszAe/DmUfB4rHuqghlmjLltAeHTXxFM+99ycd2+ddV1eOSRl+Kaw8EU+E1g7733xIknHEgQClCAAhSgAAUoYAkBuz5ltQV+pg8iy5d298Nu+1g1NLXimjv+nU7O0u12FT02ty6QTklZommlJ3lRSf6pUbhmmYF3/UVHYpfencwIzZh2E8jpAuG11+b+t9z6JMLhiN3uFOtRKHDN1eciL89evy8U8jEUBShAAQpQgAIKBez8lNUWjG4vRF5PhbI7DiVbg0BLfdrkY0Qitz/2Hn5dlT5v4QnNde7MBXXPGVGb0WtY4rGPTRuyh4wuPpb1igpycNvVJ8QylGMosGMBTzZEblfbKEWjUUyd9oRt6mEh5ggcfdS+OOCAoeYEZ1QKUIACFKAABSgQo4AjnrLayiIdThaUbSGguS7Gu2SNYUuW12BGxQfpk6xEa9+iQN6kD5GWTyNYomml382y4sKnIeRoM+7sLROPR+fCXDNCM6bNBNLhD36jSCsqZ2PFinVGLcd1HCrgcgnc8OcL4PXyNWyHfgRYNgUoQAEKUMASAo55ymrru5FVCJFZYMo9ki0BoDXt3lZLyqK1LYIrbzHlJbLt5u12e/Z8bO6GH5IqLIWTLdO0Gj00r1uGy23KN+S9h/RD+Rn7pfA2cGnHCGR3gsjIs3y5UkpMnlJh+TpYQHoInHXmkRg0aJf0SIZZUIACFKAABShAga0EZLQVaDDlq2h63AshIAr6KN2fVzbVAuGG9KjfwCz+NWc+PvhyiYErJruU+HdmHu3bAAAgAElEQVSFv/6UZFdJ5XzLNK303yFlxb4aCJiywdSM609GXk76nqSQyg8J1zZQwJ0BkdfDwAXNWWrxkpV45pk3zQnOqLYT6N69Ey69ZJTt6mJBFKAABShAAQrYQ0A2rAWibfYoJpkqFG3SLkOrAS0t31RLRg8b6hvxl3vmJLWGwZO1YHZ+3gufr2w2eF1Dl7NS0wplJfkHAq5PDBWIcbE/nDAMh+7bP8bRHEaBHQjk9YBwZ1ia6J57/w+BgP1+8mHpm2Lx5C+5ZBR6dDflZxIWl2P6FKAABShAAQqkUsCOm4An5yU27tPryUpumW3MlpEWoHE9AGn42umw4AP/+A++W7I2HVJpz8ELscuj/vpf0yah7SRiqabVBTsjy13oM6ULKITA/TedBq+H+66k+4c67fPLyIPItu6Xc74amPafMEsmOGLEXjj2mBGWzJ1JU4ACFKAABShgUwGpQQZX2baJktxdExvfIHF7k1tGny0lZMMaWz5d9RtOdW0D/nrfG8lbGbSCkLhhZlXgdoOWS+kylmpa6RJlxYVTIeRNKVXZzuLXlh+O/n27mBGaMe0koL8Tnt8bEC5LVqVpGqZMrbRk7kw6fQX0Hwzc8Oc/IiPDgP/wSd8ymRkFKEABClCAAhYSkCG9kRK2UMZmpCqArAKITF/8wWUUsrEaiNrfeOYLX+Cbb1fEb5SCGRKYX+kPDLdKN9ZyTauLhhf5olGtPgX3rsMlOxfl4pYJx3c4jgMo0KFAZgFEVmGHw9JxwOrVNXjs8VfSMTXmZHGBM884AoMH72rxKpg+BShAAQpQgAJ2EJBNG4Bwox1KUVeDEIA3DyLLt/0f0OtPVbWFgNYgIDV1uZkYqS7YhBvuet3EDDYLLdEaDQQKn/wVLemRUMdZWK5ppZdUVlL4CSAP7Lg840dMm3A8uhTlGr8wV3SWQPvTVn0A/Q92i11z5nyGr77+3mJZM10rCPTo0RmXXHyaFVJljhSgAAUoQAEK2FhAtoaAljobV6iiNAFs/VWnfasqe+5XtSPRj75aiuden6cCvcMY4Qyty9NfhTZ0ODCNBljvGzOAi/bM6RnN9K42w/HoA3fHqKOHmhGaMe0mkJkPkVVkuaoefOgF1NQELJc3E7aGgH6KoH6aIC8KUIACFKAABShghoAMNwFNNWaEZkwbCmiaxMTbXkFrm/mnIUrNu0flgpofrcZsyabVJMC1ssTXIIFs1eAuIXDPjaciM8OjOjTj2VBA5PcCXNb6LE2eUgF9M3ZeFEiFwKGHluLww/RX7HlRgAIUoAAFKEABtQIy2gY0rHPk00BqpZ0TbdW6AKY+/Lb5BQuMrJgfeM/8ROLPwJJNK73M8mG+I6QGU9CvKTscu/Xjhuzxf9w443cCnkyI3O6WgeHJgZa5VZZNNDMzA3++fjT0jdl5UYACFKAABShAAWUCWhSyYXX7SXa8KGCUwFOzvsbn/l+NWi7BdeT4Cn/w4QQnmz7Nst8KJg1CxooMX6sZggP6dcHVZYebEZox7SiQ3Rkiwxr7pLFpZccPYPrVdMGfTsDOO/dMv8SYEQUoQAEKUIAC9hTQNwcPrXLMxuD2vInpV1VbOIIrb3nF3LdUJCorqgLlVn580LJNK/0jWVbimwbgL2Z8PGdcfwrycjLMCM2YdhMQLrS/JihcaV+Z/k72lKkVaZ8nE7S2wD77DMIJxx9g7SKYPQUoQAEKUIAClhGQoTWAFrZMvkzUGgIr19Zj2iPvmJasAL7u4w+MmARY+phGSzetxg3qmteaoZ+Xqf66euzhGLATXxFUL2/TiJ5siNyuaV+cpmmYMrUy7fNkgtYWyMjw4M/X/xEuV/o3cq0tzewpQAEKUIACFJCN64CIKS/wEN/mAq9/9D1mv/+dWVUG+hYGukz6EObvAJ+kgKWbVnrtZSW+zwDsn6RD3NOHDuyFcecdGPc8TqDAdgWyO0Fk5KU1EJtWaX17bJXcmDEnYqd+PWxVE4uhAAUoQAEKUCC9BKR+SqB+WiAvCqRA4No7/o1QkzkN0ZZMt++ZL2uDKShL+ZKWb1qNG5TbozXDs0a1nL5H8D03nIasTGud/KbaifHiERAQ+T3T+jRBNq3iuZ8cm4zAAQcMwdFH7ZfMEpxLAQpQgAIUoAAFtisgW+qAVlNe2uFdcYBAXaAJN9z9uimVasI9+In5td+bEjwFQS3ftJoEuFaW+BokkJ0Cnx0uefO4o9G7u091WMazs4DbC5GXvhtQs2ll5w9fetXm8+Vi4oQ/pFdSzIYCFKAABShAAVsIyLZGoHmDLWphEekpsHT5BkyveN+M5D6s8AdsdWqc5ZtW+qegrNR3JCTeVf2JOP2YYhx1wEDVYRnP7gKZ+RBZRWlZJTdiT8vbYtukrrj8LHTqVGDb+lgYBShAAQpQgAImCGhhyNBaKx+mZgIaQ8YrMPuD7/D6h+ofdgpmB3Je+BzN8eabzuNt0bS6aDi80aivTTV0l065mHbl8arDMp4TBHK7QXiy0q5SKSUmT+HpgWl3Y2ya0GmnHYrioQNsWh3LogAFKJBeAvrT1LV1ITSEmhCJROByu+H1uOHxuJGZmYG8/GxkeL3plTSzoUACAjK0GtAsvzd1ApVzikqBSQ++ibXrlb9+urTCH9hNZZ0qYtmiaaVDlZUUvgbIE1SgbR5jxnUnIy83U3VYxrO7gHBB5PcG9M3T0uhi0yqNboYDUhk8eFececYRDqiUJVKAAhRQKxCJRFFVtQTfff8zamuDaG5uRVtbGPrf8zu6XC7RfrKr3sjyej3wejzIzPSiT59u6LdzT+zUtzsKCnLVFsNoFIhDQDatB8K2eggljuo5VJVAc2sYE299RVW4/8aJQDvoKX/oU+WBUxwwvb4RJ1HsuH1ye7SG1W/IfuMlI9GvZ3q+ypUEJ6emg4AnCyK3Wzpk8t8c9P+WnTxlZlrlxGTsK5CTk4Xrrj3fvgWyMgpQgAIKBZqaWvDRR/Pw0+IVCAYbEY1qKYmuN7OyszORn5+D3XffCaUlA9v/nRcFzBaQerNKb1rxokCKBdbVhPC3B95McZTfL1/hD7js+N6rbZpWhx0GT/96X1j1J2PU0UNx9IG7qw7LeE4RyC6CyMhPq2onTWbTKq1uiM2T0Tdj1zdl50UBClCAAokJVFUtxiefVGFDbRD6K4BmXPoPIfQnsEqKB2CffQfB7dK/V/GigFoBGVwFyKjaoIzmSIEff6nGPU9+pLz2Cn/ANv2dzfFsVdTYYt8iIbCHyk9Hnx6FuOnSo1SGZCxHCQiI/J6Ay5M2VU+ZWmnaf/SmDQITUSZw3nnHYMBufZXFYyAKUIACdhDQX/97992vsGDhUuhPWKXT5Xa74PPlYfCgXXDY4cPZwEqnm2PjXKR+UqB+YiAvCigQmPPxIvz7vW8VRNoixDcV/sA+qoOqiGerplX5sMJRUpMvqYDbPMY9N56K7ExuTKna3THx3BkQeT3Spty77n4WoVBT2uTDROwtcOSRe+Pgg0rsXSSrowAFKGCQQGNjM16f8xmWLFnZvkdVul96A6tbtyIccugw7Ln7TumeLvOzqoDUIEP6U1Y73rPNquUx7/QT0J+y0p+2Unm5BC59fH7gUZUxVcWyVdPq8t2Q2ZTnU/7jpJvHHY3e3X2q7hnjOFEgyweRmR6fsUf/Pgtr125w4l1gzSYIDBnSH6ePOtyEyAxJAQpQwDoC1dV1mDPnU6xYuR7RqDVffyoqyscRR+yDIXvtah14ZmoJAdlcC7Q1WCJXJml9Af1Ai8unvoxIivYN3J6QV4t2f3RBg9pOmaLbZaum1ZmAu6DEp/z80tEn740Dh++i6JYxjDMF9NcEewEut+nl//OZN9t/gsuLAioEevbsgosvOlVFKMagAAUoYDmBJUtW4J13v4betOro5D+rFKc3r84+ayR69OhslZSZZ5oLyOBKQJqzn1ua0zC9FAgEG1pw3fTZKVh5h0vKTZuwq46rJJ6tmla6WFlJ4TJA9lOitynI7rt0w8QLDlUZkrGcKODJhMjtbnrlr7zyEfxVi03Pgwk4Q0A/heovN17gjGJZJQUoQIFYBKTE198swmefLURdfSiWGZYbI4TAnnvujLPOPNJyuTPh9BLgiYHpdT+ckM3KtfWY9sg7SkuV/78BUrnx5EBbXrZrWl1YXHiVJuRdKu+WSwjc+5fTkOE1/ykYlXUzlgkCOZ0hvOaepKb/RPfTT6tMKJ4hnSpw3bXnQz95ihcFKEABJwvoe1R98OE8LFiwBPreVU648vNzUF5+CnwF5v63jxOs7VqjbKwGIsp3j7ErJ+uKQWDBj2vw8LOfxDDS0CFahT9g22aE7ZpW5+3WqSArLxow9CMQw2KTLj8WPbrkxzCSQyiQhIDLs/E1QROvDz+ahw8/nGdiBgztNIErrzgb+usivChAAQo4TkBKLPz2Z3zx5bdYt64W+qmATrv0zdpPOekQDC3ezWmls14DBPhqoAGIXCIugVnvLMRbn/wQ15xkBwvIT2f6gwclu066zrdd02oS4FpR4lP+N3rZGSOwzxAey56uH3Rb5ZVVCJFZYFpJn362AO+885Vp8RnYeQLjLj29/XQpXhSgAAWcIKBvpK6/hl9VtQTV1bVoaWlzQtkd1jhs2B44+STbfifrsH4OiF9A6k9Y6U9a8aKAQoE7Z76Pn1eoPbRKQE6c6Q/eq7BMpaFs17TS9cpKfPrf7l6Vkv37dca1ZUeoDMlYThUQLoiCPqZV//XXi/D6nE9Ni8/AzhO4sPwU9O7d1XmFs2IKUMAxAoFAQ/s+VfpBJzU19Y58oiqWm73H7jvhnHOOimUox1AAsnkD0NZICQooE2gLRzHhllnQpFQWUw8khbd35fya1UqDKgxmy6bV2JLCBwXkeIWO7aFmXHcy8nIzVYdlPCcKZBVBZJrzulRV1WLMeuUjJ6qzZpMExlxwInbaqYdJ0RmWAhSgQGoEfv11Db6ZuwirVq1HfX2DbU7/S43W/1bV/z7Q/17gRYGOBGRoDaCFOxrGX6eAYQKrqwOY8tDbhq0Xy0J234RdN7Bl06p8aKc+0hVdEctNNnLMZecfhL0G9DRySa5FgW0LmLi31dKlK/GPf77JO0MBZQJ80koZNQNRgAIpFvjll9X4/ItvsWLFOjQ3t6Y4mn2X79evO8aOOcm+BbIyQwRkcAWg+IkXQxLnIpYV+NK/DE/MUr6NSrTCH/BYFi2GxG3ZtNKbcWUlPi2G+g0d0rt7AW4ed4yha3IxCmxXILcbhEf9iWpr19Xi0Udf5o2hgDKBy8afgS5dCpXFYyAKUIACRgq0tobxzrtf4ccflyEUajJyaUev1b9/b4w+/zhHG7D47QvISCvQuI5EFFAq8Lf738C6DQ1KYwJyXYU/aOtXEuzatNL3tYoAUH7s498uOwY9u5q3Sbbi3yEMZ6aAJwsit5vyDBoamjHjrmeUx2VA5wrceMOfkJGhdJtC52KzcgpQwDCBurog3nrrSyxZupJ7VBmmuuVCe+6xM84+e2SKVueyVhaQLfVAa9DKJTB3iwmsWR/E5AffUp61Btz2hD9wo/LACgPatmk1tsR3pwCuVWjZHmr/0p3xp1P3UR2W8ZwoYNKG7PqpRlOnPeFEcdZsgkBBQS6umvgHEyIzJAUoQIHEBDRNw+zXPsGCBUsQjSp/8D+xpC08a8iQ/jh91OEWroCpp0JA6k9Z6U9b8aKAIoHnXp+Hj75aqija/8K43VrXx+aGapQHVhjQtk2r83brVJCVFw0otGwPpYPedvWJKCzIVh2a8RwoIHK6AN4cpZXr/zE+ZWql0pgM5lyBoUN3w6jTDnMuACunAAUsJbBw4RK8+daXaGxstlTeVk92+PA9cNKJB1m9DOZvoIAMrQY0/cUbXhRIvUAg1IIb7n4Nmqb21EAAtt/P6rceS+rvokkRykp8UQAu1eFPOmIwTjh0kOqwjOdEARNeEZRSYvKUCidqs2YTBE45+RCUlg40ITJDUoACFIhPYPZrn2LevB94CmB8bIaNPuCAITj6qP0MW48LWVtABvQzuZQ3EKyNxuwTFnj70x/w8tsLE56f6EQBNMz0B8w5Uj7RpBOYZ9snrXSLstKCzyHFiARckpri9bhxxzUnIic7I6l1OPn/sXce8FUW2ft/5pb03Bt6V1REipKAimIBFQuKqKhY10YQFdde97cNu6vrrm0tLEFBXXuviG0VFUVMggg2EKX33PTcNv//3IBrhZvkfd+Z977PfD4YlZlznvM9b5J7z505QwLbJKDpiODka6ZuUxonkIAVBC684AS0b88+gVawpA0SIAH7CDz62KxUo3UOvQQOOnAPDB9eolcEvesnkIhC1q7Wr4MKPEGgsSmOq/7+IpqiGnb2SfytrDJydaaDzuii1Zm7Ffbz+32LdCTxtKP3xL5DeutwTZ8eIyAKugJ+Zwuk//nPTHz1tfoEi4ME7CPQtWsHnHvOWPsc0DIJkAAJWEDgiSfexMJF31pgiSasIHDEEcMwdM+BVpiiDZcSkE0RoNHxLjEupUXZbSUwd/73KHv6o7aaafF6CchYMqfwoflr6lq82GULMrpopXKh6xbBgrxs3HzZaAQCjl9g6LJHkHLbTCCrACK3fZvNtMTAt0tXY/r0l1qyhHNJoMUEeDSwxci4gARIwGECL7/8PuZ+ouXzUYcjdZc71QtR9UTk8CYBWbcWiDd6M3hG7SiBRDKJP/7zFVRVa+lj2FRWEclxNGBNzjxQtCp6DpBH6+D7+9/th1137qbDNX16iYA/CFHg7HOmmgxeex37WnnpMXM6Vp/PhysuPxW5udlOu6Y/EiABEkiLwPvvz8cbb85lD6u0aDk/6eSTD8Eufbd33jE9aifAJuzaU+AZAYsWr8UdM/6rJ16B+8vKI+fqce6s14wvWp01uKCTT/rXbL7Yz1G6PbuG8afzDnXUJ515kICOvlb/v6/l5GvZ18qDT5tjIZeU9MUxRw93zB8dkQAJkEBLCKxatQFTy55HIpFsyTLOdZjAhNKj0LNnZ4e90p1uArJ6OSD5vak7D17wf8vUt7Bk2QYdocqGBDr857PIJh3OnfaZ8UUrBbS0JFwLIN9puMrfnycdih5dwjpc06eHCKR2WvmDjkY846FXsGTJSkd90pl3CKheVqqnFQcJkAAJmEYgHk/g77c9gsbGqGnSqOdnBNSu3fMnHYcOHfha3DMPRzIBWbPCM+EyUH0EVq+vweS7XtMiQAJV0yoi7bQ41+DUE0Wrs4uLxiaFfEYDXxy4dx+cePhgHa7p00sEskMQOUWORrx+fRXu/tdTjvqkM28Q2GWX7XHySYd4I1hGSQIk4DoC/576PFasWOc63V4VnJUVxCUXn8Tj5h55AGS0FmjY6JFoGaZOAs+9uQCvvaunp6EvKY7+9/yqF3TG76RvTxStFNDSknATAGevWAPg9/twyxVjkJ/ruGsnnyP60k0gkA2R38VxFZOv4RFBx6F7wOHZE45Gjx6dPBApQyQBEnAbgfLyr/D8C++6Tbbn9XbqWIRzzz029bqcI7MJyPr1QKw+s4NkdNoJNDbFceXfX0Q0Gndei0BjWXkk13nH+jx6qWh1K4DLdaAef+xeGFq8nQ7X9OkVAj4/RGEPx6P91z1PY906TxyldpytVx326dMTvzt1lFfDZ9wkQAIGE4hGY7jl1oehjgdyuI/A3nvtilGj9nafcCpuEQFZuwpIxFq0hpNJoKUEKhatwH2PfdDSZZbMF5C3T62ovsQSYy4x4pmi1TjAHyoJq7tPA07npnOHAlxzwSgI4RncTiOmP3XTQKgnIJz9BHHNmo249z4tJ2+Z8wwlcN65x6JLl/YZGh3DIgEScDMBHgt0c/aatZ8zcSy6dWO/RPdn8rcjkNUrAMnCcibn2ITYbrr/DXy3UssH9zG/P5I/ZR48VZn1VBVlQkl4lgQO1vGgXz3xYPTu4ZleaToQ02deB4ig8/cNXHNtGa/75tNnCYEhQ3bBUWP2t8QWjZAACZCAlQS+/34NHnjwJf6+sxKqBlt5eTm49JKTEQj4NXinS9sJyARSRSsOErCRwMq1EVz7r9dt9LBV0++WVURG6HKuy6+nilalA0PtERSqc6az21EADCvpjTPG7qkrz/TrBQLBfIg85z89fOyxWfjiy++8QJgx2khA3fB08UUnIhRyvvBqY1g0TQIkkCEE1LHA+nq1YZ/D7QQOOGAIDhgxxO1hUP+vEJDRGqBBy+4X5sNDBJ6aWYk3PvhKR8TJRDDe48G5dat1ONfp01NFKwV6wuDwN1JiJ6ehq6OBN19+JMIFOU67pj+vEPAHIQq6OR6tuvL75r/NcNwvHWYWgQMP3B0jhvOm1czKKqMhgcwg8P4H8zFr1seZEQyjSBG44vJTkZ/vqT7Gnsi8rFsLxFlc9kSyNQVZ3xjDVbe+iJiO3oYC35eVR7bXFLpWt54rWp1ZUlTih/xUtQBymvxJowfjgKF9nHZLf14hIHzNfa00jL/97SE0NKoLOjlIoOUEcnKyUruscnKyW76YK0iABEjARgJSStxw44Nsvm4jYx2mBwzYASeMG6nDNX3aSEDWrASSGm5zszEmmjaLwEfzv8MDT+v6EMO3X1nFpvfNIuKMGscLN86EtXUvpSVhtW+0yGktapfVDZeORoDX7TqN3jP+RKgHIJzv0/DFF9/hscdneYYzA7WWwNFHDcfgwX2tNUprJEACJGABgZkz5+DDOQsssEQTphFQH5YUFRWaJot6WktAJiGrl7d2NdeRwDYJqA8xVC+rVeuqtznXhgnVZRWRsA12XWHSm0Wr4qLTIKSW80wXnT4c/Xfq4oqHgyJdSCC3PURWgRbh1143DclkUotvOnUvAfWG4ffnH8+muO5NIZWTQMYSUG9Qrr/hASQS/N2WiUneeedeOPWUwzIxNE/GJJuqgcYqT8bOoJ0hsHTFRtw85U1nnP3ci5SXllVW/1OPc/1ePVm0UthLB4cbIOF4g6n+fbriotN4O5b+Rz9DFQRyIfI7aQnu2WffQeX8b7T4plP3Ejjl5EPRt+927g2AykmABDKWwCuvfICP5y7M2PgYGHD5ZaegoCCPKDKAgKxdDSSiGRAJQzCVwEPPf4L3P/3WeXkCjWXlEfWDSjrv3AyPni1ajS8uelEIeaSONFxz4Sh06cDtyDrYZ7xPXxCi0Plm7IprPJ5I9f1Qn0xzkEA6BLp0aY9zJo6Fz+fZX0XpYOIcEiABHQSkxHXcZaWDvKM+9xm2Gw49dC9HfdKZPQRSRwMld0XaQ5dWa2obcdVtLyGZ1PA+R8j3ysqrh3s5C559pzBx98KOiaRvNSQcbwB04N4748TDS7z83DF2uwhobMauQrrzriexcWPEruhoN8MInHXmkdh++64ZFhXDIQESyAQCb709D+++W54JoTCGbRC4+qrToS4E4XAxgUQUqZ1WHCRgE4FZ73+Jp1+fb5P1rZpN+v3oO2VeZLEO56b49GzRSiWgtKRoBSC7O50MtavgpkuPRLjQ8dOJTodKfxoIiIKugF/Pi6/Vqzfgvvuf1RA1XbqNQNcuHXDOOcdACE//GnJb2qiXBDxD4LrrVS+rhGfi9XKgR47eF3vs0d/LCFwfu2zYAETrXB8HAzCTQFM0jj/842XUN2g4fiqwoaw80tFMMs6p8vS7hQmDw8dLiSedw/0/T2MOHIjRBwzQ4Zo+M51Adggix/HLMX+gqo4IxmK8bjjTH7O2xnfa70Zhp516ttUM15MACZCA5QS++up7/OfR1y23S4NmEggGA7jyit9BfeVwJwFZsxJI8rWnO7NnvuoPK5Zi+rNzNQlNXlFWUfN3Tc6NcevpopXKQmlJuBZAvtMZCQT8uPGSIxAq4G4rp9lnvD9/FlK7rTSN2bMr8Mabn2jyTrduIBAOF+DCC06A3+9zg1xqJAES8BiBv93yEBoamjwWtbfDPeP0I7DDDo4fvvA2dAujl9XLAPZUtZAoTW0hEIsl8Oc7X0VVdYPzUCQayyq93YB9C3QWrUrCTwAY5/xTCBy2fz+MPXg3Ha7pM5MJaO5rpRqxX3f9ND2NCjM5rxkU23HHHojddtspgyJiKCRAAplCoKqqBrff8XimhMM40iTQqVMRJp13HI+sp8nLqGnJOFI7rThIwAYCs+ctwcMvzLPBcjom5ftlFdX7pTMz0+d4vmh1QZ/2ofqCxAYAju8JVr2trrlgFDq1L8j054zxOUxAFHQD/EGHvf7P3T//+Sgi1ewtoC0BBjtWPayuuPxU5OVxl6nBaaI0EvAsgfvuewar12z0bPxeDvyiC09Au3YhLyNwZeyyqQZo3ORK7RRtNoGGxhj+cuerqKnTsvM26Y+j75QF3m7AvuUJ8XzRSoEYXxxeJAT66fi22Wm7jrj0zBE8JqMDfib7zCqAyG2vLcJFXyzF44+/oc0/HZtLYNCgPjh27AHmCqQyEiABzxKIxxNQfRnVjmEO7xEYOnQgjjh8mPcCd3nEsm4tEG90eRSUbyKB595YgNfeW6RFmgBWTK2IsPnrZvosWgGYMCS0t0yKDwBo4XHEAQNw1IEDtXxD0GmGEvAFIQq7aQ1OHRFMJJJaNdC5eQQmlB6Fnj07myeMikiABDxP4PkX30P5p196noOXAVx91enIydFzA7OXubcldlmzCkjG2mKCa0ngFwRWravGtf96Xd+HGFKcXlZZ9RBT00xAS5HGRPilJWF1RFDb1pRTjhyC4Xuyx4uJz4Y7NQmIUA9A6Gt0fcutD6O+np98ufP5sUd1Xl42Lrv0VO4stQcvrZIACbSRwDXXlul7g9JG7VxuDYETThiJAf13sMYYrThCQNasAJIJR3zRiTcIqN22t09/F19+u1ZXwNVlFZGwLucm+mXRanNWSgeHr4LEzTqTVDpub+y5ay+dEug7kwhkhyByirRF9OZbn+C99yq0+adj8wgcduheGDaMl0+YlxkqIgESWLZsDcqmvUgQHiyLaVEAACAASURBVCcQCuXj4otOhM+n70M/j6egxeHz5sAWI+OCbRD4ZMEyTH1yjjZOAvLhqRXVp2kTYKBjFq3+lxRRWhKuBZCnM09njt0Te5f01imBvjOFgC8AUajv+uaGhihuuXUGbyDOlOfJgjjUG4GiokILLNEECZAACVhL4B//+A+qa+qtNUprriRw3rnHoksXbYcvXMlMm2gpkSpacZCARQQ0N19XUcRkfqTDtPdRY1FIGWGGRasfpbG0JPQyII7QnVkeFdSdgczxLwp7AD6/toBUQ9tYLK7NPx2bQ6DXdl1RetaR5giiEhIgARLYTEAdBVFHAzlIQBHo23c7nHLyoYThBgLxRqQasXOQgEUEnni1Am/N+doia60yM7+sIlLcqpUZvIhFqx8l98ySoiI/pPrJF9Sd8+NHFePgYX11y6B/txMI5kPkddAWxR13PoFNm6q1+adjcwic9rvDsdNOPcwRRCUkQAIksJnAx3MX4ZVX3icPEviBwGWXnoLCQq2HL5iNNAjIpgjQGEljJqeQwLYJfP3dOtw27Z1tT7RvRlIKMWRaeVWlfS7caZlFq5/lbUJJ0fsSch8T0nn0yF0xanh/dss3IRlu1SB8ECF9t6XOmbMAr83UdybcrWnLNN2BgB9XXvE7ZGVp/zwg09AyHhIgAQsIXH/DA4jH2cjZApQZY+Lgg/fEfvtys4PpCU3tsorz0h/T8+QGfU3ROK6753Ws31SnU+43ZRWRnXUKMNU3i1Y/y8y5xR16xER8KYCACUk7YsQAjDlwAIRgqkzIhxs1pHZaBfO1SFdHA2+8aTpvY9JC3xyn++9XgpEj9zBHEJWQAAmQwGYCyWQS1143jTxI4CcE/H4frrrydGRlGfF2gNn5DQKyZhWQjJEPCbSZgAHHAiWSOKRsfuTNNgeTgQZYCfmVpJaWhOcCMOYd1qj9++PokQNZuMrAb0BHQtLckF0VraJRvqBwJNeGOvn9+cejY0d9N1kaioWySIAEDCAwb94XePGl2QYooQTTCPzu1FHo00ffbnXTeJioR9asAJLcJWlibtyk6eul63DbA1qPBSpc35dVRLZ3EzcntbJo9Su0z9qzfS9fLLHElN1WSuKh++6CsYfsxsKVk98dGeRLFHYFfFlaIrrr7iexYQP7DWiBb4DTTp3a4fxJxxmghBJIgARI4JcEbr55BhqbokRDAr8g0LVLe5xzzli+9jb42UjdHCilwQopzXQCqWOB976O9Rv1HQuU6imW8vAHKqtnms5Llz4WrX6DfOng8H8hMVxXYn7N7+gD1FHBgSZJoha3EPBnQRR01aL2448X4pVXP9Dim071EzjpxEPQrx8/ONKfCSogARL4OQHeGshnYlsELrzwBLRvF9rWNP69DgJSIlW04iCBNhB4/JVyvP3RN22wYMnSr8oqIrtYYilDjbBo9VtFq4Gh9giKVQD0bE/5DV3jRpVg5DD2Z8vQ70cbwxIQoR6A8Nno49dNq+a2N9z4IPtaOU5ev0PVE+SKy09FTk62fjFUQAIkQAI/I7B27Sbcc+/T5EICv0ngwAOGYMSIISRkIoF4I1KN2DlIoJUEvliyFrdP/28rV1u2LImAHFb2SfXHllnMQEMsWm0lqaUl4UcAnGJa3s8YuyeGlfQ2TRb1mE4gmAeR11GLypv/NgONjTx+oQW+RqfD9y/BQQcZ0x5QIwm6JgESMJHAY4/PwhdffGeiNGoyhIDf78fVV52GYJAN2Q1JyQ8yZFM10FhlmizqcQmBhsYYrr1nJjZFGnQr/risIrKXbhGm+2fRausZEqUlYVXC1/NO/ze0qZsELzljBPru0Mn054v6TCIgfM27reD8t/3jj7+BRV+oSzk5vETg0ktORiik5+ZKL3FmrCRAAi0nwKOBLWfm1RVnnjEavXt382r4xsYt69cBMe0FB2P5UNjWCUx/7hN8WP6tXkwCjUkktnugvHadXiHme3f+3av5TH6isHRIuzFIJp8D4Py5qq2wys0J4s/nHYr2RXkuI0q5WgnkhCGyw45LWL+hCnff/ZTjfulQH4Hi4p0x9pgR+gTQMwmQAAlshUAymcS1100jIxLYJoEdduiOM04/YpvzOMFZArJmFZDk7dTOUs8Mb/O/XIl7/vO+9mCkxH3TKiPnaRfiAgEsWqWRpNKS0GxA7JvGVEendO8cwpVnj0ROFrcsOwrezc6Ef/NuK+eDuOnm6Whq4osL58nr8XjRhSeiXbtCPc7plQRIgAS2QaCqqga33/E4OZFAWgRUf8b8/Ny05nKSMwRk9XJAJp1xRi8ZQ6CuIYrJd72Gmrom3TGtKauIqC2cvP4yjUywaJUGpEkDOhU0ZUVXAjDuHVhJ/x4458R9IJjJNDLJKYqAyO8MBHIch/HMs+9g/nztt3M4HrcXHe65xwCMHr2PF0NnzCRAAi4h8MabczF7dqVL1FKmbgK/+90o9Nmpp24Z9L+FAG8O5LPQSgJTn5yDTxZov3UyKaU4flpl1bOtDMNzy1jqSDPlE0pCRwDieQkYt63ptKP3wL5DdkgzEk7zPAFfEKLQ+d4MsVgcN908A+pIBkfmEvD5fLj00pNRwE+kMzfJjIwEMoDA3//+CGrr2A8nA1LpSAj9dtkeJ510iCO+6CQNArF6yPr1aUzkFBL4H4GKRStw32MfaEcigbnTKiJDtQtxkQAWrVqQrNKS8L8ATGrBEkemZgUDuObCUWgX4rZlR4BngJNUQ3bhdzySO+96Ahs3Vjvulw6dIzDqsGHYe++BzjmkJxIgARJoIQE2YW8hME5PEfjj/53JWwQNeRZk3Vog3miIGspwA4HGpjj+cuerqK7V/tw0JYLx3g/OrVvtBm6maGTRqoWZKC0JzwVg3B3uO2/fCZecOQI+H1PawpR6c7o/G6Kgi+Oxr1ixDlPLXoB6w8CReQQ6dAhj0nnHwe836t6KzAPNiEiABNpEIJFM4jo2YW8TQy8uPn/S8ejUqciLoRsXs6xeAciEcbooyFwC05+biw/L9d9k7hPi7n+XV11gLikzlbHC0cK8HN6nT3a3gnWLBdCjhUttn37coYNwyL672O6HDjKBgIAIq94Mzv8IuPtfT2H9+qpMgMgYfkRAHQu88IJxKCoyrvUf80QCJEACPyEQj8dx/Q0PkgoJtIjAuHEHYeCAHVu0hpNtIMB+VjZAzWyTi5aswR3T39UfpMDisvJIH/1C3KfA+Xes7mP0C8VnDS7o5JP+rwAY9XFLTnYQN106Grk5wQygzBBsJ5BVCJHbznY3P3dQW9uAf/zzUfa2cpy8vQ6POmp/DBnMorm9lGmdBEjACgLr1lfhX/96ygpTtOEhAoMG9cGxYw/wUMRmhiqbIkBjxExxVGUcgWgsgWvunokNVXW6tcV8MjH435W1n+sW4kb/LFq1MmtnFxcMTIjAXAFpVCMp1ZBdNWbnIIFtEhA+iJCem3BefW0OPvpowTYlcoI7COy5R3+MHr2vO8RSJQmQgOcJfPbZN3j6mXc8z4EAWkagffsQLrzghJYt4mzLCcialUAybrldGsxMAo+9XI53Pjbg9nKB+8vKI+dmJmX7o2LRqg2MzyoOHeYT4nkA2W0wY+lSIQSuueAwdO7AIzqWgs1QY6KgG+DXszPv/inPYtWqDRlK1jth7bBDd5x+2uFQP3s4SIAESMANBGbN+gjvf/CZG6RSo2EE/vTHsxAIOH+RjWEY9MmRScjq5fr807OrCCz8Zg3ufMiAY4HAkrKKyE6ugmeYWL7LaGNCSktCowHxtEmFq/47dcFFpw9vY2Rc7gkCmhqyK7aqGbu6TXDTphpPoM7EILt374jxZ43hC/hMTC5jIoEMJjDjoVexZMmKDI6QodlF4NJLTkYolG+XedrdBgHZsAGIaj/mxTy5gMAXS9amClbJpPbLn/7/AUUx9MGKqgoXYDNWIotWFqTm7CGFRyaSvqcFkGWBOUtM/N+5B2O7bs73K7JEPI04R0DjEUEVpPpFcs+9T7Mxu3MZt8zTTn164tSTD4VqwM5BAiRAAm4icN99z2L1Gu70dVPOTNF6we/HQd2Uy6GHQGqXlUzqcU6vriCgPhR/48Ov8fTMSiP0SoGyaeWRCUaIcbEIFq0sSp4qXCWTPtXV04ijgrv27Ybfn7qfRdHRTCYT0HlEcAtX9an3t9+ugNT+YUgmZ9q62AYP7oujxgwHTwRax5SWSIAEnCNw+x2Poaqq1jmH9JQxBCaddyw6d26fMfG4KRAZrQUaNrpJMrU6TKChMYYHnvkI879c5bDnX3cngMVTK3hboBXJYNHKCoqbbZTuVjQcPjkTAjkWmm21qWsvPBydOxS0ej0XeoRAIAciv7P2YD/99EvMfH0Omppi2rVQwK8TUH08jjl6OHbdlcfy+YyQAAm4l8BNN0/n7xr3pk+r8olnHwN1NJ7DeQKyegUgE847pkdXEFi6fGPqOGB9ozHvI2IBkSi5v7x2oSsAGi6SRSuLE1RaXDQYQr4HQPuB98EDeuKcE4dZHCHNZRwBzUcEf8xTbel98sk38dXXyxCP84WJSc9aQUEezjv3WOTnG1GTNwkNtZAACbiMwLXXTUMyySNGLkubEXInlB6Fnj31f9BnBAwnRSSikLWrnfRIXy4hEIsn8PybC/DGB18ZpljcUVZRdbFholwrh0UrG1J3dnFh34TwzRVAyAbzaZv0+3247aqjkJOt53a4tIVyonYCIryddg0/FpBIJPDaa3Pw+cJvUV/faJQ2r4nx+QQG7dYHRx01HOrfOUiABEjA7QS408rtGdSn/+wJR6NHj076BHjUM3dZeTTx2wh7U3UDbpv2DtZvMu24t/y8rKJ6V2bNOgJ8B2Idy59YmjCofU/pS6gOcFoPvh8xYgCOOmigTVHSbKYQSB0PDJi5g2bxkhWYOXNOqv9INGrMlt9MSf1W4ygszIP6VDkc5jFjTyScQZKARwj8/bZHUFvb4JFoGaaVBHg80EqaadqKN0LWrU1zMqd5gYDqgfvp58tQ9tRHSJrXELfJ7/f1nTJv0/deyIVTMbJoZSPpibsXdkwkfV9AooONbrZqumO7fFx30RFsmKwrAW7xmx2CyCkyXu23367EW29/gvXrI2hsjEIdJ+SwnkB2dhAHjBiCYXvvBvC3hPWAaZEESEArgTvufBybNtVo1UDn7iRwzsSx6NZN28t6d0Jro2rusmojwAxbro4DPvzCJ/io0syakJTiummVVX/JMOzaw+HbEZtTsHnH1efQeFRQ3SKobhPkIIHfJGBIM/aWZEjtupr36ZeYN+8L1NTUIxpVRayWWODcnxNQR4p323UnHHX0cPh4NSAfEBIggQwlUDbtRSxbtiZDo2NYdhI495yx6NqVRSs7Gf/EdrwBsm6dY+7oyGwC9Q1R3Hj/G1i/qc5UoeVlFZEhpopzsy4WrRzInupxlRS++QCyHXD3CxeDdumOSafsq8M1fbqFgC8AUdjdLWp/VafqfTX344WoqPwatXUNiMXiro7HSfGqWLXjjj1x0okj4ff7nXRNXyRAAiTgOIGnnnobCz5f7LhfOnQ/AXUhSZcuWjt/uB9iCyKQ1csByUsTWoAsY6eu3ViLG+97A43m3jIeFUn/TlPnb1yesUnQGBiLVg7BLy0JTZIQdwsNh22ygn784w/HIOD3ORQt3biOgM8PUdjDdbK3JnjV6g14551P8f33q3mU8DdABQJ+7LhjD5x44sHw+/jzIaO+ARgMCZDAbxJ44425mP2+ajvKQQItIzDpvOPQuXO7li3i7NYRiNVD1q9v3VquyigCX367FnfMeBfJpLlHKqTEzdMqI3/IKPAGBcOilYPJKB0cegFSjHHQ5Q+uTho9GAcM7aPDNX26gYDwQYR6ukFpqzRGIjV46eUP8N13q9nMHUBWVhCDB/fFqMP2huAxwFY9U1xEAiTgXgJzP/kCL788270BULk2Ar8//3h07Gh+D1BtgCx0zF1WFsJ0san3P/0WDz3/idERCIHPppZHBhkt0uXiWLRyMIGpxuwJ30oAQQfdplzt2KsDrpxwkNNu6c8tBDK8aPXjNCz6Yileemk26uoa3ZIdy3Tm5GTh4EOGYo8h/SyzSUMkQAIk4DYCy5evw9Sy590mm3oNIHDRhSeiXbtCA5RktgQZrQEaNmV2kIxumwQ+qvwODzzz8TbnaZ6Q8Puxy5R5EZ45tzERLFrZCPfXTJcWh2ZAiNMcdptyd8uVRyGUr6Wtlo5w6bMlBDxUtNqC5bvvVuGpp99BTY2xzRxbksHfnOvz+VIvsE8/7XCEwwWW2KQREiABEnAzgWgshhtvnO7mEKhdE4HLLj0FhYV5mrx7x62sXgberuOdfP9apOULl+P+xz90AQRxR1lF1cUuEOpqiSxaOZy+0wYVdM7y+VcBcLyBzKH77YJjD+HORYdT7g53HixabUnMF198h2eefSfjjg0GgwGUFO+MI47Yh0cA3fFdSJUkQAIOEYgnErj++gcc8kY3mUTgqitPQ24uPwC2M6eyoQqIVtvpgrYNJ7Dg61W4+2FXHOFeVFYRGWA4zoyQx6KVhjSOLwm/JYADnXbdtWMhJl8wymm39OcGAh4uWm1Jz9vvzMPs2ZVIJNx9S406Ajj2mAOwyy7bueHJo0YSIAEScJxAMpnEtddNc9wvHbqfwJ/+eBbUJSYc9hGQkWUAzG24bV/ktKwIrN1Qg8l3zzS66frmTCV9Mtn/35U1XzFz9hNg0cp+xr/wMH5w4VFC+rQ0U/jTeYegZ1c2kNSQdrNdsmiVyk88nsDDD7+G775fDSnd84LJ5xPo1Kkdzjh9NPLy+Amw2d9sVEcCJKCbgPr5fs21Zbpl0L/LCGRnB/GHq89wmWp3yU3dFhird5doqrWMQCyewFV/fwn1DVHLbNpo6IayisifbLRP0z8iwKKVpsehtDi0CkJ0ddr9XsXb46xjhzrtlv5MJ8Ci1U8ytHbtRjw4/WXU1zcZnTm/34c99uiPw0cNM1onxZEACZCAaQRuvOlBRKNx02RRj8EEunbtgHPPGWuwQvdL4y4r9+ewtRGoj4pvuOd1LF8Taa0J59ZJvFlWGTnYOYf0xKKVpmegtLhoBoR0vCF7YUEObrl8DHjLvabEm+qWRatfzcxHHy/EzJkfGrdFmUcATf1Goi4SIAG3EHjq6bewYMESt8ilTgMI7DpgBxw/bqQBSjJTgqxbB8QbMjM4RrVNAo+//Cne/tgVF/At7XVMZKfJk+HufiLbzIhZE1i00pSP8YPDewiJuTrcnzJmdwzfY0cdrunTVAIsWv1mZhLJJB57bBa++WaZ1otshBDo23c7jDv+IPbTMPX7iLpIgARcQ0BdwvHY47Nco5dC9RM49JCh2GcfXmhkVya4y8ousubbXbepFn+54zXzW3NI1PgDvl5T5m1ywXYw8/PeEoUsWrWElsVzx5eEvxLAzhab3aa5Hl3C+POkQ7c5jxM8RED4IUI9PBRwy0NtaGzCjBmvYtWq9S1f3IYVWVlBHDt2BPr1690GK1xKAiRAAiTwYwKqh+H1N/AGQT4V6RM4/bTDseOOfK2UPrH0Z8r6dUCMu6zSJ5ZZM/90+ytYv6nO6KAkEA34MWDKvIgrtoMZDbMV4li0agU0q5acVVJ0uw/yIqvstcTOxBOHYciAni1ZwrmZTIBFq7SzW1NTh4cengnV98quoRqrDxnSD4cdtheCgYBdbmiXBEiABDxLIJmUuPY6NmP37APQisBVPyvV14rDegLcZWU9U7dYfPyVcrz90Temy00gmSgpm1+7wHShmaqPRSuNmS0dXLQ9pFyqQ0L7cB5uvHS0Dtf0aSIBFq1anBV1Zfrrsz7GnDnW/P5SV2jvuecAjDxoDx7/a3E2uIAESIAEWk5g8jVTW76IKzxL4IrLT0V+fq5n47crcNlYDTRV2WWedg0mUF3bhKtve9G43rE/Q9bk92Mgd1jpfZBYtNLLH6XF4U8gsLsOGSOG9sHJowfrcE2fphFg0arVGZESqK2txxtvzsX8+d+kfR6/sDAPuw7cAUOH7oqiogKonlUcJEACJEACzhF4/oX/orz8a+cc0pNrCWRnZ+EPV5/uWv0mC+cuK5OzY6+2v9z5GtZuqLHXSdusb8xKoM+9n0U2tc0MV7eVAN8ltZVgG9dPGFx0mZTy72000+rlV0w4EDv16tjq9VyYIQRYtLIskerICSBTV6nX1jYgGo0hOyeIUGE+/H4fAJG6vZNFKsuQ0xAJkAAJtIrAxk3VuPPOJ1q1lou8RWC33XbCccce6K2gnYg2EYWsXe2EJ/owjMALby7AK+8uMkzVT+R8myiKDHjwHTSaLNIr2li00pzpcQOQFcoKqxJzlg4pBXnZuOXKMfBxl4cO/Ob45O2B5uSCSkiABEiABBwhIKXENdeyr5UjsF3u5KQTD0G/ftu7PArz5MvqFYBMmCeMimwl0NgUw+V/ewHxRNJWP601LiBfilRUH/MkwIeztRAtXseilcVAW2OutCT0HCCObs1aK9b07d0Jl551gBWmaMOtBFi0cmvmqJsESIAESKANBK67fhoShr5xakNYXGoxgYsuPBHt2hVabJXmZOR7QvAggRvuewPLVhl64k7KC8oqq/+VOjbBYQwBFq0MSMWZJeFD/MDrOqUcc8ggjNpvF50S6FsnARatdNKnbxIgARIgAU0EPvxwAWa+PkeTd7p1A4GsrGCqnxWP9VubLdmwAYjWWWuU1ownsODr1bj74feM0ymA2pj07z29cuPnxomjILBoZchDUFoS/gzArrrk+H0C1150BDoU5emSQL86CQgBEeqlUwF9kwAJkAAJkIDjBFQfwmuv4xFBx8G7yOH++xVj5Mg9XaTYHVLZgN0debJa5ZW3vojqWuPaRL1SHY2MfXIholbHS3vWEGDRyhqObbZSWhz6PYS4q82G2mCgfTgPN1wyOtUkmsN7BER4O+8FzYhJgARIgAQ8T2DyNVM9z4AAfpvA+ecfh04d2xGRlQRijZD1a620SFsuIPDIi/Pw3idLTFIqhRTHT62sepbHAU1Kyy+1sDxhSH7GjYM/9HVY/fRur1NS/x274KIzhuuUQN+aCIjC7oAvoMk73ZIACZAACZCAHgIfz12EV155X49zejWaQH5+Di6/7FQeDbQ4S7J6GSDZMshirEabM6/5uliIWHL/ss+rNxoNjuJSBFi0MuhBKC0J3wrgct2SjjpoII4YMUC3DPp3mkBuO4gsNhl1Gjv9kQAJkAAJ6CWg3jtfe+1Udt3VmwYjvR9z9AiUlOxspDb3ipJoPhrI4SUC1987C8tXV5kRspB/XhyuvvmddxA3QxBVbIsAi1bbIuTg31/QB9n1BandViEH3f7Clc8n8IdzDkavrkU6ZdC30wT8WRAFXZ32Sn8kQAIkQAIkoJ3AXXc9iQ0bI9p1UIBZBNQuq4KCXLNEuVyNrF0NJNg6yOVpbJH8BV+twt2PzG7RGpsmx6RIjphWXvOhTfZp1iYCLFrZBLa1ZieUhCZLiL+2dr1V6wrysvG3K8ZANWjn8AgB3iDokUQzTBIgARIggZ8TaIpGcdNNMwiGBH4gsEvf7XDyyYeSiMUEZOR7iy3SnOkErrjlBdTUNWmWKVb5/YlBU+bVrNcshO5bQYAViVZAs3PJuAHICmWFVwDoaKefdGz37tEeV08cmc5UzskQAiLUExC+DImGYZAACZAACZBA+gTuvvtJrN/A3VbpE8vsmRPPPgbdu2t/OZ5RkGXDRiBam1ExMZitE5j+7Fx8WLFUN6ZIIprV78GF61brFkL/rSPAolXruNm6qrS46BII+Q9bnaRpfP89dsKpY4akOZvTXE8gkAOR39n1YTAAEiABEiABEmgpAbXb6uabZ7A/dEvBZeD8QMCPP1x9Bvx+fpBnZXq5y8pKmubbqmtowpW3vIhEUm/TfR+S+/67ouYD84lR4W8RYNHKwGdjMuBbXhKeI4E9dcsTQmDiicMwuH8P3VLo3xECAiLcyxFPdEICJEACJEACphF4fdZH+OCDz0yTRT0OEzj88GHYa+hAh71mtjupdlipnVYcniEw+e6ZWL2uWmu8Uoo7p1VWXaRVBJ23mQCLVm1GaI+BswYXDPBJ/+f2WG+Z1aygHzdcMhqF+dktW8jZ7iSQVQiR286d2qmaBEiABEiABNpI4MabpiMajbXRCpe7mcCll5yMUCjfzSEYp735xkC9O26Mg5LBgj6e/x2mPf2x1gglsDbgj+wwZR7qtQqh8zYTYNGqzQjtM1BaHLoNQlxqn4f0LXcoysf1Fx8BwScmfWiuncndVq5NHYWTAAmQAAm0mUB9QyNuvfURSMk32G2G6UIDO/TuhjPOGO1C5QZLTjRB1q4xWCClWUlA/ey85Kbn0NgUt9JsK2zJI8sqql9uxUIuMYwASxCGJeTHci7og+z6/PBCCOxogsx+O3bBxWcMN0EKNdhNwJ8FUdDVbi+0TwIkQAIkQAJGEvh26SpMn873OkYmx2ZRZ084Gj16dLLZi7fMy+plYLM47+T81qlvYfGyDVoDFhCPTK2oOo3b+7SmwTLnLFpZhtIeQ+cMLiqOS1kOQHuulIDDh/fHUSN3tSdYWjWKgMjvAgR4JNSopFAMCZAACZCAYwTee68Cb771iWP+6Eg/gWDQj6uvYgN2SzORiEHWrrLUJI2ZS2D+lytx76Pva65RivpYVmK7GR/X6K2cmZsm1ynTXghxHTENgkuLw1dB4GYNrn/h0ucTuGz8AdipF68ANiEftmoQPohQT1td0DgJkAAJkAAJmEzg6affwmcLlpgskdosJDBmzP7YfcguFlqkKVm9HJBJgvAAgVg8ictufh7RmOZjgUmcXTY/MtUDyD0TIotWLkj1OMAfKgm/AuBQE+Tm5gTxt8vHQDVo58hwAjwmmOEJZngkQAIkQALbIvDoo6/jy6++39Y0/n0GELji8lORn5+bAZEYEkIyBlnDXVaGZMN2Jvly1QAAIABJREFUGX+98zWs2VBju59tOCjvVRQZOvkdaK6c6caQWf5ZtHJJPk8fWtghGPV9DcCIa926dQrhr78/zCX0KLNNBLJDEDlFbTLBxSRAAiRAAiTgVgKqH/vDj7yGxYuXuzUE6k6DwID+O+CEE0amMZNT0iXAXVbpknL/vMdfKcfbH32jPRCRlMOmzq+eo10IBVhKgEUrS3Haa2z84NDhQgq148qIMXhAT5xz4jAjtFCEvQREQRfAz/5W9lKmdRIgARIgAVMJqNuwnn32Hcz/bLGpEqmrjQQmTToOnTsZ8dlwGyMxZHkyDlmz0hAxlGEngdXrq3Htv15HMqn3xlUpUTatMjLBzlhpWw8BFq30cG+119KS0O2AuKjVBixcKITASaNLMGLPPhZapSkzCQiIwu6Aj0dCzcwPVZEACZAACThB4I23PsHs9yqccEUfDhIoKirEhRecANW7lcMaAtxlZQ1HN1i5/G/Po7Y+qltqUzSZ2O6h+bVrdQuhf+sJ8Cez9UxttXhBH2TX54ffgcDetjpK03jA78NVE0eiV1ceH0sTmXunCbG5MTt/bLg3iVROAiRAAiTQVgJz5y7Ey6980FYzXG8QgdLxY9CrVxeDFLlcSiIKWbva5UFQfjoEbp/+Lr5YsiadqbbOEQKTppZH7rXVCY1rI8B3n9rQt97xxN3zusUTwS8EEGq9FetWZmcFcN1FhyNUkGOdUVoykwBvFDQzL1RFAiRAAiTgKIGFi5biySffhDo2yOFuAvn5Objs0lPg8/ncHYhB6rnLyqBk2Chl8fcb8Pdpb0H3j0Ep8FlNU2SPJxdC+3YvG3F72jSLVi5N//ji8KFCYKYp8vPzsjD5glEozGPfI1NyYpsOX6D5qCAHCZAACZAACXiYwLdLV+Ghh15FMpn0MAX3h37mGaPRu3c39wdiSAQy3gDUrTNEDWXYSeCyvz2POv3HAgEp9yqrrP7YzlhpWy8BFq308m+T9/ElRZMF5F/bZMTCxbk5QfzfOQejU/sCC63SlJEEfFkQhV2NlEZRJEACJEACJOAUgVWrNqBs2guIxxNOuaQfCwl06tQO5507lrusLGMqISPqlk3uQLQMqaGGnpk1H6/P/lK7OinlXdMqqy/ULoQCbCXAopWteO01PvkABJZtCr8IgVH2ekrfelbQj0mn7It+O7IvQPrUXDozkAWRz8KVS7NH2SRAAiRAAhYR2LAhgvunPIdoNGaRRZpxisDvzz8eHTuyL6tVvGW0FmjYaJU52jGUQCyexMU3PIuE/l2mkQRE7wcrqqoMRUVZFhFg0coikLrMnD60sEMgJhYIKYypHqibV44Y3h9HHjhQFxb6dYpAMBcir5NT3uiHBEiABEiABIwkEInU4r77n0VDQ5OR+ijqlwRKinfG0UePgOC7IYseD7XLaplFtmjGZAK3Tn0bi5et1y5RCIybWh55SrsQCrCdAH9M247YfgdnloT29EPMAWBMB0n1YA3q1x3nnbyv/QDoQS+BrHyI3A56NdA7CZAACZAACWgmUFfXgPvvfw7VNXWaldD9tggEgwFccfmpyMoKbmsq/z5NArKpBmjclOZsTnMrgfrGGC67+XkTLqGYVV0ROfxJgGez3fowtUA3i1YtgGXy1AnF4YlS4H7TNPboEsbVZ49EMOg3TRr1WEkgJwyRHbbSIm2RAAmQAAmQgOsINDZGMeXfz2HjxmrXafeS4HMmHoNu3Tp6KWR7Y5USspq7rOyFbIb16++dheWr9Z7Gk4AM+LHzlHmRxWZQoQq7CbBoZTdh5+yLCcXhf0uBUudcpudJ3Sx4+fgD0a1TKL0FnOVKAiK/MxDIcaV2iiYBEiABEiABqwiowtU99z6N6mruuLKKqZV2Rh64B/YfXmKlSc/bkk3VQKPeQobnk+AAgJq6Jlx564v6d1lJeUFZZfXdDoRMF4YQYNHKkERYIWPi7shLxMPvQmB3K+xZacPv8+GMY/fE0N22s9IsbRlGQIR6AIK76gxLC+WQAAmQAAk4TKCurjFVuFJHBjnMIVA8SPWxGg7Vf5XDIgLcZWURSPPNXHfPLKxYo7s4KWf7/dUHTZkH3nxh/iNjmUL+xLYMpRmGJg5ot108K/mZAIzb1iSEwCH79MWxhw4yAxZVWE9A+JAqXIE/WqyHS4skQAIkQAJuIlBVVZNqzq52XnHoJ9CjRyeMP2sM/H5jWsDqh2KBAtkYAZoiFliiCZMJNMUSqRsDpZT6ZAokZBx9p30WWaJPBD3rIMB3ljqo2+xz/ODwwUJils1uWm1+0C7dMekUNmhvNUDTFwbzIPLYJ8L0NFEfCZAACZCA/QRWrlyHaQ+8hHicvYLtp/3bHrbfritOO+1wBALcDW5pHrjLylKcJhv754P/xZffrtUsUZxZVlE1XbMIutdAgEUrDdCdcFlaEr4SwN+c8NUaHz27FuEPE0fy067WwHPBGlHQBfBnu0ApJZIACZAACZCAvQQWLfoWTzz5lt4dCvaGaLT1AQN3wHFjD+RrThuyxF1WNkA10KTaXTXpmqf1/gwT4qFe5VVnTgaSBiKiJJsJsGhlM2Bd5seNgz/0VfhxCBynS8O2/BbmZ+NP5x2CcGHutqby791GQAiIUE8eE3Rb3qiXBEiABEjAFgKzZ1fijTfn2mKbRn+bwL77DMLIkXuyh5UdDwl3WdlB1Uib05+diw8rlmrT9v8vGlsW8Pl2mzJvE8+hasuCXscsWunlb6v3ibu3CycSSfUKaWdbHbXBeFbQj7+cfxg6tstvgxUuNZJAbnuIrAIjpVEUCZAACZAACThN4Nnn/ovKyq+ddutZf+PGjcSA/jtA8N2OLc+AbKoBGjfZYptGzSIwafJTSOrsZSXFkLLKqnKzqFCNkwT4Y9xJ2hp8nblbYT+/31cBwNizWqoh5h/PPRjdO4c1EKJLOwmIUC/w1aKdhGmbBEiABEjALQTUEZsHp7+M775b7RbJrtRZkJ+LM84YjU6dilyp3xWiU7uslgPQ2JTbFaDcL/L12V/imVnz9QUi5F/Lyquv1SeAnk0gwKKVCVmwWcP4weHjhMRTNrtpk3mfELhq4khs371dm+xwsWEEskMQOXzRaFhWKIcESIAESEATgVgsnrpRcMMGnnKxIwV77zUQhxwyFH4/G67bwXeLTRmtAxo22OmCtg0hMOmap5BMaitOfuf35w+YMm9lvSE4KEMTARatNIF32m1pSfhGAH9w2m9L/AkhcN1Fh/OoYEuguWAud1u5IEmUSAIkQAIk4BiB2toG3Hf/M1BfOawhkJ0dxAnjRmKnnVQ/TQ5bCahdVjXLAZ3HxWwNkMa3EKhYtAL3PfaBNiACcvTUiupXtAmgY2MIsGhlTCrsFTJxdwQT8fBjEDjWXk9tsx4M+HHjpUeiMD+rbYa42hwC7G1lTi6oxDwCMgGZiAPJOCATm/8kf3riQjVk8QUA4YfwBwE/fz6al0gqIoGWEVi7diPKpr2EpqZoyxZy9i8I7LdvMUaMGIxgMEA6DhCQsQagfp0DnuhCN4ELr38W0Vhcl4wv/f7IblPmIaZLAP2aQ4BFK3NyYbuSU/dqH8ppSrwLoNh2Z21wkJsTxM2XHYnsLL74aANGg5YKiDBvEjQoIZTiJIFUUSoGJGOAKk5JVaBKNP9RRapWDQH4A4AvCASyIQK5zUUtDhIgAVcRWL5iHWbMeAXRKN+TtSZxPXt0wpgx+6NLl/atWc41rSHAXVatoebKNR+Uf4sZz32iTbsADp1aEZmlTQAdG0WARSuj0mG/mHOLO/SIibhqzN7Rfm+t99A+nIfrLz6CVxS3HqFRK0V+ZyCQY5QmiiGBVhFQhaZkAlKq3VDqjyo+bfn3JJDc8v/UvKRzTWqFHwhkAYE8iKw8APz13qr8chEJOEzgu+9X4+GHX4PqdcWRHoHCwjyMHr0v+u2yfXoLOMsyAjJWD9Svt8weDZlJQN0UeP41T0NdHqFpLK+ORnZ6ciG4FVVTAkxzy1e1pmXEAT3jBxcVCynfB5DvgLtWuyjp3wPnnLgPL59rNUGDFqpjTaEeBgmiFBLYCoFkHDIRBdQfdWxvy9E9J4tQbU2QPxvIUgUs9WPe11ZrXE8CJGAjge+/X4P/PDoTjY18f7Y1zKpv1aGHDsWQwf2g+qByOEyANwY6DFyfuztnvIuFi9doE5CUOOmBysjj2gTQsXEE+BPfuJQ4I2jCkPDuSIr3JGSuMx5b5+Wk0UNwwNCdWreYq4wiIAq78wiTURmhmNSOqUTT5uKUOsK3pUCl7ZNFe5KidjkG87kDyx66tEoClhBYv74KMx56FdXVdZbYyyQjWdlBHDJyKIbsvgv8PhbhdeVWNtUAjZt0uadfhwh8/Nn3mPbURw55+zU3ol42BLpO+3J9jUYRdG0YARatDEuIk3JKi0NDIYTqcZXtpN+W+vrL+Yehe+dQS5dxvmkEAjlIHRPkIAGnCajt7cno5t1TqrfU5h5T6lifl4bwAVmqeFXIArKX8s5YXUOgtrYejz3xJpYv07fDwSRY7dqFMHx4MQbttjP8fhartOZGJiGrl2uVQOf2E5hTuRQPPjPXfkdb8yDFpWWVVf/UK4LeTSPAopVpGXFYz4RBob2lT7wJQDVBMXLkZAdx21VH8QWLkdlpmSgR6gmoN84cJGAHAfWiOnWsb3NRKrVzSv17axue2yHSEJtq91VWAURQbbblSwFDskIZJJDqITN7diXefudTJFNHkr03dtihO/bZZzfs3KeX94I3NGJZtxaINxqqjrLaSkB9tjdz9iI898aCtppq63oZTCa63je/dm1bDXF9ZhHgK9XMymerojm7uP3ApEi8DaBTqww4sGifITvg9KP3cMATXdhKICcMkR221QWNe4GATBWmfjjap27lU8Upr+2csiLVqoG72n2VHWJB2QqetEECFhFYtnwtXnxxNtau3WiRRbPNqB5VxYN2xl57DUC3bkbfFWQ2SDvUJZoga7n7zw60JthsiiYw5fEP8Pk3qw2QI+8oq6i+2AAhlGAYARatDEuILjln7dq+ly+QeAtAH10atuX3T+cdgp5di7Y1jX9vOAER6gV21zc8SabJkwnIuOo91QTENzdIR4b1ndLOXADBvObilT+oXQ0FkAAJILXrav5n3+DddyuwYUMkI5F06dIeQ4bsgoEDdkRBgdFtVjOS/zaDUjuYa1byQ6FtgnLnhLmffY9HXypHvSmXQAjRu6y86jt30qRqOwmwaGUnXZfZPn9oYYfGJv+zEHJ/E6WrY4J/v/IoBAI8XmZiftLWlN8JIsAXpmnz8uLEZAxSHUNIFao23+DnRQ66YlZHB7ML+X2qiz/9ksDPCKji1dKlq/DZgsVY8PkSRJtirmWkLv1TO6n69euNvjv3QteuHVwbixeEy7p1QLzBC6F6Ksbq2kbMeO4TLPh6lTFxS8gZ0yqqzzBGEIUYRYBFK6PSoV/Mmb2R4ysK3yOAs/Sr+aWCow4aiCNGDDBRGjWlS0D4IEI92EcnXV5emJeIbt5JtblQxWN+ZmTdFwRyQhBB1fKQLxfMSApVeJ1ALJ7AksXL8e23K7FkyUqsXWf2bW7q2F/HjmH03r4bevXqgt69uyEUyvd6Gl0Rv4zWAQ0bXKGVItMjkJQSb37wFZ574zMkkobtWPfJncs+rf4mvUg4y2sE+CrUaxlPI97JgO/7kvBlArgljemOT/nH1UcjLzfLcb90aB2B1C2CajcHh/MEpIRMNSdXfaASP93yrz4CV43yN/8RvgDg81tbsEg1S99yzG/zTioWqZx/DlriUT0H2WGILBavWoKNc0nACQK1tQ1YtXo91q7ZhNVrNmDduips2lSDpqaoE+5/8KHeUKjjferGv44di6CO/XXt0h6du7RHbq7Rl1Q7ysk1zuKNSDVf58gYAivXRjD92bn4bqWBhW6Bp8vKI8dnDGwGYjkBFq0sR5o5Bs8qDh0mhHhaAEZ9JNZvx8646PThUJ/ecbiUAHdbOZc4VaRKHbVrBBLqTyuOlahm3akC1pY/zf8tUv/fv5UG3lsapkc3H/Vrai6WcbiTgOp1lV20+cZBd4ZA1STgFQKNjVFUVdWgrq4BdfWNaKhvQn19I6KxOGLRWOprPJZI9c1Suy9kMtn8VQJJ9eFCUsLn88HnE6mvfr8P2dlZyM4Opr7m5WYjvyAXBfm5KCjIQ1FRAYLBgFfwZnac6oh+jTnHxjIbtv3RJRJJvPj2Qrz23iL7nbXSQwJihwcrqpa2cjmXeYAA3/V7IMltCXHCoPAO0oeXAfRvix2r106+YBS6diy02iztOUkgr+PmY0dOOvWGrx/6Qak+FKonlN0jVUDe3GtuSzFZ7Z7iDiq7yeuxH8iByG3fXMTkIAESIAESyBwC6rh+3Rp1C0DmxOThSL5dvgEPPjMXazbUGEtBQN4+taL6EmMFUpgRBFi0MiINZouYNKBTQVNW9CEAx5iitEuHAvz196NSnwByuJeACPXcyi4d98bluHKZAGINkKpIFWsEeLOe4ynwpMPsEER2mLeBejL5DJoESCDjCMTqIevXZ1xYXgxI9at65b8L8fI7C00PP54Uie4PlNeuM10o9eklwHf8evm7xvu4cfCHvir6C4T8iymir544Er17tDdFDnW0hkAwHyKPNwe1Bl1qB1W8ATLm0G6qVonkoown4PND5LQDUs3aOUiABEiABFxHQB0LbaoCmszdjeM6phoFb6puwNQnPsTiZeY30ZdCXDitvOoujbjo2iUEWLRySaJMkTmhpOhoCfkUAO3nQsIFObjxstHw+zYfSzIFEnW0iIDI7wIE2KR1m9DUVn3VGDW1m6qeR++2CYwTHCUQzG0uXvHIoKPY6YwESIAE2kRAffjVsIn9JtsE0ZzF879ciSmPf4h4ImmOqN9W8nWiKjLowaVQRwQ4SGCrBFi04gPSYgJnlxSVJCHfBlDU4sUWL7j4jBFQjdk53ExAQBR233xLnZvjsEG7alq+ZTeVaqTOQQImExCiuXCVVWCySmojARIgARJQH4I1VTdf0sLhegLqEoXXZ3+J5974zDWxJIV/4APlG40/v+gaoBkulEWrDE+wXeGdXtyhR1AkPgZkd7t8pGM3LycLt1w5BgE/d1ulw8vYOeomuoKu7G+lGpcnmppv+1PH/njTnrGPLIVthQAbtfPxIAESIAHzCKjXGKpvlToGmGzFTcLmRURFAGKxBGY8/wnmfva9a3hIiZunVUb+4BrBFKqdAItW2lPgXgETd+/YLZGIVQLopDOKSafsi0G7aK2d6Qw/c3z7syDyO3uvcJXqTdUEqY78JZoyJ5+MxNsEuOvK2/ln9CRAAmYQSF3U0tj8GkO1F+DIKAINTTHcMf1dLF2x0TVxCWBxUzKn+KH5a+pcI5pCtRNg0Up7CtwtYMKg9j2lP/E1JHJ0RZIVDOC2q49CMODXJYF+rSIg/BD5nQB/llUWzbOjPun8oTdVA3tTmZchKrKSQCAXIrc9j/9ayZS2SIAESOC3CKgi1ZYPw9SubfXvHBlJoL4hir9Pewcr10bcFF806m/a+aF5je7ZFuYmuhmslUWrDE6uU6FNKAkfIoHXnfL3a37GH78Xhu62nU4J9G0lgewwRHYIEBnyI0q9iFSFqmgd+0dY+ZzQljsICN/mXlf57tBLlSRAAs0E1Ics6vdXMrH5a/N/yy3/P/VVTVRf5ebf2b7mr+pDKH+g+XIG4Qf8weavHNYRUMzVMb9EFFLt1I43sa2AdXSNtlRT14Rby97G2g0uu/HRJw8v+7T6NaPhUpyRBDLkHaGRbL0kSowvCZcJ4CxdQaueVrddfTSys7RfaqgLQeb5FT4gpwgiS73RdeGPqtRtfw2bC1Xckp95DygjajEBdcOg2nXFN64tRscFJGArAVWUUsWPZAwy0fwV6qsqSlk51O/1QDaEPxtI/cnKnA+nrOT0W7ZUn0u1c0oVqbiLygniRvqorW/CTfe9gQ2ReiP1bUXULWUVkavcJpp6zSDgwneCZoCjip8SmLh7u3AikVwLQNu5rlHD++OYkbsyNZlGQL3BzS6ECOY1f2Jr+kj1p6oD1K6q5o+gOUiABLYQULuuVOFKfT9zkAAJOE8gVaBShY/Y5sJHU/MuKV3Dnw0RzGUR69f4p24QboRUvajULiqri4i6ck6/rSbQ2BTHLWVvYuWa6lbb0LNQvur3Vx89ZR54A4CeBLjeK4tWrk+hOQGMH1x0upByuk5FN1xyBDoU8QiKzhzY6lv1x8nKA/w5ZvXIUZ9OqyanTbXNRyg4SIAEtk4gmAeR2467rvickIDdBDbvzkntzFHFD1W0Mnmo20dTRays5kKW14bKl7rhT33wxRv+vJb9rcYbiydwzyOzsWiJ2iPgniGB/+bXRg676xvwtiH3pM04pSxaGZcS9wq6oA+y6wvCKwG01xVF5w4F+POkQ9mUXVcCnPTrDzbvvlIvatUOLKd3YakXk+pGnmgtX1g6mXf6yhwCqRsG2wOpI8AcJEAClhBIXfbRtHl3jguKVFsNWgCpIpb6oCq4+TihzxJMRhnZckFLtKZ5RxUHCfyMQDIpMeO5TzCncqmr2Ehgbk1uZMSTH4J9MlyVOfPEsmhlXk5crejsweGDkxKzdAYxrKQ3TjtmD/gypYm3Tphu8v1Dr4ys5he3Pn/zLo7UHwt+1KkXlak+Ek2AOv6nPg3lIAESaDsB1eNGFa9Uo2YOEiCBlhNIXfbR5I0eiup3eiCruS/Wlg+s1P9Tv/PdNpLx5pxFq/Ue0XQbNw/qnTn7Szw7a77bIp/v9+cPmzJvpeuab7kNtBf0WvBOzguYGGO6BCbujmAyEV4ugc7prrFj3qj9+uGokbvC5+Mjbgdf19lUBa3Ui9vmIpZIvcBVNxypT2zVLUfqOVH/rSJT/5DNLyDVC8rNV0dzm77rsk7BbiOQabeGuo0/9bqPgPogRe32ZQ/F5t/jflXMytl8tFD9zje0EK76VDWpXVXcfOK+bzrnFX/+9Wrc9fB7zjtug0cp8FZyU2T0g0vR2AYzXEoCPxDgO3o+DJYTGL974X4i4dP+0/XAvfrg+FHF8KviBAcJkAAJkID5BHz+5kbtgVzztVIhCegioIoejREgwaNkW0/BluOFqkeW2oEd3PxhlYbEqd1wsQbIpoj5fcU04KHLXyewdkMtrrn7NSSSGi9LaHFy5PTqnatLn3wShjfQa3FgXKCRAItWGuFnquvJByCwrCr0PSC66Y5x8IAeOHPsUGRnueDWOd2w6J8ESIAETCHAI4OmZII6TCKgjgA2bkodVedoJQHVD1MVxQPqeKEqZNn5+lAC8c274VRbAQ4SaAGBpmgc190zC+s31bZgld6pQsq/TK2svp7XZ+vNQyZ6Z9EqE7NqQExnloT29EN8bIAUdO5QiEvPHIGiED+5NyEf1EACJEACaRPIyofILnJnv5q0g+REEtgGAXUMsEEVq7izyvpnRQDBnOZClhW7sVRrgVT/ywZAHd1U/TA5SKCFBNRj9OhL8/DuJ0tauFLb9E1SiuOmVVa9rU0BHWc0ARatMjq9+oIbNw7+0DfhbyHRS5+K/3kOBHw47+R9MbBPVxPkUAMJkAAJkEDaBASQE4bIKrTmUoW0/XIiCWgmkExANlY1X/7B4RwB1f/Sn93c7N0f2Hyhi+p7qXpgbu6FuaX3pSpKJROpW4RThaqYauHjpqNczmGlp/QJlC9cgfsf/yD9BXpnfpwdjYy8ZyHcsyVMLy96bwUBFq1aAY1L0iMwYUiH/jIZX5jebGdmHT68H0aPGAhVxOIgARIgARJwEQF1iYLqdxXkrlkXZY1SW0NAJpsbrKuCFQcJkICnCGyoqsNf7njVDX2sklLI27crr75iMsAthZ56Sp0PlkUr55l7yaMoLQnPAzDYpKC3694O5520L9qF+cbHpLxQCwmQAAmkRUDdEJbbofkoDwcJZBoB1ay7YQOPlWVaXhkPCaRBIBZP4Japb2PZqk1pzNY3RUp8EQjgyCnzIov1qaBnLxFg0cpL2dYQ64S98rvIpsBqDa636lLdKHjuyftg1527pXZ7c5AACZAACbiMQFYBRE64+egOBwm4nUAi1lysYpN1t2eS+kmg1QSefeMzzHzvi1avd2BhAhB396qoupS7qxygTRc/EODbdT4MthMoLQk/AWCc7Y5a4eDQ/XbBmAMHIhjgm55W4OMSEiABEtBMQDQfGczK16yD7kmglQSk6lsVaW7azUECJOBZAosWr8EdM941Of6KmAwcOaNywwqTRVJbZhJg0Soz82pUVBN3756XSNSpxgxGnuXo1bUIk05RxwXzjOJGMSRAAiRAAmkSUNfY53VsvsKegwTcQOCHvlURNu52Q76okQRsJFBT14Q/3f4KmqJxG7200rREDfy+/yv7dNPdrbTAZSTQZgIsWrUZIQ2kQ2D84PBxQuKpdObqmOP3CZx38n4YuHNXHhfUkQD6JAESIAErCKhbBrNDAPjyxgqctGEDAXXbXKwesnEToO615yABEvA0gUQyiXseeR+ff2NcNxV1Eeab/kDk8CnzEPN0khi8dgJ8Vac9Bd4QMA7wh0rCqlnf9iZHfNi+/XDkQQN4XNDkJFEbCZAACWyNgC8Akd+Ju674lJhFQB0DTN0IWM2dVWZlhmpIQCuBt+Z8gydeLdeq4Vecr0kKceID5VX/NU0Y9XiTAItW3sy7lqjP2y/cLlqL9QB8WgSk6bRn1yL8/tT9UBTi7YJpIuM0EiABEjCPQE47iOxC83RRkXcIqJ1UyShkU01qdxUHCZAACfyYwPerqnDjfbNMg/J6WUVkFKvrpqXF23pYtPJ2/h2PfnxJ6FQB8bDjjlvoMBjw4dKzDsAOPTu0cCWnkwAJkAAJGEMgmAuR2xE8921MRjJfiEwAyThktH5zc3UeAcz8pDNCEmg5gcamGK751+vYFDGmoJ0UQpw1tbxqRsuj4QoSsJcAi1bo1TuwAAAgAElEQVT28qX1XxIQpSXh9wEMcwOcM8buib2Lt4cQ/FZxQ76okQRIgAR+QUAdFyzoCgijN/kycW4koPpTpf4kIGONQKwWSCbcGAk1kwAJOEhA9bH69xNzULHIkIv4BBqFwH5TP43McxADXZFA2gT4TjxtVJxoFYFxA5AVygpvAFBglU077RyyT18cc/Bu8Pv5hsdOzrRNAiRAArYR8PkhCrqxcGUbYA8Y3lycQiIOGW8A4o2pHVUcJEACJNBSAi+/8zlefHthS5fZM18gkZCy/4MV1V/b44BWSaDtBFi0ajtDWmgFgYn987olsoPLAPhbsdzxJXvuth1OP2YPNmh3nDwdkgAJkIBFBIQfopCFK4toZrYZtVtKHfOLN/2vQJXZETM6EiABhwh8WLEU05+d65C3bbpJSpEcO6285oVtzuQEEtBIgEUrjfC97nr84MJhQvo+cAuHvr07YdKp+yEnK+AWydRJAiRAAiTwYwKpo4KqcMWXP3wwfkRAFakSUUh1vC/WQDQkQAIkYAuBTz9fjilPfGiL7VYYlRC4paw8cnUr1nIJCThKgK/aHMVNZz8nML6k3fkCybvdQqZbpxCunHAQcnOCbpFMnSRAAiRAAj8m4M+CKOgCgC+BPP1gJFUfqlpA3eynjv5xkAAJkICNBOYtWIZ/PznHRg8tNl1RVhEZ3OJVXEACGgjwFZsG6HT5UwKlJaEHAHGmW7iwcOWWTFEnCZAACfwGgUAORH5n4vEiAbWjqmFjamcVBwmQAAnYTUBKiTfnfI2nXqu021VL7G8qq4ioK9J5vWlLqHGuNgIsWmlDT8c/JjChJDxNAme5hUr3zmFcOeFA5GRzx5VbckadJEACJPATAln5ELnqNTuHJwgkYpB1a7iryhPJZpAkYAaBeCKJp2dW4u2PvjFDkFLBxuvm5IJK0ibAolXaqDjRbgKlxeH7IHCO3X6sst+jSxhXTTgIWexxZRVS2iEBEiABZwnkhCGyw876pDdnCSRjkLXrAMmb/pwFT28k4G0CDY0x3P3IbCz+fr1RIIQQd00tr7rQKFEUQwLbIMCiFR8RowiMLw7dKYS4wChRWxHTb8fO+P3v9kfA73OLZOokARIgARL4EQGR1xEI5pFJphFIxiHr1wGJWKZFxnhIgAQMJ7BqXTVum/YOauubTFP6bVlFZEfTRFEPCWyLAItW2yLEv3ecQGlx+BwpcK9wSZfcoYO2w5ljh8Ln47eT4w8LHZIACZCABQREQVfAn2WBJZrQTkA1WG/YAMQbtUuhABIgAW8RSEqJD8qX4uHnPzEx8KbQ+sJ2/1y+nFekmpgdatoqAb7L5gNiJIGzdg/t5UuI9wC4omnUIfv0xbGHFvMWdSOfJooiARIggW0REBCF3QBfYFsT+femEpBJyKZqQP3hIAESIAGHCTRF43jg6Y9R8cUKhz2n5U4Knzx96qfVD6c1m5NIwDACLFoZlhDK+R+BswZ37eSTDV8CaOcGLqcdvQf2HbKDG6RSIwmQAAmQwM8JCFW46g4IP9m4jUCsofkoIAcJkAAJaCCwdkMtbi17CzV1xh0H3ExDzi6rqN5fAxq6JAFLCLBoZQlGGrGTQGlJeCGA/nb6sMr2lRMOwo69eBuVVTxphwRIgAQcJZAqXPUABPsUOsq9tc5STdZ5I2Br8XEdCZBA2whIKTGn4jtMf25u2wzZu3p9WUWkk70uaJ0E7CXAopW9fGndIgLjS0J3A2KS6X2usoIBXHfx4QgX5FgUOc2QAAmQAAk4SoA7rhzF3SpnMgFZvx6Im7qroVVRcREJkICLCERjCZQ9NQeVX6w0WXUiHscu0xdEFpssktpIYFsEWLTaFiH+vTEEVJ8rkfC9LSBzjRH1K0K6dizEn847BIEAj5iYnCdqIwESIIHfJqB2XHUFfK5oq+idRKq+VY1VQLTWOzEzUhIgAeMIrN1Qg1umvoXa+qhx2n4sSAA3Tq2I/NFokRRHAmkQYNEqDUicYg6BibsjmEiElgKiuzmqfqmkpH8PnHPiMAjBbzGT80RtJEACJLA1AiK/MxDgzln9T4kEonWQDRv1S6ECEiABzxJQxwHf/WQJHn3pU+MZCIFPp5ZHdjdeKAWSQBoE+I46DUicYh6B0uKiF6SQR5p8XHD0iP4Yc9Cu5sGjIhIgARIggfQJBPMh8toD4Eum9KFZODPeBFm3FoC00ChNkQAJkEDLCKjjgPc++j4WLV7TsoUaZktg7bSKSBcNrumSBGwhwFdgtmClUScIjC8OHyqA5yFg7MfgE08YhiEDezqBgz5IgARIgATsIiB8m28WZIN2uxD/wm4yClm7FpBJx1zSEQmQAAn8GoGNkXrccN8s1Bl+HHCz9mg0mej10Hz1A5SDBDKDAItWmZFHz0Yx+QAElkfCi6XEdiZCUN9gf71gFFSfKw4SIAESIAGXE8gpgshWP8/58sm2TLJYZRtaGiYBEmg5gQVfrcK/Hpntir2eUm1JTWLctPmRp1seKVeQgLkE+KrL3NxQWQsIlJaE75HAuSYeFyzMz8b1Fx+B7KxACyLiVBIgARIgAVMJiPwuQCDbVHku1CWBWCNkw3pA8higCxNIySSQcQRU/6pn31iA12d/4ZbYJARuKSuPXO0WwdRJAukSYNEqXVKcZzyBs4sLBiaF/yMA+aaJ3Wm7jrh8/AFszG5aYqiHBEiABFpNQKC5UXsWd161lmHqNsAIEK1prQWuIwESIAHLCSSSSdz+4Lv4+rt1ltu2y6CU8qVpldVj7LJPuySgkwCLVjrp07cdBMT4kvASAfS2w3hbbO6/x444dQwv8WgLQ64lARIgASMJ8NhgC9IigUQUsk7tqkq0YB2nkgAJkID9BGrqmnDtPa+jprbRfmfWeSgvq4gMsc4cLZGAWQRYtDIrH1RjEYHSkvAjAE427ePvMQcOxOgDBlgUJc2QAAmQAAkYRUAIILcdRFBt+OVLrJ/kJpmAbNgAxF31RtCox4tiSIAE7CWwfHUEN90/C4mkq44pzy+riBTbS4bWSUAvAb6i0suf3m0kUFoSmgSIu01756B2W6ldVxwkQAIkQAIZTiArHyIrDPj9pv0qcgZ8MgbZsImFKmdo0wsJkEAbCHyxZA1un/5uGyxoWCrF52WVVbtq8EyXJOAoARatHMVNZ04TmFhcuF9C+N4BoN4xGDPOGLsnhpUYd4LRGD4UQgIkQAIZScAXBLLyILIKAGHUryXrcMebmndUJePW2aQlEiABErCRwJzKpXjwmbk2erDBtMCisvIIj2/YgJYmzSPAopV5OaEiiwmMH1xULKT8FIDPYtNtMnfC4SU4aO+d22SDi0mABEiABFxOQPiA1I6sfMCnmrq7bMhEczP1WB1v/nNZ6iiXBEgAePeTxfjPi+ptgnuGgPhgakXVvu5RTKUk0DYCLFq1jR9Xu4TAWSWF+/jgm23a+YyD9+mL4w/jMXSXPEaUSQIkQALOEFC9sbIKILIKAV/AGZ/peknGIZvUjX/1AFzV9yXdCDmPBEjAIwQ+qvwODzzzsauiFRLPTK2MHOcq0RRLAm0kwKJVGwFyuXsIlA4OnQQpHjVN8S47dMbFZ4yAeo/CQQIkQAIkQAK/SsCfDZFdCARznfv8JRGDVDuoomoXFW/645NJAiSQOQQqv1yJe//zvqsCkvh/7d0JfF1lnf/x73PuzZ6bpBultKWltIUuNGnDVgq0WBYVUHGsu1DaUtcZxXmN4zj/+dv/32UcB5n566hQ21JRRsa6oI4gslVA1oakLd3oSvc1yc2em3vP858TwFEGbJLe3HuWz329+urCOc/z/b2f09j8POc55l9XNTTfGqjQhEUgCwJ8m5wFRIYIjsDimorbJeO7L/ZDq0q17FPXqLDAZ/+PenCWlqQIIIBA9AScmBQvluJFMrESyfv9QD6ZlKz3Vj/vR6abx/wGYsg5CCAQGIHd+0/o6yselQ3OzaJWMu9e2dB8X2CQCYpAFgVoWmURk6GCIbC4pvJBSVf7LW1hQUx//7GrNHJ4wm/RyIMAAgggEEiBN/tnXnC+UwskO6ERQMC3Am0d3frC7b9Wqicwd492GFfTV2xI7vYtKsEQGGQBmlaDDMzw/hNYJjn7aiq3SZrot3TGGC16z0W6YPpYv0UjDwIIIIAAAggggAACgRWw1urvbv+1mls6g1LD7kxVcurqteoKSmByIjAYAjStBkOVMX0vsLRWpZlM5UFJlX4L6+1tdVntBH3w+lq/RSMPAggggAACCCCAAAKBFPjqnQ9r78GmYGS3WtWyPrl0jRSYW8KCAUvKIArQtAriqpE5KwK31FTVuLJ1kpysDJjlQc4cNUSf/+h8OezQnmVZhkMAAQQQQAABBBCIksCd9z6l+i0HglByxhp7/ar6lgeCEJaMCORCgKZVLpSZw7cCi2ZWfdZY+w2/BiwrKdTff/wqDa0s9WtEciGAAAIIIIAAAggg4FuBnz+0UQ8+udW3+V4LZqQDqS63+u6trSd8H5aACORQgKZVDrGZyp8CS2oqf2alG/yZToo5jm664QJdOONMv0YkFwIIIIAAAggggAACvhOo37xfy3/8jLz9rPz8sVY/j8eT71tepx4/5yQbAvkQoGmVD3Xm9JXAggWKJV6qrDdG5/kq2B+F8TZon10zTje+6wK/RiQXAggggAACCCCAAAK+ETjR3K4vfvM3Smdc32R6gyCusfrgivXJH0vyd2fNz4pkC7UATatQLy/F9VVgwRiVVAyv2inZUX09Jx/HnTGiQl/42JWKx2P5mJ45EUAAAQQQQAABBBDwvUAm4+rz3/i1Wtt9/OI9q32ZwvSFq59vP+x7UAIikEcBmlZ5xGdqfwksmll6hrEF2yX5egOp4sK4PrNwnsaPHuIvQNIggAACCCCAAAIIIOADgS9/9yHtP9zsgyRvEsFoVUt38uNrNivl35AkQ8AfAjSt/LEOpPCJwJIZQy5zHfd3RvL13w3HMXrb5VN0/RXTfCJHDAQQQAABBBBAAAEE8i9w572/V/2Wg/kP8sYJUka6bkVD8mEeB/TrEpHLbwK+/sbcb1jkiYbA4uqKT8mYbwWh2knjRuizN8+T4W9yEJaLjAgggAACCCCAAAKDKPCrx17U/b/bIp/uu76tp9Cdc/dzvB1wEC8Bhg6hAN/qhnBRKenUBZbUVN5ppaWnPtLgj1CZKNHnb5mvIZUlgz8ZMyCAAAIIIIAAAggg4EOBx57doR8/0ODLNwUamXtK2poXf2uHun1IRyQEfC1A08rXy0O4fAksk5y9MyvvN1bX5CtDf+aNxx196Ppaza4Z35/TOBYBBBBAAAEEEEAAgcALPL9hr+76+XNyXV++gO+WFQ3JlYa3Awb+OqOA/AjQtMqPO7MGQGBprQoymcrfSpoXgLgyxqh26hgtee/FQYhLRgQQQAABBBBAAAEETlnggce36FePbfJjwyppnPTlK15o33DKRTIAAhEWoGkV4cWn9JML/OVEFXWUVz4mafbJj/bHEaePqNAXls5XYWHcH4FIgQACCCCAAAIIIIBAlgW8fatW/uQZ1W3a77tHAo3VRpu281ZuamnMctkMh0DkBGhaRW7JKbi/AgtmqyTRWem9UfCC/p6br+OLi+K66YYLNXPK6HxFYF4EEEAAAQQQQAABBAZF4JGnt+vXazeroys1KOOfyqBGej6ZKnzLms3H2k5lHM5FAIFXBGhacSUg0AeBhfNUHGuu/IWkq/twuC8O8R4XnDphpD71kUt7Hx3kgwACCCCAAAIIIIBAUAV2vHxc9z2yUfsONas7lfZnGVbPpGzxlT/YcKTdnwFJhUDwBPhONnhrRuI8CXh7XLmZyu9b6QN5ijCgaYuLCvS2y87VNZedO6DzOQkBBBBAAAEEEEAAgVwLeI//Pb/xZT301Es63tSuzq6eXEfo73w7bGfBrFXbjrf290SORwCBNxegacXVgUA/BBZIsYqaim9I5tP9OM0Xhw6pLNG7r6rWBeeN9UUeQiCAAAIIIIAAAggg8McCruvq4ae26+mGPb2Nqp50JihAjdYUnLeq/vjBoAQmJwJBEaBpFZSVIqefBMyimsRNRs6qID5iO7SqVO+af54unHGmn0zJggACCCCAAAIIIBBBAWttb6Pq9/W7dKyxXZmMGzQF1zi6cMULybqgBScvAkEQoGkVhFUioy8Fbp5RcZHjmIcllfsy4ElCDa0s1fXzp2t29bggxiczAggggAACCCCAQIAFXj7YpHt/Xa/9R5rV0xOYO6r+h7ixZtGK9c13BXgpiI6ArwVoWvl6eQjnd4Gbp5eMdeKFayVN8HvWN8vnNa/eMX+6LqZ5FdQlJDcCCCCAAAIIIBAYgYee2qa1z+7QieaOwGR+86D2/61saLlVkg1BMZSAgC8FaFr5clkIFSSBpbVDKjNp96cymh+k3K/POnxImd515Xk6fzp7XgV5HcmOAAIIIIAAAgj4UeA3T2zVo89sV0tblx/j9TuTkR52Ysm3L6+T73eI73dxnICAjwRoWvloMYgSXIEFU1VYUVjx9SBu0P569RFDy/Xuq2do5pTRwV0QkiOAAAIIIIAAAgj4QuDBJ7fqkadeUkt7ty/yZCnE3oxM9eqG5uYsjccwCCDwJgI0rbg0EMiiwOKZFe+XNT+UFMvisHkZauTwhN5zTbXOmzwqL/MzKQIIIIAAAggggEBwBbw9q1aseUbHGtuCW8QbJ+82TmbmihfatoStMOpBwI8CNK38uCpkCrTA0toh52Uy7kOSRga6kFfDjx1VpY+9/xINqyoLQznUgAACCCCAAAIIIDCIAt7bAO/8j6fVsOXAIM6Sv6GN7LUrGlruz18CZkYgWgI0raK13lSbI4GltYnhmYzzU0mX52jKQZ3GGKMZk0fpox+4RI7hy8agYjM4AggggAACCCAQUIEjx1v1jbvWhmbfqtcvgzXmr1fVN98e0OUhNgKBFOC7z0AuG6GDIPCXE1XUXl7xNSPzmSDk7UvG4sK43vO2Gl0666y+HM4xCCCAAAIIIIAAAhER8DZa/+UjL8q14XyRnpWWn9mQ/PgyyY3IklImAr4QoGnli2UgRIgFzC3VlQtco3skxcNS51ljhunWhXNVWBD4rbvCsiTUgQACCCCAAAII5EUg47r65t2Pa9vuY3mZPyeTWv20pSf5wTWblcrJfEyCAAJ/EKBpxcWAQA4Elswqn+K6sfuNND4H0+VkioJ4TO95a7XmXnB2TuZjEgQQQAABBBBAAAF/CXR0pfTl7z6kxuYOfwXLbpq1sVjZtcvrDoa6yOySMRoC2ROgaZU9S0ZC4M8KLKypqnJkVxnphjBRTZs4Up/80GVyHL6chGldqQUBBBBAAAEEEPhzAkdPtOlryx+R17gK8Wd9LObMXV7XlAxxjZSGgK8F+C7T18tDuLAJLFigWOWOqs9Ya28LU21VFSW9jwuOHJYIU1nUggACCCCAAAIIIPAGAlt3HdW//fAJpTMh3t7Jqk5pe/XKTS2NXAQIIJA/AZpW+bNn5ggLLJ5Zdbmx9j4rDQkLg/eGweuumKZr504JS0nUgQACCCCAAAIIIPA6gfVbD+qOH/1e4dxu/Q/FPluY0du+uzHZxAWAAAL5FaBplV9/Zo+wwI3Vw0YXmPQaSbPDxDBp/Ah9+sbLFY85YSqLWhBAAAEEEEAAgcgL1G3ar+/9+OmQO9jfx2Kxa3kkMOTLTHmBEaBpFZilImgYBRbOU3G8ueIfrcxnwlRfeVmRbr1prkaPrAxTWdSCAAIIIIAAAghEVuDZDXt110+fDXX9Rvaebrfkoz/YcKQ91IVSHAIBEqBpFaDFImp4BW6prnyva/QDSYVhqdJ7XPA918zQ/NmTw1ISdSCAAAIIIIAAApEUWL/1gL77o6fCXbuxX9xZ2fLVtWuVDnehVIdAsARoWgVrvUgbYoEls8qnWDf2S0kTw1TmrKmjtXjBxYo5PC4YpnWlFgQQQAABBBCIhoC36fr/+/7vwryHlWusPrhiffI/orGiVIlAsARoWgVrvUgbcoGltUMqM2n3Dhm9P0yljhpRoVtvnqeKsqIwlUUtCCCAAAIIIIBAqAV27Tuh21Y+JteGc9t1Y7Q1o9hf3FXfuDnUC0lxCARYgKZVgBeP6OEUWCY5+2oSH5Gc5WF6XLCwIK6Pvm+2pk06PZwLR1UIIIAAAggggECIBA4eSeordz6sTMYNUVX/XYqR+dfCVME/fGfzsbZQFkhRCIREgKZVSBaSMsInsHhWxUS55keSzg9TdfMvmaS/uKpajsOXnzCtK7UggAACCCCAQHgEjja26cvf+a1SPZnwFPVqJdZoq2PszSteaHkmdMVREAIhFOC7xhAuKiWFR8B7u6DTXPlZI31JUmg2hZo4brg++aFLVVJUEJ7FohIEEEAAAQQQQCAEAk0tnfrStx9UR1dPCKr5oxKsDhs5f5Psafrxms1Khas4qkEgvAI0rcK7tlQWIoGFNRWT4jLfttJVYSkrUVakT3zwUp01ZmhYSqIOBBBAAAEEEEAg0AKt7V360nceUktbV6DreF34NmPM3ztO6YrldQc7wlQYtSAQBQGaVlFYZWoMhUDvXlczK94ra/5V0shQFCXpXVdO1zWXnitj+HIUljWlDgQQQAABBBAInoDXsPra8kd1ork9eOHfILEx2um6ui0ed360vK4pGYqiKAKBCArwXWIEF52Sgy3wkRkjywqdrk9amWVGtiTY1byS/twJp2nJgtkqLy0MQznUgAACCCCAAAIIBEqgsblDX1/xqJpbOwOV+43CGpn/dK391q4hyUfXrlU68AVRAAIRF6BpFfELgPKDK3DzzPIRjnX+TjKfDsN+V8VFBfrAtTN1UfW44C4KyRFAAAEEEEAAgYAJ7Np3Qt++50m1dwZ4myejZ6yr78fjPb9YXtdxKGBLQFwEEPgzAjStuDwQCLjAx6qHjU4p8zlj7KfC0LyaOWW0brzhAjZpD/h1SXwEEEAAAQQQ8LeA61o98MQW/eejm2T9HfXN0q01sj9xM+aBVRuTu4JZAqkRQOBkAjStTibEf0cgIAJLZgwdI+N+zjr2E7KKBST2G8b0Nmn/8DvOV/W5ZwS5DLIjgAACCCCAAAK+FNi666h++uB67Tvc7Mt8bxjKyNsd/hdG9hepAvvbu59rPRGc8CRFAIGBCtC0Gqgc5yHgU4GltaWj0umCvzZGfyWpwKcx+xRrytkj9f5rZ2rksESfjucgBBBAAAEEEEAAgTcX2H2gUfev3ayNLwXmCboeK/ujmKN/H93V8tiyzQrwM4xcmQggMBABmlYDUeMcBAIgsLQ2MTyTcT4rq1tlVByAyG/8f6oZo0tqxuv6t0xTVUUo9p0P6lKQGwEEEEAAAQQCKGCt1eadR/TbJ7dp2+6jQangmJX+Ph4ru2d53cGOoIQmJwIIZF+AplX2TRkRAV8JLKypqnKMPmus/ZykIl+F60cYxzGaM2uC3nb5uRpaWdqPMzkUAQQQQAABBBCInkBnV49+/8IuPbFut46caA0MgJX9P62plq+u4a6qwKwZQREYTAGaVoOpy9gI+Ehg8bSKoTauLxpjAr1huzFGtdPG6Ko552jcGUN8JEwUBBBAAAEEEEAg/wJ7Dzbpsed2aN3GfepJZ/IfqI8JjJS2jvvulS+0/qqPp3AYAghEQICmVQQWmRIR+GOBxTOrxsna5ZKuDrrM5PEjeptX0yedLq+ZxQcBBBBAAAEEEIiigNecWvfiPj3+3E55+1YF7mPUlbF2xuqGlu2By05gBBAYVAG+yxtUXgZHwJ8CyyRnf3XFB60xd0gq82fKvqc647QKzZ89WRfOOFMF8UC/OLHvRXMkAggggAACCERe4ERTux5ft6v3McC2jqDuUW46jGunr9iQ3B35BQUAAQT+hwBNKy4KBCIssGR62Ug3XvAzI3tJGBgS5cW64sKJuvyCCSovDez2XWFYCmpAAAEEEEAAgUEScK3Vlh1H9Lvnd2rjtoOygzRPjoZNxWLOpOV1TXtzNB/TIIBAwARoWgVswYiLQLYF5s1TfEJz5VeN9DfZHjtf48XjMc2ZOV7zZ0/SacMS+YrBvAgggAACCCCAQNYEUj0ZPdOwRw899ZKONbZlbdw8DuTGMu605Rtbt+YxA1MjgIDPBWha+XyBiIdArgRurq64xnHMj2VVkas5czFP9bmjdfWcyTr7zOG5mI45EEAAAQQQQACBrAp0dKZ6HwF85OmX1NrendWx8zmY69qL79rQ8mw+MzA3Agj4X4Cmlf/XiIQI5Ezg4+dVDknFdJ+ky3M2aY4mOues0/S2uVN07lmn5WhGpkEAAQQQQAABBAYu0NXdo8ee3aEHn9yqru70wAfy4ZnW2Levqm95wIfRiIQAAj4ToGnlswUhDgL5FliwQLGK7RXfkMyn851lMOafMHaY3jl/urwmFh8EEEAAAQQQQMBvAt5jgE/W7dL9v9sc4M3V/4yqsTeurG/5gd/cyYMAAv4UoGnlz3UhFQJ5F1gyq/J91tUPJcXzHmYQAkydOFLvnH+exp0xZBBGZ0gEEEAAAQQQQKD/Apt2HNa//+oFnWhu7//JATjDGvPXq+qbbw9AVCIigIBPBGha+WQhiIGAHwU+VlM1PiX7mJHG+zFfNjLVTh+r6+ZO1ajTQrWVVzZoGAMBBBBAAAEEciTQ3NKpNQ+uV92L+3I0Yx6msfYfVq5v+XIeZmZKBBAIsABNqwAvHtERyIXA0loVZDJVP5fstbmYL19zXFw9Ttdcdq5GjaB5la81YF4EEEAAAQSiJmCt9OQLu/ST36xXdypc+1b96Vrar6xsaPlfUVtf6kUAgVMXoGl16oaMgEAUBMySmoovWpkvhr3YGeecoSsvmaxJ44bLGL5Ehn29qQ8BBBBAAIF8CbR3pvTDX65T/eYD+YqQq3lvW9mQ/JtcTcY8CCAQLgG+IwvXelINAoMqsGhmYraxzq8lhX4jqNvoFY0AACAASURBVNOHJzR/9mTVTBmtRFnRoLoyOAIIIIAAAghES2DPgUYt/4+n1ZjsCHPhVtb+bx4JDPMSUxsCgy9A02rwjZkBgVAJLJg9pqSio+VBGXNZqAp7k2JijtEF543TpbVnacKZw+Rw91UUlp0aEUAAAQQQGDSBx5/fqXvvr5fr2kGbwwcDWyv7l6saWr7tgyxEQACBAAvQtArw4hEdgXwKLKquvM0Y/XU+M+R67mFDynTVJZM1c8oYVSaKcz098yGAAAIIIIBAgAW8JtVPf7tejzy9PcBV9Cl6WsZ+ZGV9y719OpqDEEAAgT8jQNOKywMBBAYssGhm5ZXG6ueSygc8SABP9O62mjl1tC4//2xNHD9cMccJYBVERgABBBBAAIFcCXibrK9Y86w2vnQwV1Pma55jPda99O71rS/lKwDzIoBAuARoWoVrPakGgZwLfGTGyLJCp+t+SZfnfHIfTFhRXqyr5kzWrKljNKyqzAeJiIAAAggggAACfhLwNlz/5t2P6+WDTX6KNRhZ1pW2jbj0Wzt2dA/G4IyJAALRFKBpFc11p2oEsi6weGbF/7LWLDNSLOuDB2TA6ZNP19WXnKuJ44bLcfjyGpBlIyYCCCCAAAKDJtDS1qV/Wf07HTrWMmhz+GBg10grVjQkP+qDLERAAIGQCfBdVcgWlHIQyKfAwpqq8THZX0iakc8c+Z57SGWJrps3rffNg2UlhfmOw/wIIIAAAgggkAeBxuYO3b56rY43tedh9lxNaQ5mXPP+1RuansjVjMyDAALREqBpFa31ploEciKwpKbyK1b6G0kFOZnQp5MUFsR0zaXn9r55sDJR4tOUxEIAAQQQQACBbAsca2rTN1atVXNLZ7aH9st43rsPf3bmu5LvW7ZMrl9CkQMBBMInQNMqfGtKRQj4QmDRzNIzjC3wNmm/0BeB8hjCe1Rw3oUTdeXsyRpaVZrHJEyNAAIIIIAAAoMtcOREa2/Dyns0MJwfs9lIn1zR0Lw2nPVRFQII+EmAppWfVoMsCIRQYFFN1UIj+zVJI0NYXr9KijlGV196jt5y8WQlyor6dS4HI4AAAggggID/Bby9q25b9ZjaO1L+D9v/hN5O8l9d2ZC8rf+ncgYCCCAwMAGaVgNz4ywEEOiHgJXMkprKOyXd9F//2In8Jk8FBTHdcOV5urR2grxHCPkggAACCCCAQPAF9h9u1jfuWqvOrp7gF/OnFbRb6Z54LPmp5XUKXXFhWyzqQSBsAjStwrai1IOAjwUWT6sYqgLdJZlrFeG3DL62RBXlxVr63tm9bxvkgwACCCCAAALBFdi574S+effj6k6lg1vE/0zebo3udZuGfGr1nj1hfdYxTOtFLQiEUoCmVSiXlaIQ8LfAzdOHjo3FM6usdAXNK+n86WP13rfVyGti8UEAAQQQQACBYAk8u/5lff++5+V6W5OH4mMPSfpxpmro51evpVkViiWlCAQCLEDTKsCLR3QEgi7wielDx3bH3e9K9kpJkd7kqagw3nvX1bRJpwd9WcmPAAIIIIBAJAQ6OlO67+GNenzdrsDXayVrpE3GMbeveKH5rsAXRAEIIBAaAZpWoVlKCkEguAKLzhmeMCXp70j2nZISwa3k1JNfOmuC3vv2Gva6OnVKRkAAAQQQQGBQBLxm1faXj+n7P39eHcHfvypljJ5MW/v51Q0tzw8KGIMigAACpyBA0+oU8DgVAQSyK7BsnuL7mqu+LtkPSxqR3dGDM1plolifuWmeRo2IdP8uOAtGUgQQQACB0AlkXKuu7p7eTdW9n5Nt3drx8jFt2XlELx9slA38k4DmkGR/XZjR5767Mem9FZAPAggg4EsBmla+XBZCIRB5AbO4uuIzkvmUjM6SFLmvVY5j9IFrZ+nS2rNkTOTKj/xfAAAQQAABBAZXwNt/qq2jWx2dPeroSunoiTbtP9Ksw8dadfBYUk3JTtngd6Zej+jtEt/gGv3TXfXJnwyuMKMjgAAC2RHgO6HsODIKAggMksCi6sqrjdFXJM2M4qbtZ585TB//wByVl0Z6y69BuroYFgEEEEAgKgLNLZ1qTHZo1/4T2rz9sLbtPirvbqoofKx01Mg+UOC6n7tjQ9vRKNRMjQggEB4BmlbhWUsqQSDUAgtrqsY7st8x0lxJpaEu9nXFeZu037pwrsaPHhqlsqkVAQQQQACBAQu0d6Z0vKldDZsP6Im6nWrrSA14rICe6EraLmu+vnJ986qA1kBsBBBAIHqP3LDmCCAQbIGF88YXx5qbviXpPZKqgl1N/9K/44ppeuvcKXJ4XLB/cByNAAIIIBAJgVRPWvsONeuBx7fqxe2HIlHzGxTpyqjezdhP3rWh5dmoIlA3AgiER4A7rcKzllSCQNQEnCU1lV+y0sckReYWpDNGVurWm+YqUcbjglG74KkXAQQQQOCNBU40d+jJul36zRNbw7gPVZ+X3VhtzFh7C82qPpNxIAIIBECAplUAFomICCDwZwWcxdUVt8mYRZIqo2BVEI/p1pvnasKYYVEolxoRQAABBBB4Q4FjjW36yYPrtX7rwUgLWanTSF9a2ZD8x0hDUDwCCIRSgKZVKJeVohCInsCyeYrvb6q8wxq9X1JZFAQumD5WH7y+ViXFBVEolxoRQAABBBDoFThyvFXfv+957dp3AhHpSCymOcvrkjvBQAABBMIoQNMqjKtKTQhEWODW2Spp7axcba3eIaPisFPEY44++v7ZmnL26fJ+zQcBBBBAAIGwCiTbunTPL+u0YVu076z6o/XdFmtxLlq+qykZ1jWnLgQQQICmFdcAAgiEUmDRHCWc9so7rXSdpEQoi/yjogoL4vrkh+ZowtjhKojTvAr7elMfAgggECWBVE9GDz+1Tb98dFOUyj5Zret2ViVnr12r9MkO5L8jgAACQRagaRXk1SM7AgicVGCeFD97ZsU/yZqbJIV+EyjHMbrxnReoesoZKiniscGTXiAcgAACCCDga4E9Bxr1T997NNIbrL9+gYzRM2Pqk3OWSa6vF49wCCCAQBYEaFplAZEhEEAgGAILq6veHTP2q5LOlhQPRuqBpTRGescV0zX3ookqZc+rgSFyFgIIIIBA3gTaO1Ja8ZNntGXnkbxl8OPExtgnVtS3zJVk/ZiPTAgggEC2BWhaZVuU8RBAwPcCH5tRflrKxL5jjK6MwhsH3zX/PM298Gw2bPf9lUlABBBAAAFrpS27juibdz8OxusErPTYqobkfBpWXBoIIBAlAZpWUVptakUAgf8hsKQ6cbM1zjJJoyXFwkz0oetrdXHNOBXEQ11mmJeQ2hBAAIFQC3R29+iOHz2lbbuPhrrOARb325UNyWsGeC6nIYAAAoEVoGkV2KUjOAIIZFNg4QVlp8d74t+y0lVhv/vq1oVzNWncCHn7X/FBAAEEEEAg3wLe3VW7DzTq6997JN9R/Dr/fSsbkjf4NRy5EEAAgcEU4DuWwdRlbAQQCKTA4lkVbzVW/2KtmSCpMJBFnCR0cWFMf/vRKzVqeEUYy6MmBBBAAIGACHhvBrz7vue17sV9AUmc05jWGK1aUZ9cktNZmQwBBBDwkQBNKx8tBlEQQMBfAgvnqTjWVPVVY+xCKw3xV7rspDl9eEK3LpynykRxdgZkFAQQQAABBPoocOhYi770nYfkurwE7w3IXBn988r65Of7yMlhCCCAQCgFaFqFclkpCgEEsi2weGb55bKx77365sHQbQpVfc4ZuvGGC1RWEsoby7J9OTAeAggggMApCKQzru57eIMefmr7KYwS6lN7JH1iZUNyRairpDgEEECgDwI0rfqAxCEIIIDAawIfrh0+qjiT/pGVnR3GRwevnnOOrp03VUWFcRYdAQQQQACBrAp4e1ftP9qsf7rzEXmNKz5vKNAmay5fub65Hh8EEEAAAYmmFVcBAgggMACBhTVVVXHp11b2YknOAIbw9Sk3vusCXTjjTMVjoSvN1+6EQwABBMIo4DWrWtu7et8MuGv/iTCWmK2admZkzl/d0NycrQEZBwEEEAi6AE2roK8g+RFAIK8CS2YNmWFdd61CuufVJz4wR9Mmna4Yzau8XmdMjgACCARNwGtUpXrSakx26I57n9aR4y1BKyGXeTPWmm+vWt/86VxOylwIIIBAEARoWgVhlciIAAK+FlgmOftrqu62sh8I411XHv6iv7hINVNGq7AgdNt5+fraIhwCCCDgJwHXtXKtlbVW3q+9xpT3e28j9bb2bp1Idmj3/hPavue4du07rp40jwD2Yf2aMxnn8tUbmzb24VgOQQABBCInQNMqcktOwQggMFgCS2YNucx13YeNFNrdzGunj9UHrp2pkqIC7r4arAuJcRFAAIE8CWQybu9eU16zaf/h5t5H+XbvO6F9h5rV3NqZp1ShnTYj6WdjG5LvXybR3QvtMlMYAgicqgBNq1MV5HwEEEDgjwSW1g6pzGTcFyRNCDuMY4yGVpVq+JAyJcqK3nSTxFgspsLCuIqLYioqKFBVokSnDS/XaUPLezd8N8Yo5hg5jiPD/yqF/bKhPgQQ8ImAd4dUusfVrv3H9cz6vVq/5YA6u72X1vEZZAH7Xzcw75Uxc1fWN788yHMxPAIIIBB4Ab49CPwSUgACCPhRYHF11bdk7CfFCy/6vDxe82riuGE6b/IZuvC8sSovK1aMRlaf/TgQAQQQOJmAdxfV4WMt+vXvNqt+84GTHc5/z75AkyP3uu81tD6V/aEZEQEEEAinAE2rcK4rVSGAgA8EFlVXXWGMfUgSG0ENcD0K4o7mz56sKy85R6UlBfLu7uKDAAIIINB3gYzrave+Rv3gF+t05ERr30/kyGwJWMketsa8Y1V9cl22BmUcBBBAICoC/Os/KitNnQggkBeBj59XOSQVs5skMyovAUI26byLJupd86erqLCARwlDtraUgwAC2RPwNknfd7hZP7jvee0/kszewIzUZwEjpa30n4UZLfruxmRTn0/kQAQQQACBPxGgacUFgQACCORAYHFNxe2S+QyPC2YH27sD6/3XztIlM8f37onFBwEEEIi6gPdGv+NN7Vr1s+d6N0/nk3MBb68qV9Y+lXHt0tUbW7fmPAETIoAAAiEU4F/6IVxUSkIAAX8K3FJTVePKepu087U3i0t0cfU4ffgdtYrHeQozi6wMhQACARHw9qn6+UMb9MjT2wOSODQxrdelMtIGa3WHOyS5evVadYWmOgpBAAEEfCLAN04+WQhiIIBANASW1qrAdSt/Y63eEo2Kc1fluDOG6jM3Xa6S4oLcTcpMCCCAQJ4EGrYe0N33rVNHZypPCSI2rdFhWfOgsc4DaeM+uLqhuTliApSLAAII5EWAplVe2JkUAQSiLrC4ZsgcyX0y6g6DUf/40UP1VzderlKaV4PBy5gIIJBHgaMn2rTyJ89o76Em9d7mwycrAtaoxXH1iKTnrNXzsQJn3Rl1Tb271i+TXpNGPCvaDIIAAgj0T4CmVf+8OBoBBBDImsCyqSrcX1B1rzX2hqwNykB/EJhy9kh98kOXKh5zUEEAAQQCK5BKZ/Qf99fr6fo98jZY55MFAaOfxpyCv2yacPzomjVy9d+NqSwMzhAIIIAAAtkUoGmVTU3GQgABBAYg8OHa0lFFbmGdrOUNgwPw+3OneJu0X1p7lj54XS1vG8yyLcMhgMDgCXibqj/6zA7952Ob1JXq4a6qbFFb3dnSk/yrNZvFM5XZMmUcBBBAYJAFaFoNMjDDI4AAAn0UMDfPrLrcce2jMuLWoD6i9fWwmGO04K01mnfRxL6ewnEIIIBATgVSPRn99vfb9MjTL6mrOy2vccUnOwLG2q1uV+GFq7Yd733kjw8CCCCAQHAEaFoFZ61IigACERBYIMWqahIXudY8ImOKI1ByTkssLopr6Xsv0dSJI3M6L5MhgAACrxfIZFyte3Ff71v/Dh5LKpN2/7B5ElrZFHAvXdnQ+hSPAGbTlLEQQACB3AnQtMqdNTMhgAACfRZYJjl7aodMi2fcJ6xU2ecTObBPAkMrS/WZhXN12tDyPh3PQQgggMCpCLS0dWvzzkNat3Gfdu49oZ5MRl7TipupTkX1pOduiMWSs5fXqeOkR3IAAggggIBvBWha+XZpCIYAAgj0vrXIOVxTdWaP7G8lTcIkewLeflcjhyf0yQ/O0QiaV9mDZSQEIirQ3Nqp7buPacuuI9q6+6g6OlLKuFYZ12UD9RxfE47jvvt7L7Tex91VOYZnOgQQQGAQBGhaDQIqQyKAAAKDIGA+NGPo6GIn87ikswZh/MgO6TWvqhLFevc1M3TB9DMj60DhCCBwcoETTW3auP2wtu06qp37jivV4/beMUVj6uR2uTjCGp3oSmvSv29MNuViPuZAAAEEEBh8AZpWg2/MDAgggEA2Bcwt1YlJrnGelVSVzYEZS4rHHFUkivWWiydr3gVnKx5nT3yuCwSiKNDe1aMNWw6ofssB7dp3Qj3pjNLpTO+dU3z8KWCM/i5Zn/znNVLGnwlJhQACCCAwEAGaVgNR4xwEEEAgzwLehu0VMyrnydHDeY4S2um9O7C8jdvPPH2Irn3LVE0eNyK0tVIYAlEW2H+4Wc9v3Ke6TfvU3plST09G6YwbZZJA1W6lTjeVnrB6c/vhQAUnLAIIIIBAnwRoWvWJiYMQQAABfwosHK/iWEXlp+Ton/2ZMDypvLuuykoKdemsCbrmsnNVWBALT3FUgkAEBFxX2rr7iOpe3KuNLx3ubU6letLcPRXktTf2i2MrW766bK3SQS6D7AgggAACby5A04qrAwEEEAiBwMKaqqqYsXfI6n0hKMf3JXh3YZUWF2jy+BF655XTdfrwCt9nJiACURLo6u7Rhm2HtO7FfdpzoLG3OdWdysjyur6QXAb2iElnqle82H4kJAVRBgIIIIDAmwjQtOLSQAABBEIksGjm8DMc9fzKWs0KUVm+L8V7jHB4VZnePm+KZk0d6/u8BEQgLAIt7d3atP2QNm0/rJ17vY3RvbunMr17UPEJpYB1jK4eXZ98dJnEM5yhXGKKQgABBP5UgKYVVwQCCCAQPgHzsZqqcSlrHzdGdFByvL7eZu7lZUWqnTZGb718ihKlRTlOwHQIhE/gRHOHNu14pTm191CzUqm0unvSSqfpW4Rvtd+4ov/aZvBr3ZniL/9gw5H2qNRMnQgggAACEk0rrgIEEEAgvAJm8Ywh06zj/t5IPL+Wp3X29sEaOTyhuRdM1AXnjZHj8EbCPC0F0wZAoDuV1ovbD2v91gPaufeEulI96u5OszF6ANZu0CJa3am0/cLKTS2NgzYHAyOAAAII+FaAppVvl4ZgCCCAQHYEvDcNltckLnLk/E5SPDujMspABBxvL6zSQg1JlOiy88/W7JnjVRDvexPL246npa1bydYONbd0qrmtU23tqd47TlKpVzaVdl1XxUUFKil+5UdpcaFOH1GhMadXqqiA5R/IunHO4Ag0t3bpuQ0v64VN+3uv587uHnlNKz4IWMk61vxbxkl/6a76tmOIIIAAAghEV4CmVXTXnsoRQCBiAktrVZB2E+cb69wvqSpi5fuyXG9Dd28/rMJ4TAUFMZneG6CtrKRMxu19q1na+/nVH96vT+XjPbrozeO9+bC8pEhTJ52umVNG66wxQ+Vl4YPAYAl4m6Cv37Zfz63fpwNHk+roTNGgGizsAI9rZNqM1Y0dxc4j9zzb2BLgUoiOAAIIIJAlAf6FmiVIhkEAAQSCIrBMcnZXl08pcJyfWGvODUpucg6eQCzmyHuM8bRhCV1+/lmaNW2svAYXHwQGIuA1V7fsPKK6F/dq577G3gZVR1cPb+4bCGYUzjHKWKuVruxt7ZNadq1ZI3bRj8K6UyMCCCDQRwGaVn2E4jAEEEAgjAJLZgwdY53MJyT9rSS6FGFc5AHUFHMcVSSKdd7k03XtvGmqLC8ewCicEgWBlrYubdl1RJu3H9Geg680qNo7U3Jd735BPgi8iYDVEdfoWwUx3VtWmDz4L0+rEysEEEAAAQTeSICmFdcFAggggIA+MmNkWaHTUWPlfMVIcyFB4DUB76nBivJiTR5/mq67YqpGDkuAEwGBnnRGxxvbdLSxXUdPtOlY769b5TWpunsyvZuje/tPecfxQeDPCVjphIzWOtK9PT2qLypyji+va0qihgACCCCAQF8EaFr1RYljEEAAgQgJLJ5WMdQaM8GJabE1WiSpMELlU+pJBLwG1vjRQ3X9W6Zp7OlsjebHCyaVSqutI6XWji61tqfU1tGt1vZutbV39W7c7/35axv4e4/ypdPuq3unZf7w61PdP82PLmTKpoDpkOxhI3PYGnvYWLvXOrGdtiez0405h2KO22ZSmdZkor1lDXdRZROesRBAAIHICdC0itySUzACCCDQdwHvzYNlU8tGOEUFI2XthcZovqxmSxor9e4azifCAomyYp01dpiuv2IqDaxBug68N0YePt6iPQcae38cOd7a25Dy7nBKpzPqSb+6Ub/r/Wx7N+13vZP4IDBQAasuObpfVvdmMs5WR267Y9PtTlFhV1lhU2r/GKXYd2qguJyHAAIIINBfAb7h6K8YxyOAAAIIyGtmJc4ZXurGOstsSbws1uPGY8bGM048Hs/YmBt/paHlpGV7XvVyjOn9Tto6NibHJJS2IxyjSdaYa2TtZbAGW8C7A2vC2GG66pJzdPaZw4JdTJ7SHz3Rqg0vHdKm7YfV2NzRe4dUZ1cPTag8rUfEpm2Tsf8so38fW9GyZ9lapSNWP+UigAACCPhUgKaVTxeGWAgggECUBBbWVFXFXHOZcdzbrDQ5SrWHsdaSogINrSrV+DOG6pwJp2nyWSNUmSjh1rxXF9taqx0vH+9tUG3fc0yt7d5jfN1K9bA/VBj/Pvi4ppRkvuvY9Pf2t7fteGCHun2clWgIIIAAAhEVoGkV0YWnbAQQQMCPAsskZ191VbWRXWGNZvkxI5kGJmCMUUHcUUE8pljMkeMYOcbI2+j9lVvwXvvZ9v7ea+y89mfer3t/+9rPeuX33qf3HzLmlZ8d55VxY70/HMXijuIxp3c+7+eSorjKSotVXlaoRGmRysuKVF5SqHLv16VFKistUqKsUF7WbH1aO7q1e9+J3gbVywca1drWrZb2Lt6uly1gxum/gDW/cq37lYKClo3L69TR/wE4AwEEEEAAgdwJZO9fZbnLzEwIIIAAAiEX8JpXB2oqal2ZH4o7r0K+2v4rr7fhFTO9TTDv597fv9oIc2Jeo+2VH44X3Wu+eX0z55V/UnkbmGfSrlLpjDo6U9w95b/ljWqilyX7hQLXffiODW1Ho4pA3QgggAACwROgaRW8NSMxAgggEBmBpbUqsOmq61xjV0oaEpnCKRQBBBA4RQErpYz0TeNkViVfaHtpjcTzp6doyukIIIAAArkXoGmVe3NmRAABBBDop8CHJg6tKC7PLJX0j5Li/TydwxFAAIHICBjp5451bu+0hfU/2HCkPTKFUygCCCCAQCgFaFqFclkpCgEEEAinwNLa0lGZTMH/lbQknBVSFQIIIDAggXWS+UoslnlyeV3r8QGNwEkIIIAAAgj4UICmlQ8XhUgIIIAAAn9eYNGMxDnGcW6X9HasEEAAgSgKWKOtsrrdlXlodUPzy6+8zoAPAggggAAC4RKgaRWu9aQaBBBAIEoCZsmsylk2o3+T0cVRKpxaEUAgsgJPS/bfMnKeolEV2WuAwhFAAIFICdC0itRyUywCCCAQPgErmVu85pXbu9/VVeGrkIoQQCDCAsckfd+47i9txmxauamlMcIWlI4AAgggEEEBmlYRXHRKRgABBMIqsHhG+XQ5zt9K5kOS+N+4sC40dSEQUgFjtNF1zX2SHnOss33MhsaDyyQ3pOVSFgIIIIAAAicV4B/0JyXiAAQQQACBoAksmV420i2IX2es/kHSuKDlJy8CCIRdwB6RnHUy7nNWet4x7p7udNle3vYX9nWnPgQQQACB/grQtOqvGMcjgAACCARGYN48xSckK2uMa66XcW+RzKjAhCcoAggEXaDFyrxojPuCtU6dI+1x3cyh7pKCQ/c829gS9OLIjwACCCCAQC4EaFrlQpk5EEAAAQTyLrBAipXPLD8npthca7VI0vl5D0UABBAItICROWSlZ43cBiuz2TjuYTeto64TO7K6oTnJG/0CvbyERwABBBDwgQBNKx8sAhEQQAABBHIv8JEZ5acVxp1Zcs07JL1P0tDcp2BGBBAIhIDRYUlPWatnHNlN6Uxmn2IF+1Y3NDcHIj8hEUAAAQQQCKgATauALhyxEUAAAQSyJ+A9Rnh245BzXeNeYoy9ychckr3RGQkBBAIlYO02a8zvHGufcKy298TcXXfVt3lv8eODAAIIIIAAAjkWoGmVY3CmQwABBBDwv4C3kbuJFVziOvZ9snq3pAL/pyYhAggMQOA5SY9bo2di1uzMlMV3rvr98dYBjMMpCCCAAAIIIDAIAjStBgGVIRFAAAEEwiOwtFalbqbqQit7raw+LKPTw1MdlSAQGYEj//V3+Hlj9awj22Di2iG17lxep57ICFAoAggggAACARSgaRXARSMyAggggEB+BJZJzoHqoVOsMnNcR+8zVm/JTxJmRQCBNxSwZr+MXWekdcaaza60R2n35ZWbWhoRQwABBBBAAIHgCdC0Ct6akRgBBBBAwCcCS2uHVFqbudh19TZjnPdaa0f5JBoxEAizgJW0x0h1Mqqz1t1qTWx33DF7ltc1eW/s44MAAggggAACIRGgaRWShaQMBBBAAIG8C5iFNRUTjdH5jtXVkrlO0vC8pyIAAkEWsOoyxjzrGvt0zFW9K7PddsV3rNrGvlNBXlayI4AAAggg0FcBmlZ9leI4BBBAAAEE+idglsyoHG8dUy3Z2Ua6wkqzJMX6NwxHIxAZgZSVnpbsY45izztpd9sZLyZ3L5PcyAhQKAIIIIAAAgj8iQBNKy4IBBBAAAEEciQwMmgx5gAAA8tJREFUb57ik5oSEzJyxhuZMZI7TsYMN9Jw12i4sRpmrIqskZWM9wiUlWxKkvfIU7NkmyWnyVh71Bod9/7cSM3G+3NrkzbjJgtMPNVmkqnjHUqPrUwkMtZUmXRslOtkZhhjLpOrt8sokaOSmQaBNxPwru/tMnrMZuxTijnrW7ubt6zZLO9654MAAggggAACCPQK0LTiQkAAAQQQQCBCAgsWKJbYkbhQ1lxjZG6SND5C5VNqfgSstdrmSL+X9Jwx7os9im1e3dDcnJ84zIoAAggggAACQRGgaRWUlSInAggggAACgyCwaGbl+cbq3bJaJKORgzAFQ0ZIwEpHHWmDtXaDdcxma90tbbH4pjVskB6hq4BSEUAAAQQQyJ4ATavsWTISAggggAACgRXwnkdcXJ2YI8UWOMZ+xEpDAlsMwQdDIGWkw1Y6JO+H0SHj2kOSs9+VPRBT5oCJF+zn7X2DQc+YCCCAAAIIRFeAplV0157KEUAAAQQQeEOBZfMU39tUdZkj3WCN/QBvQQzBhWKUkVWrpBZjlLTWtliZFmOVlFGjsfaElZrkOEkr6+2hloxZm3QdNWVc5/jqhmbvz7x9qPgggAACCCCAAAI5E6BplTNqJkIAAQQQQCB4AsskZ2914hIpdrUx9jpJNeyJmd91NNJRa7VRxu6TzAHJHPM26rfGtsVc2+Ya22ZNrC3u2Da3O93W7ZS3/WDDkQ6aTvldN2ZHAAEEEEAAgf4L0LTqvxlnIIAAAgggEFmBpbWlozKZ+BWSmSNpjoymyyoWWZDBLtxqmzH2WddonZGz3lV6y131bV6Tig8CCCCAAAIIIBB6AZpWoV9iCkQAAQQQQGDwBBbNGZ5w2tO1rnHPk+tMNLKTZeT9GEczq3/uxmqrjK1zpXXWOPWpQqf+nmcbW/o3CkcjgAACCCCAAALhEaBpFZ61pBIEEEAAAQR8I7BgqgoTRcOHOyYzXGl3uGs03HGUcF1baowpMTKlVjb+J4Gt+ZM9k6xx08YqI5keR6bHOm7aWqWt93tr0t65rnltnyVbIGuLjTFFMrZU1iRklZCxCWudCsfYhIwS1qpCUsLKVBjZkjyB7ZbVNmvsVlmzTY67Pu4k1i+vO+g9wscHAQQQQAABBBBA4FUBmlZcCggggAACCCAQSYEFCxQr216VMAVOQmkl5KQTMWvKTMYtdY1TIrml1r7ys9P7e5VKKvCabdYqZoyJG8n7ddwaG3ekmJXpNNZ2Wsd0GGu7vE3OrTWHJPegzTiHWjPJ/Ws2KxVJcIpGAAEEEEAAAQT6KfD/AY2k5p08nJl9AAAAAElFTkSuQmCC;" vertex="1" parent="7">
                    <mxGeometry x="275" y="170" width="219.56" height="220" as="geometry"/>
                </mxCell>
                <mxCell id="10" value="Click the Cookie." style="text;html=1;align=center;verticalAlign=middle;resizable=0;points=[];autosize=1;strokeColor=none;fillColor=none;fontSize=15;" vertex="1" parent="7">
                    <mxGeometry x="310" y="120" width="140" height="30" as="geometry"/>
                </mxCell>
                <mxCell id="11" value="Cookie Count: 17" style="text;html=1;align=center;verticalAlign=middle;resizable=0;points=[];autosize=1;strokeColor=none;fillColor=none;fontSize=15;" vertex="1" parent="7">
                    <mxGeometry x="315" y="410" width="140" height="30" as="geometry"/>
                </mxCell>
            </root>
        </mxGraphModel>
    </diagram>
</mxfile>